<svg width="32" height="32" viewBox="0 0 32 32" fill="none" xmlns="http://www.w3.org/2000/svg">
<rect width="32" height="32" rx="16" fill="white"/>
<path d="M4.80893 20.0756L11.3909 18.3306L11.3949 18.3265L15.2009 11.7986L13.4389 5.27856L10.3469 6.09656L12.1089 12.6176C12.2589 13.1755 12.1839 13.7595 11.8909 14.2585C11.5979 14.7606 11.1279 15.1185 10.5649 15.2676L3.98193 17.0126L4.80893 20.0756Z" fill="black"/>
<path d="M20.6078 18.3306L27.1909 20.0756L28.0179 17.0126L21.4348 15.2676C20.8708 15.1185 20.4019 14.7606 20.1089 14.2585C19.8159 13.7595 19.7399 13.1755 19.8909 12.6176L21.6528 6.09656L18.5609 5.27856L16.7979 11.7986L20.6049 18.3265L20.6078 18.3306Z" fill="black"/>
<path d="M19.8029 19.7065L24.6239 24.4816L22.3618 26.7216L17.5419 21.9475C17.1279 21.5376 16.5838 21.3146 15.9969 21.3146C15.4108 21.3146 14.8658 21.5376 14.4529 21.9475L9.63284 26.7216L7.37085 24.4816L12.1909 19.7065H19.8029Z" fill="black"/>
</svg>
