<svg width="32" height="32" viewBox="0 0 32 32" fill="none" xmlns="http://www.w3.org/2000/svg">
<rect width="32" height="32" rx="16" fill="#0137F9"/>
<path fill-rule="evenodd" clip-rule="evenodd" d="M6.19338 23.5923V9.19338H25.3621V23.5923H6.19338ZM5.77942 8C5.34894 8 5 8.34898 5 8.77943V24.0062C5 24.4367 5.34894 24.7857 5.77942 24.7857H25.776C26.2065 24.7857 26.5555 24.4367 26.5555 24.0062V8.77943C26.5555 8.34894 26.2065 8 25.776 8H5.77942ZM11.918 12.1656H10.2994L9.25523 20.8549H10.5568L10.7097 18.9641H11.4369L11.5898 20.8549H12.9622L11.918 12.1656ZM10.8029 17.8118L10.9446 16.0292H10.9483L11.0528 14.5262H11.0863L11.1908 16.0292L11.3436 17.8118H10.8029ZM14.4464 20.8549H15.8449V17.5806H16.2775C17.2733 17.5806 17.8849 16.9913 17.8849 15.9471V13.8102C17.8849 12.7511 17.277 12.1656 16.2775 12.1656H14.4464V20.8549ZM16.1619 16.5326H15.8561V13.2098H16.1619C16.3969 13.2098 16.4901 13.4224 16.4901 13.8102V15.9471C16.4901 16.32 16.3969 16.5326 16.1619 16.5326ZM19.4959 12.1656V20.8549V20.8586H22.2183V19.7063H20.8907V17.0398H22.0766V15.8874H20.8907V13.3179H22.2183V12.1656H19.4959Z" fill="white"/>
</svg>
