<svg width="200" height="200" viewBox="0 0 200 200" fill="none" xmlns="http://www.w3.org/2000/svg">
<path d="M100 200C155.228 200 200 155.228 200 100C200 44.7715 155.228 0 100 0C44.7715 0 0 44.7715 0 100C0 155.228 44.7715 200 100 200Z" fill="white"/>
<path d="M33.3452 69.4756V133.301C33.3452 137.363 35.5094 141.126 39.0386 143.157L94.3077 175.053C97.8369 177.084 102.165 177.084 105.694 175.053L160.964 143.157C164.493 141.126 166.657 137.363 166.657 133.301V69.4756C166.657 65.4137 164.493 61.6514 160.964 59.6204L105.694 27.7242C102.165 25.6932 97.8369 25.6932 94.3077 27.7242L39.0386 59.6204C35.5427 61.6514 33.3452 65.4137 33.3452 69.4756Z" fill="#213147"/>
<path d="M112.086 113.758L104.195 135.366C103.962 135.965 103.962 136.631 104.195 137.231L117.746 174.421L133.428 165.365L114.616 113.758C114.183 112.559 112.518 112.559 112.086 113.758Z" fill="#12AAFF"/>
<path d="M127.869 77.4001C127.436 76.2014 125.771 76.2014 125.339 77.4001L117.448 99.0083C117.215 99.6076 117.215 100.273 117.448 100.873L139.655 161.769L155.337 152.712L127.869 77.4001Z" fill="#12AAFF"/>
<path d="M99.9999 30.0883C100.399 30.0883 100.766 30.1882 101.132 30.3879L160.929 64.9144C161.628 65.314 162.061 66.0465 162.061 66.8455V135.899C162.061 136.698 161.628 137.43 160.929 137.83L101.132 172.39C100.799 172.589 100.399 172.689 99.9999 172.689C99.6004 172.689 99.2342 172.589 98.8679 172.39L39.1041 137.863C38.4049 137.463 37.9721 136.731 37.9721 135.932V66.8455C37.9721 66.0465 38.4049 65.314 39.1041 64.9144L98.9012 30.3879C99.2342 30.1882 99.6337 30.0883 99.9999 30.0883ZM99.9999 20C97.8691 20 95.7382 20.566 93.8404 21.6647L34.0433 56.1913C30.2477 58.3887 27.8838 62.4506 27.8838 66.8455V135.899C27.8838 140.293 30.2477 144.389 34.0433 146.586L93.8404 181.113C95.7382 182.211 97.8691 182.777 99.9999 182.777C102.131 182.777 104.262 182.211 106.159 181.113L165.957 146.586C169.785 144.389 172.116 140.327 172.116 135.899V66.8455C172.116 62.4506 169.752 58.3554 165.957 56.158L106.193 21.6647C104.262 20.566 102.131 20 99.9999 20Z" fill="#9DCCED"/>
<path d="M60.4795 161.835L65.9731 146.786L77.0269 155.975L66.7056 165.431L60.4795 161.835Z" fill="#213147"/>
<path d="M94.9729 61.9178H79.8238C78.6918 61.9178 77.6596 62.617 77.2934 63.6825L44.7979 152.779L60.4796 161.835L96.2713 63.7158C96.571 62.8501 95.9384 61.9178 94.9729 61.9178Z" fill="white"/>
<path d="M121.511 61.9177H106.362C105.23 61.9177 104.198 62.6169 103.832 63.6823L66.7085 165.431L82.3903 174.487L122.777 63.7489C123.11 62.85 122.444 61.9177 121.511 61.9177Z" fill="white"/>
</svg>
