<svg width="32" height="32" viewBox="0 0 32 32" fill="none" xmlns="http://www.w3.org/2000/svg">
<rect width="32" height="32" rx="16" fill="#FFB852"/>
<path d="M9.5995 21.0711C9.60157 21.1791 9.60316 21.2423 9.45395 21.244L7.52075 21.2633L7.54242 23.0166L10.912 22.9801L10.9436 25.5281L12.6188 25.5082L12.5872 22.9603L13.6286 22.9493L13.6592 25.4937L15.2528 25.4766L15.2247 22.9277L16.4232 22.9167C17.2213 22.9059 20.0707 22.1965 20.0327 19.5529C20.0551 18.8375 19.8349 18.1356 19.4078 17.5612C18.9807 16.9869 18.3719 16.5739 17.6803 16.3894C17.6803 16.3894 19.2909 15.3946 19.1157 13.7265C18.9405 12.0583 17.6278 11.6051 16.8725 11.3652C16.2857 11.2044 15.6825 11.1114 15.0745 11.0879L15.0425 8.42407L13.5114 8.45113L13.5467 11.0991L12.3157 11.1148L12.2917 8.45271L10.743 8.48432L10.7741 11.1447L7.52814 11.1833L7.54242 12.7514L9.32213 12.7304C9.50122 12.7283 9.50226 12.8179 9.50295 12.8776L9.5995 21.0711ZM12.3293 12.6945L14.2214 12.6738C14.5463 12.671 16.1279 12.9226 16.1353 14.2644C16.1476 14.6321 16.0278 14.9921 15.7974 15.2791C15.5671 15.5661 15.2415 15.761 14.8798 15.8285C14.7349 15.8661 14.5866 15.8887 14.4371 15.8958L12.3509 15.9187L12.3293 12.6945ZM12.4103 17.5873L15.3675 17.5608C15.5816 17.5622 15.7931 17.6073 15.9891 17.6933C16.1852 17.7793 16.3616 17.9043 16.5077 18.0608C16.6538 18.2172 16.7664 18.4018 16.8387 18.6033C16.9111 18.8048 16.9416 19.0188 16.9285 19.2325C16.9423 20.2993 16.0161 20.7778 15.5293 20.9054C15.458 20.9264 15.3844 20.9382 15.3102 20.9404L12.4567 20.9772L12.4103 17.5873Z" fill="#FFE3BD"/>
<path fill-rule="evenodd" clip-rule="evenodd" d="M8.91703 20.5729L6.83594 20.5937L6.87431 23.7002L10.2439 23.6638L10.2755 26.2124L13.3033 26.1764L13.3032 26.1739L15.9364 26.1455L15.9083 23.5978L16.4292 23.593H16.4323C16.9491 23.5859 17.9839 23.3732 18.9021 22.7942C19.8485 22.1973 20.7265 21.1678 20.7091 19.5585C20.7326 18.696 20.4655 17.8503 19.9504 17.1576C19.665 16.7738 19.3127 16.4494 18.9135 16.198C18.9368 16.1714 18.9601 16.1442 18.9833 16.1163C19.4313 15.5784 19.9017 14.7364 19.7882 13.6558C19.6802 12.6277 19.2078 11.9363 18.6312 11.4799C18.0805 11.044 17.4559 10.8409 17.0771 10.7206L17.0642 10.7165L17.0511 10.7129C16.622 10.5953 16.1847 10.5111 15.7432 10.4609L15.7104 7.73584L12.9618 7.78436L12.9616 7.76248L10.0588 7.82176L10.0897 10.4764L6.84553 10.515L6.8721 13.4358L8.83269 13.4126L8.91703 20.5729ZM10.774 11.1447L7.52796 11.1833L7.54224 12.7514L9.32194 12.7304C9.50111 12.7283 9.50208 12.8179 9.50277 12.8776L9.59932 21.0711V21.0718C9.60146 21.1794 9.60263 21.2422 9.45376 21.244L7.52064 21.2633L7.54231 23.0166L10.9119 22.9801L10.9434 25.5281L12.6185 25.5082L12.5871 22.9602L13.6284 22.9493L13.659 25.4937L15.2527 25.4765L15.2246 22.9277L16.4231 22.9167C17.2212 22.9059 20.0705 22.1964 20.0326 19.5529C20.055 18.8375 19.8347 18.1356 19.4077 17.5612C19.1393 17.2004 18.7994 16.9033 18.4121 16.6865C18.183 16.5582 17.9373 16.458 17.6802 16.3894C17.6802 16.3894 17.9685 16.2114 18.2879 15.8795C18.7234 15.4271 19.2166 14.6889 19.1155 13.7265C18.9403 12.0583 17.6276 11.6051 16.8724 11.3652C16.2855 11.2044 15.6823 11.1114 15.0743 11.0879L15.0424 8.42406L13.5112 8.45112L13.5465 11.0991L12.3156 11.1148L12.2915 8.4527L10.7428 8.48431L10.774 11.1447ZM16.1352 14.2644C16.1278 12.9226 14.5461 12.671 14.2212 12.6738L12.3292 12.6945L12.3508 15.9187L14.437 15.8958C14.5864 15.8887 14.7348 15.8661 14.8796 15.8285C15.2414 15.761 15.5669 15.5661 15.7973 15.2791C16.0276 14.9921 16.1475 14.6321 16.1352 14.2644ZM14.4159 15.2197C14.5151 15.2142 14.6134 15.1988 14.7095 15.1738L14.7323 15.1679L14.7555 15.1636C14.9583 15.1257 15.1407 15.0166 15.2698 14.8557C15.3989 14.6949 15.4661 14.4931 15.4592 14.287L15.4589 14.2775L15.4588 14.268C15.4569 13.9283 15.2809 13.7207 14.982 13.5632C14.8281 13.4821 14.6583 13.4266 14.5062 13.392C14.4315 13.375 14.3653 13.3641 14.3131 13.3576C14.2871 13.3543 14.2659 13.3524 14.25 13.3513C14.2356 13.3503 14.2283 13.3502 14.2272 13.3502C14.2269 13.3502 14.2269 13.3502 14.2272 13.3502L13.01 13.3634L13.0226 15.2349L14.4159 15.2197ZM16.9283 19.2325C16.9415 19.0188 16.911 18.8047 16.8386 18.6033C16.7663 18.4018 16.6536 18.2172 16.5076 18.0608C16.3615 17.9043 16.185 17.7792 15.989 17.6933C15.7929 17.6073 15.5814 17.5622 15.3674 17.5607L12.4101 17.5872L12.4566 20.9768L15.31 20.9404C15.3843 20.9382 15.4579 20.9264 15.5291 20.9054C16.0159 20.7778 16.9422 20.2993 16.9283 19.2325ZM15.2935 20.2642C15.3085 20.2635 15.3234 20.2609 15.3377 20.2567L15.3477 20.2538L15.3577 20.2512C15.52 20.2086 15.7659 20.1015 15.9572 19.9247C16.1325 19.7625 16.2561 19.5512 16.252 19.2413L16.2517 19.2161L16.2532 19.1909C16.2608 19.0689 16.2434 18.9468 16.2021 18.8319C16.1608 18.717 16.0965 18.6116 16.0132 18.5223C15.9298 18.4331 15.8291 18.3617 15.7173 18.3127C15.6069 18.2643 15.4879 18.2385 15.3673 18.2371L13.0957 18.2575L13.1236 20.2922L15.2935 20.2642Z" fill="black"/>
<path d="M14.3558 3.03873C16.9949 2.83746 19.6318 3.424 21.9338 4.72014L21.5383 5.38274C19.3731 4.16805 16.8949 3.6187 14.4144 3.80787C11.8215 4.00562 9.35327 5.00072 7.34823 6.65671C5.34319 8.31267 3.89957 10.5484 3.21537 13.0572C2.53117 15.5661 2.6399 18.2252 3.52664 20.6698C4.41339 23.1144 6.03473 25.2247 8.16827 26.7115C10.3018 28.1982 12.843 28.9885 15.4435 28.9739C18.0439 28.9593 20.5762 28.1405 22.6929 26.6299C24.7177 25.1849 26.2674 23.1744 27.1503 20.8541L27.8786 21.109C26.943 23.5796 25.2954 25.7202 23.1409 27.2578C20.8947 28.8609 18.2074 29.7298 15.4478 29.7452C12.6882 29.7607 9.99138 28.9221 7.72726 27.3444C5.46314 25.7666 3.74252 23.527 2.8015 20.9328C1.86047 18.3385 1.74508 15.5166 2.47117 12.8542C3.19726 10.1918 4.72925 7.81928 6.85705 6.06193C8.98479 4.3046 11.6041 3.24859 14.3558 3.03873Z" fill="black"/>
<path d="M28.168 16.8651H22.9202V15.4306L24.6491 13.6771C25.2621 13.0477 25.6872 12.5654 25.9242 12.2303C26.1695 11.8952 26.2921 11.5396 26.2921 11.1636C26.2921 10.7794 26.1899 10.5096 25.9856 10.3543C25.7893 10.199 25.5073 10.1214 25.1395 10.1214C24.5918 10.1214 23.9951 10.1704 23.3494 10.2685L23.0551 10.3053L22.9692 8.99334C23.7703 8.74813 24.6 8.62549 25.4583 8.62549C27.1749 8.62549 28.0332 9.39798 28.0332 10.9429C28.0332 11.5477 27.9024 12.0709 27.6408 12.5123C27.3793 12.9537 26.9051 13.4891 26.2185 14.1186L24.8084 15.3938H28.168V16.8651Z" fill="#FFDFB6"/>
<path fill-rule="evenodd" clip-rule="evenodd" d="M28.8444 17.5415H22.2439V15.1533L24.1646 13.2054L24.166 13.2039C24.7748 12.5787 25.1677 12.1287 25.3721 11.8398L25.3752 11.8354L25.3784 11.831C25.5482 11.599 25.6157 11.3811 25.6157 11.1637C25.6157 11.0279 25.5972 10.9504 25.5829 10.9128C25.5782 10.9003 25.5745 10.8934 25.5724 10.89L25.571 10.8889L25.5658 10.8847C25.5338 10.8595 25.4241 10.7978 25.1395 10.7978C24.6316 10.7978 24.0693 10.8434 23.4509 10.9373L23.4421 10.9386L22.427 11.0655L22.2594 8.50341L22.7713 8.34668C23.6381 8.08131 24.5346 7.94922 25.4583 7.94922C26.4043 7.94922 27.2401 8.16054 27.842 8.70218C28.4574 9.25603 28.7095 10.0467 28.7095 10.943C28.7095 11.6473 28.5564 12.2941 28.2227 12.8573C27.9103 13.3845 27.3782 13.9732 26.6755 14.6172L26.6722 14.6203L26.5647 14.7175H28.8444V17.5415ZM24.8084 15.3939L26.2185 14.1187C26.9051 13.4892 27.3793 12.9538 27.6408 12.5125C27.9024 12.071 28.0332 11.5479 28.0332 10.943C28.0332 9.39806 27.1749 8.62557 25.4583 8.62557C24.6 8.62557 23.7703 8.74821 22.9692 8.99342L23.0551 10.3054L23.3494 10.2686C23.4772 10.2492 23.6031 10.2317 23.727 10.2161C24.2294 10.153 24.7002 10.1215 25.1395 10.1215C25.5074 10.1215 25.7894 10.1991 25.9856 10.3544C26.1899 10.5098 26.2921 10.7795 26.2921 11.1637C26.2921 11.5397 26.1695 11.8952 25.9243 12.2304C25.6872 12.5655 25.2622 13.0478 24.6491 13.6772L22.9202 15.4306V16.8652H28.168V15.3939H24.8084Z" fill="black"/>
</svg>
