<svg width="32" height="32" viewBox="0 0 32 32" fill="none" xmlns="http://www.w3.org/2000/svg">
<rect width="32" height="32" rx="16" fill="#F1EEE9"/>
<path d="M24.9994 6.00129C24.9963 6.20501 24.9916 6.40872 24.9792 6.61245C24.8679 8.48327 24.1997 10.3119 23.088 11.7842C22.7651 12.2244 22.3878 12.6138 22.0107 13.0028C21.89 13.1274 21.7692 13.252 21.6504 13.3782C20.2944 14.7937 18.9381 16.2086 17.5818 17.6235C15.982 19.2926 14.3821 20.9617 12.7826 22.6317C11.93 23.5099 11.4415 24.7476 11.4399 25.9967H11.4381C9.95907 25.9976 8.48001 25.9984 7.00178 25.996C7.00489 25.819 7.00878 25.6429 7.01578 25.4667C7.12703 23.2396 8.03799 21.0685 9.53163 19.4736C10.9979 17.9431 12.4646 16.413 13.9314 14.8828C15.6919 13.0461 17.4524 11.2094 19.2123 9.37201C20.0681 8.49301 20.5581 7.25283 20.5605 6.00129L21.3003 6.00084C22.5333 6.00005 23.7663 5.99926 24.9994 6.00129Z" fill="black"/>
<path d="M24.7581 23.8272C24.9191 24.5374 24.9969 25.2671 25 25.9968C24.3798 25.9981 23.7595 25.9976 23.1391 25.9971C22.2795 25.9964 21.4197 25.9958 20.5603 26C20.5549 25.0569 20.2865 24.1145 19.7746 23.3354C19.181 22.4117 18.2662 21.7292 17.2455 21.4175C17.7639 20.8785 18.2812 20.3385 18.7984 19.7984C19.3973 19.1731 19.9962 18.5478 20.5969 17.9242C22.6709 19.2001 24.2119 21.3794 24.7581 23.8272Z" fill="black"/>
<path d="M13.3279 12.0683C13.8035 11.5719 14.279 11.0754 14.7553 10.5796C13.856 10.3061 13.0384 9.74604 12.4518 8.9831C11.8007 8.14712 11.4428 7.07657 11.4405 6.00034C10.7003 6.00074 9.96026 6.00074 9.22024 6.00074C8.48023 6.00074 7.74021 6.00074 7 6.00115C7.00311 7.02219 7.1587 8.04323 7.47299 9.0107C8.14979 11.1161 9.57341 12.943 11.4039 14.0737C12.0464 13.4061 12.6872 12.7372 13.3279 12.0683Z" fill="black"/>
<path d="M13.7793 6C13.7757 6.33786 13.8427 6.67616 13.989 6.98498C14.4324 8.02712 15.6732 8.58471 16.7039 8.19838C17.6024 7.90854 18.2225 6.96444 18.2244 6H13.7793Z" fill="black"/>
<path d="M18.1357 25.3612C18.1978 25.5696 18.2263 25.784 18.225 25.9976H13.7797C13.7873 25.194 14.1951 24.3924 14.8808 23.9952C15.7995 23.4109 17.0987 23.6681 17.746 24.565C17.9241 24.8004 18.0571 25.0722 18.1357 25.3612Z" fill="black"/>
</svg>
