<svg width="32" height="32" viewBox="0 0 32 32" fill="none" xmlns="http://www.w3.org/2000/svg">
<rect width="32" height="32" rx="16" fill="#96532C"/>
<path fill-rule="evenodd" clip-rule="evenodd" d="M21.5396 20.6346V19.0699C22.4485 18.7395 23.1105 17.7137 23.1105 16.4996C23.1105 15.2855 22.4485 14.2567 21.5396 13.9293V12.3645C22.3956 12.0545 23.0339 11.1243 23.1046 10H22.0633V10.4781C22.0633 10.8461 21.8513 11.1707 21.5396 11.333V11.1098C21.5396 10.7824 21.2689 10.5158 20.9365 10.5158H20.8834C20.5511 10.5158 20.2804 10.7824 20.2804 11.1098V11.333C19.9686 11.1707 19.7569 10.849 19.7569 10.4781V10H18.7154C18.786 11.1243 19.4243 12.0545 20.2804 12.3645V13.9293C19.3744 14.2567 18.7095 15.2826 18.7095 16.4996C18.7095 17.7166 19.3714 18.7424 20.2804 19.0699V20.6346C19.4243 20.9447 18.786 21.8749 18.7154 22.9992H19.7569V22.5211C19.7569 22.153 19.9686 21.8285 20.2804 21.6662V21.8894C20.2804 22.2168 20.5511 22.4834 20.8834 22.4834H20.9365C21.2689 22.4834 21.5396 22.2168 21.5396 21.8894V21.6662C21.8513 21.8285 22.0633 22.1502 22.0633 22.5211V22.9992H23.1046C23.0339 21.8749 22.3956 20.9447 21.5396 20.6346ZM19.7569 17.1835V15.8128C19.7569 15.4448 19.9686 15.1203 20.2804 14.958V15.1811C20.2804 15.5086 20.5511 15.7752 20.8834 15.7752H20.9365C21.2689 15.7752 21.5396 15.5086 21.5396 15.1811V14.958C21.8513 15.1203 22.0633 15.4419 22.0633 15.8128V17.1835C22.0633 17.5515 21.8513 17.876 21.5396 18.0383V17.8151C21.5396 17.4877 21.2689 17.2211 20.9365 17.2211H20.8834C20.5511 17.2211 20.2804 17.4877 20.2804 17.8151V18.0383C19.9715 17.876 19.7569 17.5543 19.7569 17.1835Z" fill="white"/>
<path fill-rule="evenodd" clip-rule="evenodd" d="M27.929 17.3312V15.665C28.838 15.3347 29.5 14.3089 29.5 13.0948C29.5 11.8806 28.838 10.8519 27.929 10.5245V10H26.6729V10.5245C25.7639 10.8548 25.1019 11.8806 25.1019 13.0948C25.1019 14.3089 25.7639 15.3376 26.6729 15.665V17.3312C25.7639 17.6616 25.1019 18.6874 25.1019 19.9015C25.1019 21.1157 25.7639 22.1443 26.6729 22.4718V22.9963H27.929V22.4718C28.838 22.1414 29.5 21.1157 29.5 19.9015C29.5 18.6874 28.838 17.6616 27.929 17.3312ZM26.1464 13.7786V12.408C26.1464 12.04 26.3581 11.7155 26.6699 11.5532V11.7763C26.6699 12.1038 26.9406 12.3704 27.2731 12.3704H27.3231C27.6554 12.3704 27.9261 12.1038 27.9261 11.7763V11.5532C28.2379 11.7155 28.4498 12.0371 28.4498 12.408V13.7786C28.4498 14.1466 28.2379 14.4712 27.9261 14.6335V14.4103C27.9261 14.0829 27.6554 13.8163 27.3231 13.8163H27.2702C26.9377 13.8163 26.667 14.0829 26.667 14.4103V14.6335C26.361 14.4712 26.1464 14.1495 26.1464 13.7786ZM28.4528 20.5883C28.4528 20.9563 28.2408 21.2808 27.929 21.4431V21.1157C27.929 20.7882 27.6584 20.5216 27.326 20.5216H27.2761C26.9435 20.5216 26.6729 20.7882 26.6729 21.1157V21.4431C26.361 21.2808 26.1493 20.9592 26.1493 20.5883V19.2177C26.1493 18.8497 26.361 18.5251 26.6729 18.3628V18.4816C26.6729 18.8091 26.9435 19.0757 27.2761 19.0757H27.329C27.6613 19.0757 27.932 18.8091 27.932 18.4816V18.3628C28.2438 18.5251 28.4557 18.8468 28.4557 19.2177V20.5883H28.4528Z" fill="white"/>
<path d="M15.32 15.0734C15.3283 15.1057 15.335 15.1388 15.341 15.1726C15.4188 15.6327 15.6798 15.9657 15.9638 16.3282C16.3882 16.8697 16.8642 17.4771 16.859 18.673C16.859 20.7101 15.4675 22.3154 12.6257 22.3154H11.4607C11.4578 22.3242 10.9783 22.9936 9.99278 22.9936C9.49857 23.0109 9.28382 22.9877 9.28382 22.9877C8.38979 22.9515 7.9393 22.3659 7.90086 22.3159L7.89824 22.3126H6.73326C3.89149 22.3126 2.5 20.7072 2.5 18.6701C2.5 17.4736 2.97721 16.8665 3.40209 16.326C3.68726 15.9633 3.94884 15.6305 4.02682 15.1697C4.03855 15.1059 4.05623 15.0422 4.07682 14.9784C4.068 14.9669 2.11757 12.2835 3.92382 10.6261C5.73011 8.96855 7.83937 11.1303 7.85115 11.1418C8.18358 11.0404 8.51896 10.9767 8.85139 10.9477C8.85139 10.9477 9.81627 10.8347 10.5047 10.9477H10.5076C10.843 10.9767 11.1813 11.0404 11.5166 11.1447L11.5175 11.1438C11.5674 11.0934 13.6544 8.98679 15.444 10.629C17.2532 12.2864 15.2998 14.9669 15.291 14.9813C15.3026 15.0113 15.312 15.042 15.32 15.0734Z" fill="white"/>
</svg>
