<svg width="32" height="32" viewBox="0 0 32 32" fill="none" xmlns="http://www.w3.org/2000/svg">
<rect width="32" height="32" rx="16" fill="#ED440B"/>
<path d="M16.7797 12.8312V18.1687C16.7797 18.3547 16.9271 18.4969 17.1199 18.4969H22.6541C22.8469 18.4969 23 18.3547 23 18.1687V12.8312C23 12.6453 22.8469 12.4977 22.6541 12.4977H17.1199C16.9271 12.4977 16.7797 12.6453 16.7797 12.8312ZM16.7797 20.3344V25.6664C16.7797 25.8523 16.9271 26 17.1199 26H22.6541C22.8469 26 23 25.8523 23 25.6664V20.3344C23 20.1484 22.8469 20.0008 22.6541 20.0008H17.1199C16.9271 20.0008 16.7797 20.1484 16.7797 20.3344ZM9 12.8312V18.1687C9 18.3547 9.1531 18.5023 9.34589 18.5023H14.8744C15.0672 18.5023 15.2203 18.3547 15.2203 18.1687V12.8312C15.2203 12.6453 15.0672 12.5031 14.8744 12.5031H9.34589C9.1531 12.5031 9 12.6453 9 12.8312ZM9 20.3344V25.6664C9 25.8523 9.1531 26 9.34589 26H14.8801C15.0729 26 15.226 25.8523 15.226 25.6664V20.3344C15.226 20.1484 15.0729 20.0008 14.8801 20.0008H9.34589C9.1531 20.0008 9 20.1484 9 20.3344ZM14.8744 5H9.34589C9.1531 5 9 5.14766 9 5.33359V10.6656C9 10.8516 9.1531 10.9992 9.34589 10.9992H14.8744C15.0672 10.9992 15.2203 10.8516 15.2203 10.6656V5.33359C15.2203 5.14766 15.0672 5 14.8744 5Z" fill="white"/>
</svg>
