<svg width="32" height="32" viewBox="0 0 32 32" fill="none" xmlns="http://www.w3.org/2000/svg">
<path d="M16 32C24.8366 32 32 24.8366 32 16C32 7.16344 24.8366 0 16 0C7.16344 0 0 7.16344 0 16C0 24.8366 7.16344 32 16 32Z" fill="#17181D"/>
<path d="M8.7936 16L8.80514 20.2308L12.4 22.3461V24.8231L6.70129 21.4808V14.7628L8.7936 16ZM8.7936 11.7692V14.2346L6.70001 12.9961V10.5308L8.7936 9.2923L10.8974 10.5308L8.7936 11.7692ZM13.9013 10.5308L15.9949 9.2923L18.0987 10.5308L15.9949 11.7692L13.9013 10.5308Z" fill="#F1B90C"/>
<path d="M10.3064 19.3538V16.8769L12.4 18.1154V20.5808L10.3064 19.3538ZM13.9013 23.2333L15.9949 24.4718L18.0987 23.2333V25.6987L15.9949 26.9372L13.9013 25.6987V23.2333ZM21.1013 10.5308L23.1949 9.2923L25.2987 10.5308V12.9961L23.1949 14.2346V11.7692L21.1013 10.5308ZM23.1949 20.2308L23.2064 16L25.3 14.7615V21.4795L19.6013 24.8218V22.3449L23.1949 20.2308Z" fill="#F1B90C"/>
<path d="M21.6936 19.3538L19.6 20.5808V18.1154L21.6936 16.8769V19.3538Z" fill="#F1B90C"/>
<path d="M21.6936 12.6461L21.7051 15.1231L18.1 17.2384V21.4795L16.0064 22.7064L13.9128 21.4795V17.2384L10.3077 15.1231V12.6461L12.4103 11.4077L15.9936 13.5333L19.5987 11.4077L21.7026 12.6461H21.6936ZM10.3064 8.41665L15.9949 5.06281L21.6936 8.41665L19.6 9.65511L15.9949 7.52947L12.4 9.65511L10.3064 8.41665Z" fill="#F1B90C"/>
</svg>
