<svg width="32" height="32" viewBox="0 0 32 32" fill="none" xmlns="http://www.w3.org/2000/svg">
<rect width="32" height="32" rx="16" fill="black"/>
<path d="M7.14646 6.49654C6.97129 7.19971 6.79625 7.9029 6.62122 8.60608L6.41425 9.43744C6.30873 9.86127 6.20321 10.2851 6.09763 10.7089C6.89277 10.3187 7.599 10.2674 8.30116 10.2163C8.50556 10.2015 8.70964 10.1866 8.91545 10.1635C8.63641 11.2839 8.35765 12.4044 8.07872 13.5249C8.01217 13.7922 7.94561 14.0596 7.87902 14.3269C8.78876 14.2084 9.65031 14.2563 10.4797 14.407L9.45523 18.5215C10.2819 18.6554 11.0769 18.8911 11.8554 19.1668C12.0505 18.3822 12.2458 17.5977 12.4411 16.8133C12.5834 16.2417 12.7257 15.6701 12.8679 15.0987C12.0936 14.8072 11.3023 14.5557 10.4797 14.4065L11.5042 10.2914C12.3231 10.4569 13.1103 10.7237 13.8809 11.0306C14.2183 9.67434 14.5561 8.31814 14.8935 6.96243C14.1269 6.63981 13.3434 6.35721 12.5287 6.17638L11.5042 10.2914C10.6791 10.125 9.8218 10.0613 8.9159 10.1635C9.08843 9.47069 9.26084 8.77792 9.43326 8.08514C9.60625 7.39009 9.77923 6.69505 9.95233 6C8.97879 6 8.1691 6.00889 7.14646 6.49654Z" fill="#F57F19"/>
<path d="M5.04882 14.9213C4.87422 15.6222 4.69973 16.3232 4.52524 17.0241C4.42171 17.4401 4.31817 17.856 4.21461 18.2719C4.14309 18.5592 4.07155 18.8464 4 19.1337C4.80129 18.7179 5.51373 18.6412 6.22184 18.5649C6.42843 18.5427 6.63464 18.5205 6.84259 18.4899C6.94895 18.0629 7.05526 17.6358 7.16156 17.2087L7.35995 16.4116C7.53294 15.7165 7.70592 15.0215 7.87902 14.3264C7.75232 14.3372 7.62706 14.3465 7.50262 14.3556C6.7046 14.4145 5.94026 14.4708 5.04882 14.9213Z" fill="#F57F19"/>
<path d="M6.32485 20.5716C6.49755 19.8777 6.67025 19.1838 6.84306 18.4899C7.75693 18.3555 8.62261 18.3871 9.45569 18.522L8.4312 22.6371C7.59398 22.5185 6.72418 22.5027 5.80663 22.6534C5.97944 21.9595 6.15215 21.2656 6.32485 20.5716Z" fill="#F57F19"/>
<path fill-rule="evenodd" clip-rule="evenodd" d="M24.3645 16.6991C25.5804 15.8181 26.4935 14.4033 26.8555 12.9475C27.4173 10.6906 26.3368 9.76673 23.6811 9.48018L24.1708 7.51282C23.5989 7.4812 23.0325 7.41302 22.4698 7.31717L21.9809 9.28107C21.4544 9.19659 20.9316 9.0874 20.4102 8.96043C20.5745 8.30085 20.7389 7.64128 20.9027 6.98121C20.3395 6.83793 19.7786 6.67341 19.2173 6.49555L19.1264 6.86017C18.991 7.40377 18.8557 7.94759 18.7206 8.49107C18.1955 8.33 17.67 8.15757 17.143 7.98021C16.8094 9.32109 16.4757 10.662 16.142 12.0024C15.922 11.907 15.7019 11.8098 15.4813 11.7124C14.9526 11.479 14.421 11.2443 13.8814 11.0296C13.6872 11.8101 13.4929 12.5906 13.2986 13.371C13.1553 13.9466 13.012 14.5222 12.8688 15.0977C13.4087 15.3011 13.9409 15.524 14.4701 15.7458C14.6941 15.8396 14.9176 15.9332 15.1409 16.025C14.8072 17.3659 14.4735 18.7068 14.1398 20.0472C13.9121 19.9587 13.6843 19.8683 13.456 19.7778C12.9273 19.5681 12.3958 19.3573 11.8563 19.1658C11.6605 19.9527 11.4646 20.7396 11.2687 21.5264C11.127 22.0956 10.9853 22.6648 10.8437 23.2339C11.391 23.4161 11.9303 23.6182 12.4668 23.8192C12.6911 23.9033 12.915 23.9872 13.1387 24.0694C13.6762 24.2047 14.2119 24.3357 14.7475 24.4552C14.5818 25.1202 14.4161 25.7857 14.2509 26.4507C14.826 26.5733 15.4007 26.6825 15.9776 26.7709L15.9845 26.7433C16.1466 26.0929 16.3086 25.4425 16.4702 24.7917C17.0017 24.8781 17.535 24.9468 18.0711 24.9913L17.5823 26.9552C18.1584 26.9972 18.7381 27.0115 19.3233 26.9903C19.4019 26.6749 19.4804 26.3596 19.5588 26.0442C19.6422 25.7093 19.7255 25.3743 19.8089 25.0392C22.8764 24.8638 25.0778 22.3347 25.7057 19.8125C26.1693 17.9511 25.5888 17.0485 24.3645 16.6991ZM21.1818 12.4915C20.6553 12.4154 20.1321 12.3151 19.6102 12.1965V12.198L18.8501 15.2513C19.3738 15.362 19.8989 15.4549 20.4277 15.5231C20.664 15.5537 20.9004 15.5794 21.1382 15.5996C21.1609 15.6016 21.1834 15.6032 21.2057 15.6045C21.228 15.6058 21.2502 15.6068 21.2722 15.6075C21.2832 15.608 21.2943 15.6085 21.3053 15.6085H21.3057C21.3464 15.609 21.3867 15.6095 21.4265 15.6085H21.4347C21.4788 15.6075 21.5215 15.6051 21.5637 15.6016C21.5674 15.6014 21.571 15.601 21.5747 15.6006C21.5784 15.6003 21.5821 15.5999 21.5857 15.5996C21.6261 15.5962 21.666 15.5917 21.7051 15.5858C21.7069 15.5853 21.7083 15.5853 21.7097 15.5853C21.7523 15.5789 21.7941 15.5715 21.8354 15.5626C21.8382 15.5616 21.8405 15.5611 21.8432 15.5606C21.9685 15.5334 22.086 15.4954 22.1962 15.447C22.7121 15.2187 23.0577 14.7686 23.2152 14.1357C23.3699 13.5147 23.2409 13.0938 22.8429 12.8482C22.758 12.7953 22.6612 12.7509 22.5519 12.7128C22.5506 12.7123 22.5493 12.7119 22.5481 12.7115C22.547 12.7111 22.546 12.7108 22.545 12.7104C22.5187 12.7014 22.4921 12.6929 22.4648 12.6848C22.4545 12.6818 22.4441 12.6788 22.4335 12.6758C22.4321 12.6753 22.4307 12.6748 22.4294 12.6748C22.3945 12.6649 22.3578 12.656 22.3206 12.6476C22.3137 12.6457 22.3069 12.6442 22.3 12.6427L22.2999 12.6427C22.2605 12.6343 22.2205 12.6259 22.1787 12.6185C22.176 12.618 22.1737 12.617 22.1709 12.617C22.1328 12.6101 22.0938 12.6041 22.0539 12.5987L22.0218 12.5943C21.9786 12.5883 21.935 12.5829 21.8896 12.5784C21.6527 12.5547 21.4168 12.5256 21.1818 12.4915ZM20.4965 21.8392C20.5341 21.8347 20.5718 21.8293 20.6085 21.8234L20.609 21.8229C21.4797 21.6741 22.0567 21.1055 22.2788 20.2122C22.5033 19.3115 22.1783 18.8698 21.3773 18.7364C21.3434 18.7305 21.3085 18.7256 21.2731 18.7206C21.2678 18.7199 21.2623 18.7192 21.2567 18.7185C21.2518 18.718 21.2469 18.7174 21.2419 18.7167C21.2158 18.7137 21.1896 18.7103 21.1625 18.7078C21.1567 18.7073 21.1508 18.7067 21.1449 18.7062C21.1383 18.7055 21.1317 18.7049 21.1249 18.7043C21.0978 18.7019 21.0703 18.6999 21.0427 18.6979C21.0367 18.6974 21.0308 18.697 21.0248 18.6967C21.0189 18.6963 21.0129 18.6959 21.0069 18.6954C20.9898 18.6944 20.9725 18.6934 20.9551 18.6925C20.9323 18.6913 20.9092 18.6904 20.8857 18.6895C20.4759 18.6747 20.0683 18.6426 19.663 18.5961C19.1324 18.5354 18.605 18.4509 18.0794 18.3481C17.9307 18.945 17.7821 19.5421 17.6334 20.1392C17.5156 20.6126 17.3978 21.0861 17.2798 21.5595C17.8077 21.6539 18.3369 21.7305 18.8694 21.7828C19.276 21.8229 19.685 21.849 20.0967 21.8579C20.138 21.8589 20.1789 21.8589 20.2193 21.8579C20.2255 21.8579 20.2316 21.8577 20.2376 21.8574C20.2437 21.8572 20.2498 21.8569 20.256 21.8569C20.2844 21.856 20.3129 21.855 20.3409 21.853C20.3538 21.8525 20.3671 21.8515 20.3799 21.8505C20.4079 21.8481 20.4359 21.8456 20.4635 21.8426C20.4745 21.8416 20.4855 21.8406 20.4965 21.8392Z" fill="#F57F19"/>
</svg>
