<svg width="200" height="200" viewBox="0 0 200 200" fill="none" xmlns="http://www.w3.org/2000/svg">
<rect width="200" height="200" rx="100" fill="url(#paint0_linear_1401_15)"/>
<path d="M99.739 59.5631C81.6569 77.1126 63.8302 94.4053 45 112.743C45 103.721 45 96.1474 45 88.5738C45.1732 87.3911 45.7544 86.3071 46.6422 85.5114C64.3229 68.3837 81.9306 51.4578 99.8849 34C105.87 39.6664 111.873 45.2045 117.73 50.8709C129.079 61.8737 140.301 73.0599 151.723 84.0077C152.848 84.997 153.727 86.2367 154.291 87.6279C154.855 89.0192 155.088 90.5237 154.971 92.0214C154.752 98.5313 154.971 105.06 154.971 113L99.739 59.5631Z" fill="white"/>
<path d="M58 125.427L100.029 85L111.93 97.5903L85.5391 125.318C90.1684 130.194 95.0347 135.343 101.049 141.693C109.925 131.431 118.509 121.461 127.112 111.491L129.773 112.564L141 126.701L100.302 166L58 125.427Z" fill="white"/>
<defs>
<linearGradient id="paint0_linear_1401_15" x1="13" y1="5" x2="191.5" y2="200" gradientUnits="userSpaceOnUse">
<stop stop-color="#2C4EBA"/>
<stop offset="1" stop-color="#13D67A"/>
</linearGradient>
</defs>
</svg>
