<svg width="32" height="32" viewBox="0 0 32 32" fill="none" xmlns="http://www.w3.org/2000/svg">
<rect width="32" height="32" rx="16" fill="#FF1256"/>
<path d="M11.6353 10.6419L15.7165 8.16105C16.0757 7.96133 16.0757 7.54745 15.8167 7.29479L12.4075 4.04873C12.3415 3.98376 12.2316 3.98376 12.1656 4.04873L11.843 4.36876C11.43 4.77783 11.4324 5.43714 11.8479 5.8438L13.1798 7.05417C13.4071 7.27554 13.3631 7.64611 13.0918 7.81214L11.5009 8.77224C11.0048 9.07303 10.8508 9.7155 11.1587 10.204L11.3982 10.5866C11.4471 10.666 11.5546 10.69 11.6353 10.6419Z" fill="white"/>
<path d="M14.9417 21.9038C15.2333 20.6671 14.8885 19.3679 14.0158 18.4274L11.7702 15.9332C10.5207 14.5443 10.8294 12.3922 12.4215 11.3954L16.0954 9.09516C16.3317 8.9471 16.6424 8.97421 16.8489 9.15981C18.192 10.3735 22.8685 14.7487 22.6599 19.2678C22.6599 19.2678 22.6662 26.2852 15.6122 28.9108C14.5756 29.2966 13.5262 28.3685 13.7987 27.3154C14.7736 23.5325 14.9438 21.9017 14.9438 21.9017L14.9417 21.9038ZM15.8613 11.0992C15.2993 11.4475 14.2116 12.1232 13.2836 12.7008C12.662 13.0866 12.5365 13.9229 13.0175 14.4693L15.3653 17.1282C16.7105 18.5775 17.2448 20.5795 16.7936 22.4898L16.3998 24.181C16.2295 24.9151 17.1128 25.4281 17.6961 24.936C20.1694 22.8443 23.6369 17.8164 16.404 11.1514C16.2572 11.0158 16.0337 10.995 15.8613 11.1013V11.0992Z" fill="white"/>
</svg>
