<svg width="200" height="200" viewBox="0 0 200 200" fill="none" xmlns="http://www.w3.org/2000/svg">
<rect width="200" height="200" rx="100" fill="black"/>
<path d="M101.479 48.8542C102.729 48.8542 103.979 49.1667 105.125 49.7917L143.146 71.7708C145.333 73.0208 146.792 75.4167 146.792 78.0208V121.979C146.792 124.583 145.437 126.979 143.146 128.229L105.021 150.208C103.979 150.833 102.729 151.146 101.375 151.146C100.125 151.146 98.875 150.833 97.7291 150.208L59.8125 128.229C57.625 126.979 56.1666 124.583 56.1666 121.979V78.0208C56.1666 75.4167 57.5208 73.0208 59.8125 71.7708L97.9375 49.7917C98.9791 49.1667 100.229 48.8542 101.479 48.8542ZM101.479 37.5C98.25 37.5 95.125 38.3333 92.2083 40L54.1875 61.9792C48.4583 65.3125 44.9166 71.3542 44.9166 78.0208V121.979C44.9166 128.646 48.4583 134.687 54.1875 138.021L92.3125 160C95.2291 161.667 98.3541 162.5 101.583 162.5C104.812 162.5 107.937 161.667 110.854 160L148.979 138.021C154.708 134.687 158.25 128.646 158.25 121.979V78.0208C158.25 71.3542 154.708 65.3125 148.979 61.9792L110.75 40C107.937 38.3333 104.708 37.5 101.479 37.5Z" fill="#FB8206"/>
</svg>
