<svg width="32" height="32" viewBox="0 0 32 32" fill="none" xmlns="http://www.w3.org/2000/svg">
<rect width="32" height="32" rx="16" fill="#FF931E"/>
<path d="M20.2105 2.06562L21.1159 2.36609C21.7859 2.58941 22.1513 3.31216 21.928 3.98213C21.7047 4.65209 20.9819 5.01753 20.312 4.7942L19.4065 4.49373C18.7365 4.27041 18.3711 3.54766 18.5944 2.8777C18.8177 2.20773 19.5405 1.8423 20.2105 2.06562Z" fill="white"/>
<path d="M20.0764 5.52112L19.1709 5.22065C18.5009 4.99732 17.7782 5.36276 17.5549 6.03273C17.3316 6.70269 17.697 7.42544 18.367 7.64876L19.2724 7.94923C19.9424 8.17255 20.6651 7.80712 20.8885 7.13715C21.1118 6.46719 20.7463 5.74444 20.0764 5.52112Z" fill="white"/>
<path d="M19.6012 9.02924L17.4573 8.31867C16.7873 8.09535 16.0646 8.46078 15.8413 9.13075C15.6179 9.80071 15.9834 10.5235 16.6533 10.7468L18.7972 11.4574C19.4672 11.6807 20.1899 11.3152 20.4133 10.6453C20.6366 9.97531 20.2711 9.25256 19.6012 9.02924Z" fill="white"/>
<path d="M18.8218 12.4359L16.0567 11.5223C15.3867 11.299 14.6639 11.6644 14.4406 12.3344C14.2173 13.0043 14.5827 13.7271 15.2527 13.9504L18.0178 14.864C18.6878 15.0873 19.4105 14.7219 19.6339 14.0519C19.8572 13.3819 19.4918 12.6592 18.8218 12.4359Z" fill="white"/>
<path d="M14.9605 14.8234L17.7256 15.737C18.3956 15.9603 18.761 16.6831 18.5377 17.3531C18.3144 18.023 17.5916 18.3885 16.9216 18.1651L14.1565 17.2515C13.4865 17.0282 13.1211 16.3055 13.3444 15.6355C13.5677 14.9655 14.2905 14.6001 14.9605 14.8234Z" fill="white"/>
<path d="M20.2918 12.9069L21.5059 13.3089L21.5099 13.3129C22.1799 13.5322 22.5453 14.259 22.322 14.929C22.1027 15.5989 21.3759 15.9644 20.706 15.7411L19.4919 15.3391C19.4472 15.3228 19.4026 15.3066 19.3579 15.2863C19.9832 15.4162 20.3162 14.9574 20.5232 14.3321C20.7303 13.7068 20.7384 13.1383 20.1537 12.8704C20.1984 12.8785 20.2471 12.8907 20.2918 12.9069Z" fill="white"/>
<path d="M19.3943 16.4476L20.6084 16.8495L20.6125 16.8536C21.2824 17.0729 21.6479 17.7997 21.4245 18.4696C21.3923 18.568 21.3492 18.6599 21.2969 18.7442C22.3218 19.3512 21.8711 20.5851 21.8711 20.5851C21.8711 20.5851 19.5851 18.5833 18.8258 22.6965C18.2691 25.7191 16.3644 26.4939 15.7358 26.6696C13.9254 26.6952 13.0069 26.2496 12.9382 26.2149L12.9341 26.2087V26.2128L12.9382 26.2149C13.5018 27.0494 14.5658 27.3486 15.5603 27.4265C15.4853 28.6462 14.7372 29.9905 12.1018 29.2987C9.00808 28.4867 10.3005 26.2796 10.3655 26.1722H10.3639C6.71185 21.4207 7.57276 20.1056 8.64927 18.4612C8.95635 17.9921 9.28098 17.4962 9.5234 16.8861C10.1649 15.2741 9.34068 12.0501 9.06457 12.0258C14.9765 12.8744 13.5351 22.0752 13.5351 22.0752C14.2026 20.9156 17.1512 18.9638 19.2972 18.5275C19.4354 18.3563 19.5411 18.1285 19.6258 17.8728C19.8329 17.2475 19.841 16.679 19.2563 16.411C19.301 16.4191 19.3497 16.4313 19.3943 16.4476Z" fill="white"/>
<path d="M21.116 9.5125L22.3301 9.91447L22.3341 9.91854C23.0041 10.1378 23.3695 10.8646 23.1462 11.5346C22.927 12.2045 22.2001 12.57 21.5302 12.3467L20.3161 11.9447C20.2715 11.9284 20.2268 11.9122 20.1821 11.8919C20.8074 12.0218 21.1404 11.563 21.3475 10.9377C21.5545 10.3124 21.5627 9.74394 20.978 9.47595C21.0226 9.48407 21.0714 9.49625 21.116 9.5125Z" fill="white"/>
<path d="M21.4366 5.95549L22.6506 6.35747L22.6547 6.36153C23.3247 6.58079 23.6901 7.3076 23.4668 7.97757C23.2475 8.64753 22.5207 9.01297 21.8507 8.78965L20.6367 8.38767C20.592 8.37143 20.5473 8.35518 20.5027 8.33488C21.128 8.46481 21.4609 8.00599 21.668 7.38069C21.8751 6.75539 21.8832 6.18693 21.2985 5.91895C21.3432 5.92707 21.3919 5.93925 21.4366 5.95549Z" fill="white"/>
<path d="M17.0758 7.2102L15.8617 6.80822L15.8577 6.80416C15.1877 6.5849 14.8223 5.85809 15.0456 5.18812C15.2649 4.51816 15.9917 4.15272 16.6616 4.37604L17.8757 4.77802C17.9204 4.79426 17.965 4.8105 18.0097 4.83081C17.3844 4.70087 17.0514 5.1597 16.8444 5.785C16.6373 6.4103 16.6292 6.97876 17.2139 7.24674C17.1692 7.23862 17.1205 7.22644 17.0758 7.2102Z" fill="white"/>
<path d="M15.3094 10.296L14.0954 9.89403L14.0913 9.88998C13.4214 9.67071 13.0559 8.9439 13.2792 8.27394C13.4985 7.60397 14.2253 7.23854 14.8953 7.46186L16.1093 7.86384C16.154 7.88008 16.1987 7.89632 16.2433 7.91662C15.618 7.78669 15.2851 8.24551 15.078 8.87082C14.8709 9.49612 14.8628 10.0646 15.4475 10.3326C15.4028 10.3244 15.3541 10.3123 15.3094 10.296Z" fill="white"/>
<path d="M13.7989 13.4633L12.5849 13.0613L12.5808 13.0572C11.9109 12.838 11.5454 12.1111 11.7687 11.4412C11.988 10.7712 12.7148 10.4058 13.3848 10.6291L14.5988 11.0311C14.6435 11.0473 14.6882 11.0636 14.7328 11.0839C14.1075 10.9539 13.7746 11.4128 13.5675 12.0381C13.3604 12.6634 13.3523 13.2318 13.937 13.4998C13.8923 13.4917 13.8436 13.4795 13.7989 13.4633Z" fill="white"/>
<path d="M15.7807 18.8188L14.7331 18.4736L14.6113 19.6593L15.7807 18.8188Z" fill="white"/>
</svg>
