<svg width="32" height="32" viewBox="0 0 32 32" fill="none" xmlns="http://www.w3.org/2000/svg">
<g clip-path="url(#clip0_816_212)">
<circle cx="16" cy="16" r="16" fill="#01131F"/>
<path d="M16.0885 -3L32.543 6.5V25.5L16.0885 35L-0.365967 25.5V6.5L16.0885 -3Z" fill="white"/>
<path d="M-0.26709 6.49847V25.4985L16.1858 35L32.6416 25.4985V6.49847L16.1858 -3L-0.26709 6.49847Z" fill="url(#paint0_linear_816_212)"/>
<path d="M24.0871 11.0218L8.18701 20.6516V30.3791L16.1859 35V25.413L32.6418 16V6.49847L24.0871 1.55988V11.0218Z" fill="#002D74"/>
<path d="M8.28765 20.9753L24.1876 11.3484V1.6179L16.1857 -3V6.58704L-0.26709 16V25.4985L8.28765 30.4401V20.9753Z" fill="#002D74"/>
<path d="M24.316 1.69121L16.1858 -3V6.58704L24.316 11.3088" fill="url(#paint1_linear_816_212)"/>
<path d="M16.1858 25.4129L8.05861 20.7431L8.04028 30.2965L16.1858 35" fill="url(#paint2_linear_816_212)"/>
<path d="M24.316 20.7431L16.192 25.4588L8.06177 20.7431V11.3088L16.192 6.58398L24.316 11.3088L20.929 13.2727L16.192 10.5209L11.4489 13.2727V18.7793L16.192 21.5311L20.929 18.7793L24.316 20.7431Z" fill="white"/>
</g>
<defs>
<linearGradient id="paint0_linear_816_212" x1="-0.26709" y1="16" x2="32.6416" y2="16" gradientUnits="userSpaceOnUse">
<stop stop-color="#14DCFF"/>
<stop offset="0.02" stop-color="#11C9F0"/>
<stop offset="0.07" stop-color="#0DA0CF"/>
<stop offset="0.13" stop-color="#097CB3"/>
<stop offset="0.19" stop-color="#055F9C"/>
<stop offset="0.25" stop-color="#03498A"/>
<stop offset="0.32" stop-color="#01397D"/>
<stop offset="0.4" stop-color="#002F76"/>
<stop offset="0.5" stop-color="#002D74"/>
<stop offset="0.56" stop-color="#003479"/>
<stop offset="0.64" stop-color="#034889"/>
<stop offset="0.74" stop-color="#0668A3"/>
<stop offset="0.85" stop-color="#0C96C7"/>
<stop offset="0.97" stop-color="#12D0F5"/>
<stop offset="0.99" stop-color="#14DCFF"/>
</linearGradient>
<linearGradient id="paint1_linear_816_212" x1="18.8093" y1="9.17093" x2="23.1829" y2="-6.04501" gradientUnits="userSpaceOnUse">
<stop stop-color="#E344FF"/>
<stop offset="0.04" stop-color="#CD41F1"/>
<stop offset="0.13" stop-color="#9D3CD4"/>
<stop offset="0.23" stop-color="#7338BA"/>
<stop offset="0.33" stop-color="#4F35A4"/>
<stop offset="0.44" stop-color="#323293"/>
<stop offset="0.55" stop-color="#1C2F85"/>
<stop offset="0.67" stop-color="#0C2E7B"/>
<stop offset="0.81" stop-color="#022D75"/>
<stop offset="1" stop-color="#002D74"/>
</linearGradient>
<linearGradient id="paint2_linear_816_212" x1="9.50624" y1="32.1505" x2="14.7045" y2="23.6507" gradientUnits="userSpaceOnUse">
<stop stop-color="#002D74"/>
<stop offset="0.2" stop-color="#002F73"/>
<stop offset="0.34" stop-color="#033973"/>
<stop offset="0.46" stop-color="#084973"/>
<stop offset="0.58" stop-color="#0E5F73"/>
<stop offset="0.69" stop-color="#177C72"/>
<stop offset="0.8" stop-color="#22A071"/>
<stop offset="0.9" stop-color="#2ECA70"/>
<stop offset="0.99" stop-color="#3CFA70"/>
<stop offset="1" stop-color="#3EFF70"/>
</linearGradient>
<clipPath id="clip0_816_212">
<rect width="32" height="32" rx="16" fill="white"/>
</clipPath>
</defs>
</svg>
