<svg width="34" height="34" viewBox="0 0 34 34" fill="none" xmlns="http://www.w3.org/2000/svg">
<path d="M29.16 17.08C29.16 10.4084 23.7516 5 17.08 5C10.4084 5 5 10.4084 5 17.08C5 23.7516 10.4084 29.16 17.08 29.16C23.7516 29.16 29.16 23.7516 29.16 17.08Z" fill="#D9D9D9" stroke="#B7F7B0" stroke-width="8.16"/>
<path d="M27.1272 17.0804C27.1272 11.5318 22.6291 7.03369 17.0804 7.03369C11.5318 7.03369 7.03369 11.5318 7.03369 17.0804C7.03369 22.6291 11.5318 27.1272 17.0804 27.1272C22.6291 27.1272 27.1272 22.6291 27.1272 17.0804Z" fill="#D9D9D9" stroke="#07DC10" stroke-width="5.44"/>
<path d="M25.0933 17.0799C25.0933 12.6542 21.5056 9.06641 17.0799 9.06641C12.6542 9.06641 9.06641 12.6542 9.06641 17.0799C9.06641 21.5056 12.6542 25.0933 17.0799 25.0933C21.5056 25.0933 25.0933 21.5056 25.0933 17.0799Z" fill="#D9D9D9" stroke="#0C9B00" stroke-width="2.72"/>
<path d="M23.0602 17.0801C23.0602 13.7773 20.3828 11.0999 17.0801 11.0999C13.7773 11.0999 11.0999 13.7773 11.0999 17.0801C11.0999 20.3828 13.7773 23.0602 17.0801 23.0602C20.3828 23.0602 23.0602 20.3828 23.0602 17.0801Z" fill="#EAEAEA"/>
</svg>
