<svg width="32" height="32" viewBox="0 0 32 32" fill="none" xmlns="http://www.w3.org/2000/svg">
<rect width="32" height="32" rx="16" fill="url(#paint0_linear_763_157)"/>
<g filter="url(#filter0_d_763_157)">
<g filter="url(#filter1_bdi_763_157)">
<path fill-rule="evenodd" clip-rule="evenodd" d="M24.6118 19.664C24.6118 22.8982 21.9506 25.52 18.6679 25.52H7.96772C7.67664 25.52 7.44067 25.284 7.44067 24.993V22.143C7.44067 21.852 7.67664 21.616 7.96772 21.616H18.6679C19.7622 21.616 20.6492 20.7421 20.6492 19.664C20.6492 18.5859 19.7622 17.712 18.6679 17.712H15.2324C14.9413 17.712 14.7054 17.476 14.7054 17.185V14.335C14.7054 14.044 14.9413 13.808 15.2324 13.808H18.6679C19.7622 13.808 20.6492 12.9341 20.6492 11.856C20.6492 10.7779 19.7622 9.904 18.6679 9.904H7.96772C7.67664 9.904 7.44067 9.66803 7.44067 9.37695V6.52705C7.44067 6.23597 7.67664 6 7.96772 6H18.6679C21.9506 6 24.6118 8.62182 24.6118 11.856C24.6118 13.1848 24.1625 14.4103 23.4055 15.393C23.2398 15.6081 23.2398 15.9119 23.4055 16.127C24.1625 17.1097 24.6118 18.3352 24.6118 19.664Z" fill="white" fill-opacity="0.83" shape-rendering="crispEdges"/>
<path d="M18.6679 25.5697C21.9774 25.5697 24.6614 22.9263 24.6614 19.664C24.6614 18.3238 24.2083 17.0878 23.4449 16.0967C23.2929 15.8995 23.2929 15.6205 23.4449 15.4233C24.2083 14.4322 24.6614 13.1962 24.6614 11.856C24.6614 8.59369 21.9774 5.95032 18.6679 5.95032H7.96772C7.64921 5.95032 7.391 6.20853 7.391 6.52705V9.37695C7.391 9.69547 7.64921 9.95368 7.96772 9.95368H18.6679C19.7354 9.95368 20.5995 10.8061 20.5995 11.856C20.5995 12.9059 19.7354 13.7583 18.6679 13.7583H15.2324C14.9139 13.7583 14.6557 14.0165 14.6557 14.335V17.185C14.6557 17.5035 14.9139 17.7617 15.2324 17.7617H18.6679C19.7354 17.7617 20.5995 18.6141 20.5995 19.664C20.5995 20.7139 19.7354 21.5663 18.6679 21.5663H7.96772C7.64921 21.5663 7.391 21.8245 7.391 22.143V24.993C7.391 25.3115 7.64921 25.5697 7.96772 25.5697H18.6679Z" stroke="white" stroke-width="0.09935" shape-rendering="crispEdges"/>
</g>
<g filter="url(#filter2_bdi_763_157)">
<path d="M7.44067 6.52705C7.44067 6.23597 7.67693 5.99856 7.96763 6.01357C13.1938 6.28343 17.3471 10.5439 17.3471 15.76C17.3471 20.9761 13.1938 25.2366 7.96763 25.5064C7.67693 25.5214 7.44067 25.284 7.44067 24.993V22.143C7.44067 21.852 7.67743 21.6184 7.96742 21.5933C11.0034 21.3307 13.3845 18.8193 13.3845 15.76C13.3845 12.7007 11.0034 10.1893 7.96742 9.92668C7.67743 9.90159 7.44067 9.66803 7.44067 9.37695V6.52705Z" fill="white" fill-opacity="0.83" shape-rendering="crispEdges"/>
<path d="M17.3968 15.76C17.3968 10.5166 13.222 6.23515 7.97019 5.96396C7.64941 5.9474 7.391 6.20924 7.391 6.52705V9.37695C7.391 9.69649 7.65023 9.9491 7.96314 9.97617C10.9743 10.2367 13.3348 12.7273 13.3348 15.76C13.3348 18.7927 10.9743 21.2833 7.96314 21.5438C7.65023 21.5709 7.391 21.8235 7.391 22.143V24.993C7.391 25.3108 7.64941 25.5726 7.97019 25.556C13.222 25.2849 17.3968 21.0034 17.3968 15.76Z" stroke="white" stroke-width="0.09935" shape-rendering="crispEdges"/>
</g>
</g>
<defs>
<filter id="filter0_d_763_157" x="4.70608" y="4.84654" width="22.6403" height="24.9892" filterUnits="userSpaceOnUse" color-interpolation-filters="sRGB">
<feFlood flood-opacity="0" result="BackgroundImageFix"/>
<feColorMatrix in="SourceAlpha" type="matrix" values="0 0 0 0 0 0 0 0 0 0 0 0 0 0 0 0 0 0 127 0" result="hardAlpha"/>
<feOffset dy="1.58114"/>
<feGaussianBlur stdDeviation="1.31762"/>
<feComposite in2="hardAlpha" operator="out"/>
<feColorMatrix type="matrix" values="0 0 0 0 0.841316 0 0 0 0 0.307188 0 0 0 0 0.234353 0 0 0 0.36 0"/>
<feBlend mode="normal" in2="BackgroundImageFix" result="effect1_dropShadow_763_157"/>
<feBlend mode="normal" in="SourceGraphic" in2="effect1_dropShadow_763_157" result="shape"/>
</filter>
<filter id="filter1_bdi_763_157" x="-3.38849" y="-4.82917" width="38.8295" height="41.1784" filterUnits="userSpaceOnUse" color-interpolation-filters="sRGB">
<feFlood flood-opacity="0" result="BackgroundImageFix"/>
<feGaussianBlur in="BackgroundImageFix" stdDeviation="5.3649"/>
<feComposite in2="SourceAlpha" operator="in" result="effect1_backgroundBlur_763_157"/>
<feColorMatrix in="SourceAlpha" type="matrix" values="0 0 0 0 0 0 0 0 0 0 0 0 0 0 0 0 0 0 127 0" result="hardAlpha"/>
<feOffset dx="1.60327" dy="-0.09935"/>
<feGaussianBlur stdDeviation="0.447075"/>
<feComposite in2="hardAlpha" operator="out"/>
<feColorMatrix type="matrix" values="0 0 0 0 0 0 0 0 0 0 0 0 0 0 0 0 0 0 0.05 0"/>
<feBlend mode="normal" in2="effect1_backgroundBlur_763_157" result="effect2_dropShadow_763_157"/>
<feBlend mode="normal" in="SourceGraphic" in2="effect2_dropShadow_763_157" result="shape"/>
<feColorMatrix in="SourceAlpha" type="matrix" values="0 0 0 0 0 0 0 0 0 0 0 0 0 0 0 0 0 0 127 0" result="hardAlpha"/>
<feOffset dy="0.09935"/>
<feComposite in2="hardAlpha" operator="arithmetic" k2="-1" k3="1"/>
<feColorMatrix type="matrix" values="0 0 0 0 1 0 0 0 0 1 0 0 0 0 1 0 0 0 0.1 0"/>
<feBlend mode="normal" in2="shape" result="effect3_innerShadow_763_157"/>
</filter>
<filter id="filter2_bdi_763_157" x="-3.38849" y="-4.81623" width="31.5648" height="41.1525" filterUnits="userSpaceOnUse" color-interpolation-filters="sRGB">
<feFlood flood-opacity="0" result="BackgroundImageFix"/>
<feGaussianBlur in="BackgroundImageFix" stdDeviation="5.3649"/>
<feComposite in2="SourceAlpha" operator="in" result="effect1_backgroundBlur_763_157"/>
<feColorMatrix in="SourceAlpha" type="matrix" values="0 0 0 0 0 0 0 0 0 0 0 0 0 0 0 0 0 0 127 0" result="hardAlpha"/>
<feOffset dx="1.58114" dy="-0.09935"/>
<feGaussianBlur stdDeviation="0.447075"/>
<feComposite in2="hardAlpha" operator="out"/>
<feColorMatrix type="matrix" values="0 0 0 0 0 0 0 0 0 0 0 0 0 0 0 0 0 0 0.07 0"/>
<feBlend mode="normal" in2="effect1_backgroundBlur_763_157" result="effect2_dropShadow_763_157"/>
<feBlend mode="normal" in="SourceGraphic" in2="effect2_dropShadow_763_157" result="shape"/>
<feColorMatrix in="SourceAlpha" type="matrix" values="0 0 0 0 0 0 0 0 0 0 0 0 0 0 0 0 0 0 127 0" result="hardAlpha"/>
<feOffset dy="0.09935"/>
<feComposite in2="hardAlpha" operator="arithmetic" k2="-1" k3="1"/>
<feColorMatrix type="matrix" values="0 0 0 0 1 0 0 0 0 1 0 0 0 0 1 0 0 0 0.1 0"/>
<feBlend mode="normal" in2="shape" result="effect3_innerShadow_763_157"/>
</filter>
<linearGradient id="paint0_linear_763_157" x1="2.76" y1="0.36" x2="32.72" y2="28.24" gradientUnits="userSpaceOnUse">
<stop stop-color="#2ABB7F"/>
<stop offset="1" stop-color="#FE6949"/>
</linearGradient>
</defs>
</svg>
