<svg width="200" height="200" viewBox="0 0 200 200" fill="none" xmlns="http://www.w3.org/2000/svg">
<path d="M100 0C44.7715 0 0 44.7715 0 100C0 155.229 44.7715 200 100 200C155.229 200 200 155.229 200 100C200 44.7715 155.229 0 100 0Z" fill="url(#paint0_linear_1313_63)"/>
<path d="M110.025 45.2387L110.026 45.2379C111.454 43.7244 113.427 41.6917 115.588 39.6467L115.588 39.6466C117.728 37.6209 120.143 35.4929 122.446 33.8423L122.447 33.8415C123.598 33.0178 124.816 32.2431 126.029 31.6582L110.025 45.2387ZM110.025 45.2387C109.837 45.4375 109.659 45.6279 109.49 45.8087C105.203 44.9944 100.337 44.5804 96.1798 44.5804C92.8663 44.5804 89.6112 44.8427 86.4344 45.3483M110.025 45.2387L86.4344 45.3483M71.7749 38.9471C72.1875 39.3879 72.5786 39.8055 72.9447 40.1903L71.7749 38.9471ZM71.7749 38.9471C69.3903 36.4004 66.2826 33.0815 63.0909 30.8745C61.2077 29.5726 59.0773 28.4958 56.8539 28.2911C54.4959 28.0741 52.2377 28.8601 50.3412 30.8734L71.7749 38.9471ZM86.4344 45.3483C82.0527 44.0176 78.8075 42.7249 74.7559 38.4669L74.7558 38.4669C74.3979 38.0908 74.0138 37.6807 73.5999 37.2385L73.5998 37.2384L73.5187 37.1518C71.1816 34.6556 67.9258 31.1783 64.5127 28.8182L64.5126 28.8181C62.4793 27.4124 59.9273 26.0634 57.083 25.8016L57.083 25.8016C53.941 25.5125 50.9328 26.5995 48.5215 29.1592L48.5214 29.1593C44.6805 33.2371 41.6056 40.8664 39.8509 50.0694C38.111 59.1934 37.542 70.5147 39.1226 83.0005C36.2221 90.1478 34.6265 97.9599 34.6265 106.134C34.6265 118.636 38.3588 130.281 44.7712 139.996C54.6213 160.846 75.8465 175.285 100.454 175.285C129.11 175.285 153.179 155.707 160.044 129.206C163.736 122.423 165.811 114.86 165.811 106.879C165.811 90.5773 157.19 76.1881 143.979 66.4079C140.764 60.0216 140.611 55.5513 140.439 50.2907L140.439 50.2901C140.405 49.27 140.369 48.2078 140.31 47.108L140.31 47.1079C140.253 46.0486 140.225 45.1214 140.198 44.1939L140.198 44.1901C140.176 43.5102 140.155 42.8284 140.123 42.1145C140.055 40.5849 139.931 38.8622 139.513 37.2837L139.513 37.2836C139.08 35.6468 138.227 33.7478 136.394 32.3443C134.578 30.9542 132.429 30.528 130.375 30.528C128.701 30.528 127.167 31.109 126.029 31.658L86.4344 45.3483Z" fill="white" stroke="black" stroke-width="5"/>
<mask id="mask0_1313_63" style="mask-type:alpha" maskUnits="userSpaceOnUse" x="37" y="28" width="127" height="145">
<path d="M111.844 46.9538C111.251 47.5821 110.751 48.1229 110.371 48.5394C105.966 47.578 100.648 47.0804 96.1798 47.0804C92.8035 47.0804 89.492 47.364 86.2679 47.909C81.4165 46.4588 77.595 45.0774 72.9447 40.1903C72.5786 39.8055 72.1875 39.3879 71.7749 38.9471C69.3902 36.4004 66.2826 33.0815 63.0909 30.8745C61.2077 29.5726 59.0773 28.4958 56.8539 28.2911C54.4959 28.0741 52.2377 28.8601 50.3412 30.8734C46.9934 34.4278 44.0326 41.4851 42.3066 50.5376C40.5871 59.555 40.0348 70.8481 41.6873 83.3387C38.7489 90.355 37.1265 98.0575 37.1265 106.134C37.1265 118.195 40.7449 129.419 46.9559 138.768C56.3751 158.863 76.7864 172.785 100.454 172.785C128.05 172.785 151.219 153.857 157.7 128.28C161.298 121.771 163.311 114.523 163.311 106.879C163.311 91.325 154.99 77.4825 142.024 68.0744C138.286 60.8978 138.12 55.8636 137.94 50.3726C137.906 49.3506 137.871 48.3126 137.814 47.2421C137.755 46.1494 137.726 45.195 137.699 44.268C137.677 43.5865 137.656 42.9197 137.625 42.2241C137.559 40.7151 137.44 39.2229 137.096 37.9228C136.745 36.5946 136.111 35.2768 134.874 34.3293C133.644 33.3874 132.102 33.028 130.375 33.028C129.251 33.028 128.117 33.426 127.115 33.9098C126.077 34.4101 124.988 35.0975 123.903 35.8743C121.734 37.4288 119.412 39.4686 117.306 41.4623C115.191 43.4644 113.252 45.461 111.844 46.9538Z" fill="white"/>
</mask>
<g mask="url(#mask0_1313_63)">
<path d="M100.625 158.052C67.625 157.552 46.875 140.344 40.625 131.802L18.75 141.802L81.875 195.552L165.625 162.427L158.75 131.802C156.875 131.385 152.375 130.802 149.375 131.802C145.375 147.302 127.708 147.427 119.375 145.552C120 149.719 117.125 158.052 100.625 158.052Z" fill="#F8ECE0"/>
<path d="M79.375 103.75C54.375 96.75 40.8333 117.5 40 128.125L37.5 126.25L26.25 79.375L47.5 12.5L163.75 24.375L174.375 86.25L155 68.75C154.375 70.8333 160.625 101.562 148.125 99.375C123.125 95 125 101.25 111.875 107.5C98.75 113.75 95 111.25 79.375 103.75Z" fill="url(#paint1_linear_1313_63)"/>
<path d="M86.4908 72.0048C84.9908 69.5048 90.8658 66.3798 93.9908 65.1298C100.241 63.8798 109.616 72.0048 100.866 74.5048C92.1158 77.0048 88.3658 75.1298 86.4908 72.0048Z" fill="white" fill-opacity="0.48"/>
<ellipse cx="128.125" cy="68.125" rx="6.875" ry="4.375" fill="white" fill-opacity="0.48"/>
</g>
<path d="M55.2905 69.0857C52.0304 58.4107 52.8647 45.3415 55.2906 37.7985C59.5382 52.0152 69.8267 60.383 69.8267 60.383C65.5359 61.3145 59.4057 64.9216 55.2905 69.0857Z" fill="black"/>
<path d="M122.035 106.846C125.26 99.965 144.214 98.7363 147.201 106.846C148.862 111.358 142.166 121.618 137.704 122.279C131.294 123.228 118.474 114.444 122.035 106.846Z" fill="black"/>
<path d="M118.959 145.43C117.889 144.477 119.229 143.255 120.531 143.85C123.123 145.031 126.078 145.701 129.216 145.701C137.281 145.701 144.144 141.279 146.695 135.102C146.926 134.544 147.759 134.6 147.759 135.205C147.759 143.276 140.239 149.82 130.961 149.82C126.259 149.82 122.008 148.139 118.959 145.43Z" fill="black"/>
<path fill-rule="evenodd" clip-rule="evenodd" d="M51.582 83.9913L169.473 70.0457L170.141 75.7045L164.484 76.3737L165.152 82.0325L159.494 82.7025L160.163 88.3613L154.503 89.03L154.505 89.0312L155.174 94.69L136.311 96.9213L135.642 91.2625L135.644 91.2613L129.982 91.9312L129.314 86.2725L123.655 86.9413L122.985 81.2825L111.667 82.6212L112.338 88.28L106.678 88.95L107.348 94.6087L101.689 95.2775H101.689L102.359 100.936L83.4964 103.167L82.8271 97.5088L77.1677 98.1787L76.4984 92.52L70.8399 93.1888L70.1705 87.53L52.2514 89.65L51.582 83.9913ZM153.835 83.3712L159.49 82.7025L158.82 77.0438L153.161 77.7137L153.831 83.3712L148.176 84.04V84.0413L148.846 89.6988L154.505 89.03L153.835 83.3712ZM106.008 83.2875L100.349 83.9563L101.018 89.615L106.677 88.9462L106.008 83.2875ZM95.3589 90.2837L101.018 89.615L101.687 95.2738L96.0283 95.9425L95.3589 90.2837Z" fill="black"/>
<path d="M151.968 110.887C156.645 117.052 151.521 128.22 142.642 128.055C140.706 128.019 138.729 128.741 137.402 130.15C130.391 137.599 115.615 138.532 111.04 128.232C110.579 127.194 109.842 126.269 108.825 125.761L105.195 123.946" stroke="black" stroke-width="5" stroke-linecap="round"/>
<path d="M127.512 136.478C138.94 141.068 145.67 132.236 145.081 128.926L137.147 129.834L127.512 136.478Z" fill="black"/>
<path d="M96.0252 95.9134L95.3965 90.2006L101.027 89.6266L101.738 95.2301L96.0252 95.9134Z" fill="white"/>
<path d="M148.786 89.7086L148.157 83.9958L153.788 83.4217L154.498 89.0253L148.786 89.7086Z" fill="white"/>
<path d="M101 89.7633L100.344 83.9411L105.975 83.2304L106.684 88.914L101 89.7633Z" fill="white"/>
<path d="M153.793 83.5865L153.137 77.7643L158.768 77.0536L159.477 82.7372L153.793 83.5865Z" fill="white"/>
<defs>
<linearGradient id="paint0_linear_1313_63" x1="100" y1="0" x2="100" y2="200" gradientUnits="userSpaceOnUse">
<stop stop-color="#AB3AFE"/>
<stop offset="1" stop-color="#7B71F4"/>
</linearGradient>
<linearGradient id="paint1_linear_1313_63" x1="100.312" y1="12.5" x2="100.312" y2="126.25" gradientUnits="userSpaceOnUse">
<stop stop-color="#FBF672"/>
<stop offset="1" stop-color="#FFAB24"/>
</linearGradient>
</defs>
</svg>
