<svg width="32" height="32" viewBox="0 0 32 32" fill="none" xmlns="http://www.w3.org/2000/svg">
<rect width="32" height="32" rx="16" fill="#0D0C00"/>
<path d="M24.7919 22.3351L24.7898 22.3387C23.8544 24.024 22.5394 25.2762 20.8354 26.1069C19.1206 26.9433 17.081 27.3699 14.7037 27.3699H10.413C9.86015 27.3699 9.47475 27.3699 9.17523 27.3453C8.88077 27.3215 8.71188 27.2768 8.58342 27.2111C8.30901 27.0713 8.08592 26.8482 7.94613 26.5738C7.88118 26.4461 7.83571 26.2765 7.81189 25.982C7.78735 25.6825 7.78735 25.2964 7.78735 24.7442V8.11208C7.78735 7.55924 7.78735 7.17383 7.81189 6.87432C7.83571 6.57985 7.88046 6.41097 7.94613 6.2825C8.08615 6.00825 8.30916 5.78451 8.58342 5.64522C8.71188 5.58026 8.88077 5.5348 9.17523 5.51098C9.47475 5.48644 9.86087 5.48572 10.413 5.48572H15.2161C17.6187 5.48572 19.6229 5.9036 21.2483 6.71554L21.2526 6.7177C22.8743 7.50727 24.102 8.66492 24.9493 10.1964C25.7973 11.7294 26.2347 13.6391 26.2347 15.9486C26.2347 18.5352 25.7446 20.6557 24.7919 22.3351Z" stroke="#FFDA00" stroke-width="0.972886"/>
<mask id="mask0_984_350" style="mask-type:alpha" maskUnits="userSpaceOnUse" x="7" y="5" width="20" height="23">
<path d="M26.721 15.9479C26.721 18.5942 26.2189 20.8031 25.2147 22.5747C24.2317 24.3463 22.8431 25.6695 21.0489 26.5442C19.2547 27.419 17.1396 27.8566 14.7035 27.8571H10.4129C9.32306 27.8571 8.77888 27.8571 8.36316 27.6449C7.99723 27.4582 7.69967 27.1606 7.51297 26.7947C7.30078 26.3782 7.30078 25.8341 7.30078 24.7443V8.11208C7.30078 7.02228 7.30078 6.47809 7.51297 6.06238C7.69917 5.69574 7.99653 5.39839 8.36244 5.21147C8.77888 5 9.32378 5 10.4129 5H15.2159C17.6727 5 19.7558 5.42678 21.4654 6.28034C23.1744 7.11273 24.4776 8.33967 25.375 9.96114C26.2723 11.5836 26.721 13.5792 26.721 15.9479Z" fill="#F9D63C"/>
</mask>
<g mask="url(#mask0_984_350)">
<path d="M15.4641 19.3335C18.3587 19.3335 20.7052 17.1921 20.7052 14.5506C20.7052 11.9091 18.3587 9.7677 15.4641 9.7677C12.5695 9.7677 10.2229 11.9091 10.2229 14.5506C10.2229 17.1921 12.5695 19.3335 15.4641 19.3335Z" fill="#FFDA00"/>
<path d="M22.4106 23.9172C22.4106 27.668 18.6309 29.4557 13.9693 29.4557C6.98157 29.4557 5.44212 27.0278 5.69834 23.9172C5.96465 20.6961 9.30697 18.3787 13.9693 18.3787C18.6317 18.3787 22.4106 20.3649 22.4106 23.9172Z" fill="#FFDA00"/>
<path d="M21.8211 16.0965C20.592 15.5335 19.705 14.2431 19.4156 13.6678C19.5289 16.6276 16.5431 16.5547 17.2706 17.1993C17.9981 17.8438 20.3899 18.4623 22.5327 17.9571C24.6755 17.4504 23.3569 16.8009 21.8211 16.0965Z" fill="#F97429"/>
<path fill-rule="evenodd" clip-rule="evenodd" d="M14.4263 12.6698C14.3498 12.2743 14.7222 11.9719 15.1084 12.0866L19.0764 13.258C19.368 13.3446 19.5448 13.639 19.4827 13.9364L19.2244 15.1756C19.1995 15.3023 19.1314 15.4165 19.0315 15.4984C18.9317 15.5803 18.8064 15.6249 18.6773 15.6245C17.8249 15.6122 16.0105 15.4953 15.3263 14.7476C14.806 14.1782 14.5497 13.307 14.4263 12.6698ZM23.4161 13.673C23.4717 13.3366 23.1693 13.0862 22.8315 13.1374L20.9493 13.4211C20.8096 13.4423 20.6823 13.5135 20.591 13.6214C20.4997 13.7292 20.4506 13.8665 20.4527 14.0078L20.4701 15.1164C20.4744 15.377 20.6519 15.6036 20.9118 15.6281C21.3924 15.6736 22.1712 15.6454 22.711 15.1229C23.1643 14.6834 23.3461 14.1074 23.4161 13.673Z" fill="#0D0C00"/>
<path fill-rule="evenodd" clip-rule="evenodd" d="M19.1782 13.2875C19.5766 13.4289 19.8486 13.7378 20.3077 13.6166C20.5646 13.5495 20.802 13.4477 20.802 13.4477C20.802 13.4477 20.6346 14.5996 20.5884 15.501C20.3474 15.2672 20.509 14.5707 20.2384 14.5512C19.7743 14.5166 19.3535 15.2679 19.0425 15.5328C19.5066 14.3506 19.3153 13.9074 19.1782 13.2875Z" fill="#7B7B7B"/>
<path fill-rule="evenodd" clip-rule="evenodd" d="M18.805 15.6894C18.4427 16.1283 17.9894 16.3895 17.6502 16.5844C17.2432 16.8189 17 16.9597 17.2706 17.1993C17.9988 17.8431 20.3906 18.4623 22.5327 17.9571C24.6762 17.4512 23.3569 16.8002 21.8211 16.0965C21.1824 15.8042 20.6367 15.3149 20.2189 14.832L20.1481 15.7883L18.805 15.6894Z" fill="#F97429"/>
<path opacity="0.2" d="M21.01 16.5743C20.9573 16.6869 20.6968 16.6594 20.5077 16.5959C20.354 16.544 20.1613 16.4234 20.2147 16.2567C20.2529 16.1355 20.4875 16.0763 20.722 16.1701C20.9566 16.2639 21.0634 16.4617 21.0107 16.5743" fill="#0D0C00"/>
</g>
</svg>
