<svg width="32" height="32" viewBox="0 0 32 32" fill="none" xmlns="http://www.w3.org/2000/svg">
<rect width="32" height="32" rx="16" fill="black"/>
<path d="M18.1909 14.9412C17.8921 14.9412 17.5926 14.8268 17.3646 14.5988C16.9078 14.1427 16.9078 13.4023 17.3646 12.9461L20.3868 9.92385C20.843 9.46775 21.5834 9.46775 22.0395 9.92385C22.4963 10.38 22.4963 11.1204 22.0395 11.5765L19.0172 14.5988C18.7892 14.8268 18.4897 14.9412 18.1909 14.9412Z" fill="#38FF9C"/>
<path d="M9.95981 21.9837C10.1879 22.2117 10.4873 22.326 10.7861 22.326C11.085 22.326 11.3844 22.2117 11.6125 21.9837L14.6347 18.9614C15.0915 18.5053 15.0908 17.7655 14.6347 17.3087C14.1786 16.852 13.4382 16.8526 12.9821 17.3087L9.95981 20.331C9.50306 20.7871 9.50369 21.5275 9.95981 21.9837Z" fill="#38FF9C"/>
<path d="M15.7385 11.7912C13.6493 11.941 11.96 13.6214 11.8185 15.7119C11.811 15.8249 11.7617 15.9317 11.6808 16.0119L9.98332 17.712C9.88729 17.8086 9.72114 17.765 9.6864 17.633C9.54868 17.1068 9.46339 16.542 9.46339 15.9803C9.46339 12.3668 12.4029 9.42725 16.0165 9.42725C16.6053 9.42725 17.1764 9.50558 17.7196 9.65152C17.8296 9.68121 17.8656 9.81895 17.7853 9.89981L16.031 11.6554C15.9527 11.7338 15.8491 11.7824 15.7385 11.7906V11.7912Z" fill="#38FF9C"/>
<path d="M22.0577 14.1862L20.3021 15.9405C20.2237 16.0189 20.1745 16.1225 20.1663 16.233C20.0165 18.3222 18.3368 20.0115 16.2457 20.153C16.1326 20.1612 16.0258 20.2105 15.9456 20.2908L14.2455 21.9882C14.1495 22.0849 14.1925 22.2504 14.3245 22.2852C14.8514 22.4229 15.4162 22.5082 15.9772 22.5082C19.5907 22.5082 22.5302 19.5687 22.5302 15.9551C22.5302 15.3663 22.4526 14.7952 22.306 14.2519C22.2763 14.142 22.1379 14.1059 22.0577 14.1862Z" fill="#38FF9C"/>
<path fill-rule="evenodd" clip-rule="evenodd" d="M16 27.9993C9.3831 27.9993 4 22.6163 4 16C4 9.38373 9.3831 4 16 4C22.6169 4 28 9.3831 28 16C28 22.6169 22.6169 28 16 28V27.9993ZM16 6.33745C10.6725 6.33745 6.33745 10.6719 6.33745 16C6.33745 21.3281 10.6719 25.6625 16 25.6625C21.3281 25.6625 25.6625 21.3281 25.6625 16C25.6625 10.6719 21.3275 6.33745 16 6.33745Z" fill="#38FF9C"/>
</svg>
