<svg width="200" height="200" viewBox="0 0 200 200" fill="none" xmlns="http://www.w3.org/2000/svg">
<rect width="200" height="200" rx="100" fill="white"/>
<path d="M134.054 87.2101L79.8261 87.1677C65.0398 87.1677 52.7483 98.8599 52.3607 113.888C52.3486 114.288 52.6816 114.621 53.0813 114.621L107.31 114.657C122.096 114.663 134.387 102.971 134.775 87.9488C134.787 87.5492 134.454 87.2162 134.054 87.2162V87.2101Z" fill="#E61A59"/>
<path d="M161.544 46.0424L79.8261 46C65.0399 46 52.7483 57.6922 52.3607 72.7206C52.3486 73.1202 52.6816 73.4532 53.0813 73.4532L134.799 73.4896C149.585 73.4956 161.877 61.8035 162.265 46.7811C162.277 46.3815 161.944 46.0484 161.544 46.0484V46.0424Z" fill="#E61A59"/>
<path d="M68.695 155.401C76.1491 153.965 81.0281 146.759 79.5927 139.305C78.1573 131.851 70.9509 126.972 63.4968 128.407C56.0427 129.843 51.1637 137.049 52.5991 144.503C54.0345 151.957 61.2409 156.836 68.695 155.401Z" fill="#E61A59"/>
</svg>
