<svg width="32" height="32" viewBox="0 0 32 32" fill="none" xmlns="http://www.w3.org/2000/svg">
<path d="M16 32C24.8366 32 32 24.8366 32 16C32 7.16344 24.8366 0 16 0C7.16344 0 0 7.16344 0 16C0 24.8366 7.16344 32 16 32Z" fill="#0062F9"/>
<path d="M15.0944 7.04249C15.5862 6.79537 16.3346 6.79537 16.8264 7.04249L21.8449 9.5642C22.1449 9.71496 22.3079 9.94055 22.334 10.1726L22.3377 10.1726V22.904L22.3369 22.904C22.3245 23.1508 22.1604 23.3943 21.8449 23.5543L16.8264 26.0987C16.3346 26.3481 15.5862 26.3481 15.0944 26.0987L10.076 23.5543C9.75523 23.3917 9.60131 23.1397 9.59369 22.8887L9.59439 22.904H9.59307V10.1726L9.59509 10.1727C9.61422 9.93784 9.76959 9.71812 10.0759 9.5642L15.0944 7.04249ZM10.355 17.2664V22.8491L15.0944 25.2393C15.368 25.3796 15.6523 25.5164 15.9296 25.5268L15.9604 25.5275C16.2116 25.5283 16.4562 25.419 16.7029 25.3032L16.7918 25.2614L21.5758 22.8288V17.3157L16.8826 19.6684C16.3988 19.9109 15.6672 19.9154 15.1742 19.6819L15.1466 19.6684L10.355 17.2664ZM8.79145 22.6387C8.79145 23.1232 8.8509 23.4416 8.96892 23.6659C9.06675 23.8519 9.21353 23.9939 9.48154 24.1668L9.49684 24.1767C9.55565 24.2142 9.62044 24.2536 9.69931 24.2998L9.79232 24.3538L10.0779 24.517L9.66829 25.1585L9.34863 24.9756L9.2949 24.9444C9.20247 24.8903 9.12587 24.8439 9.05441 24.7983C8.29058 24.3105 8.00571 23.7787 8.00009 22.6724L8 22.6387H8.79145ZM16.3811 13.8896V19.0544C16.4289 19.0405 16.4733 19.0237 16.5128 19.0039L21.5432 16.4822C21.5485 16.4795 21.5535 16.4769 21.5583 16.4743L21.5625 16.472L21.5546 16.4677L21.5432 16.4618L16.5128 13.9401C16.4733 13.9202 16.4289 13.9034 16.3811 13.8896ZM15.619 13.8985C15.5822 13.9105 15.5478 13.9243 15.5163 13.9401L10.486 16.4618C10.4807 16.4644 10.4757 16.467 10.4709 16.4696L10.4666 16.472L10.4745 16.4763L10.486 16.4822L15.5163 19.0039C15.5478 19.0196 15.5822 19.0335 15.619 19.0455V13.8985ZM10.355 11.0539V15.6775L14.9612 13.3684L10.355 11.0539ZM21.5758 11.0488L17.0135 13.3412L21.5758 15.6282V11.0488ZM16.4575 7.707C16.1965 7.57587 15.7243 7.57587 15.4633 7.707L10.4448 10.2287C10.4396 10.2314 10.4345 10.234 10.4298 10.2366L10.4255 10.2389L10.4334 10.2432L10.4448 10.2491L15.4633 12.7708C15.7243 12.902 16.1965 12.902 16.4575 12.7708L21.4759 10.2491C21.4812 10.2465 21.4862 10.2438 21.491 10.2413L21.4953 10.2389L21.4874 10.2346L21.4759 10.2287L16.4575 7.707ZM22.3317 7.9844L22.6514 8.16727L22.7051 8.19851C22.7975 8.25255 22.8741 8.29898 22.9456 8.34461C23.7094 8.83238 23.9943 9.36418 23.9999 10.4704L24 10.5041H23.2085C23.2085 10.0197 23.1491 9.70127 23.0311 9.47695C22.9333 9.29102 22.7865 9.14892 22.5185 8.97603L22.5032 8.96621C22.4443 8.92865 22.3796 8.8893 22.3007 8.84306L22.2077 8.7891L21.9221 8.62585L22.3317 7.9844Z" fill="white"/>
</svg>
