<svg width="32" height="32" viewBox="0 0 32 32" fill="none" xmlns="http://www.w3.org/2000/svg">
<rect width="32" height="32" rx="16" fill="url(#paint0_linear_823_202)"/>
<path d="M28.9107 9.00394C28.7239 8.67815 28.3078 8.57085 27.9893 8.76644L10.8782 19.2606C10.4421 18.438 10.195 17.4981 10.195 16.5C10.195 13.2594 12.7997 10.6324 16.0127 10.6324C17.3923 10.6324 18.6589 11.118 19.6562 11.9271L16.016 14.4475L25.476 8.93856C25.68 8.82008 25.7497 8.55688 25.6317 8.3518C25.5076 8.13497 25.2267 8.0707 25.0217 8.21265L22.7052 9.81647C20.9982 8.07741 18.6307 7 16.0127 7C10.8106 7 6.59364 11.2532 6.59364 16.5C6.59364 18.1894 7.03134 19.7752 7.79762 21.15L3 24.0922L7.92559 21.3724C9.5706 24.1441 12.5764 26 16.0127 26C21.2148 26 25.4318 21.7468 25.4318 16.5C25.4318 16.2039 25.4318 16.2544 25.4318 15.3656C25.4318 14.4768 25.7893 13.3398 27.0562 12.6553C27.1648 12.5966 27.2042 12.4592 27.1427 12.3513C27.0823 12.2462 26.9493 12.2099 26.8452 12.2708L15.6126 18.8118C16.8665 18.2742 17.825 17.9474 19.0955 17.6899C21.7422 17.1537 21.8095 18.4263 20.7874 19.8617C20.103 20.8229 18.557 22.3665 16.0138 22.3665C13.9399 22.3665 12.1204 21.2724 11.0898 19.6249L28.6541 9.92768C28.9816 9.74718 29.0974 9.32974 28.9107 9.00394Z" fill="white"/>
<defs>
<linearGradient id="paint0_linear_823_202" x1="1.5" y1="28" x2="17" y2="15" gradientUnits="userSpaceOnUse">
<stop stop-color="#DC6F34"/>
<stop offset="1"/>
</linearGradient>
</defs>
</svg>
