<svg width="32" height="32" viewBox="0 0 32 32" fill="none" xmlns="http://www.w3.org/2000/svg">
<rect width="32" height="32" rx="16" fill="white"/>
<path d="M18.6915 2.00425C18.5474 1.97836 18.4118 2.0733 18.3863 2.22003L16.6485 12.2583H15.3515L13.6136 2.22003C13.5882 2.0733 13.4526 1.97836 13.3085 2.00425C7.13714 3.22127 2.4069 8.57271 2.01695 15.1153C2.01695 15.1239 2 15.4001 2 15.5382C2 15.5555 2 15.5727 2 15.5814C2 15.6331 2 15.6849 2 15.7368C2 15.754 2 15.7713 2 15.7972C2 15.8663 2 15.9267 2 15.9956C2 22.9353 6.86587 28.7097 13.317 29.9871C13.461 30.013 13.5968 29.918 13.6222 29.7714L15.36 19.733H16.657L18.3863 29.78C18.4118 29.9267 18.5474 30.0217 18.6915 29.9957C24.8628 28.7701 29.5846 23.4187 29.983 16.8761C29.983 16.8674 30 16.5913 30 16.4531C30 16.4358 30 16.4187 30 16.41C30 16.3582 30 16.3064 30 16.2546C30 16.2374 30 16.2201 30 16.1942C30 16.1251 30 16.0647 30 15.9956C30.0084 9.05607 25.1426 3.28169 18.6915 2.00425Z" fill="#FF6C15"/>
</svg>
