<svg width="32" height="32" viewBox="0 0 32 32" fill="none" xmlns="http://www.w3.org/2000/svg">
<rect width="32" height="32" rx="16" fill="white"/>
<path fill-rule="evenodd" clip-rule="evenodd" d="M7.15922 6.00325L11.9674 7.09364C12.0266 7.10469 12.0674 7.15647 12.0674 7.21555V24.114C12.0674 24.1732 12.0233 24.2285 11.9641 24.2397L7.15528 25.2305C7.07435 25.2489 7 25.1858 7 25.1048V6.12892C7 6.0476 7.07764 5.98476 7.15922 6.00325ZM25.0003 6.00325L20.1915 7.09364C20.1323 7.10469 20.0915 7.15647 20.0915 7.21555V24.114C20.0915 24.1732 20.1362 24.2285 20.1954 24.2397L25.0036 25.2305C25.0852 25.2489 25.1589 25.1858 25.1589 25.1048V6.12892C25.1589 6.0476 25.0812 5.98476 25.0003 6.00325ZM18.6131 13.1331V17.9787V18.0895H18.5026H13.6569H13.5457V17.9787V13.1331V13.0222H13.6569H18.5026H18.6131V13.1331Z" fill="url(#paint0_linear_975_255)"/>
<path fill-rule="evenodd" clip-rule="evenodd" d="M11.5522 7.52767L7.51516 6.61229V24.6305L11.5522 23.7989V7.52767ZM20.6066 7.52767V23.7989L24.6437 24.6305V6.61229L20.6066 7.52767ZM11.9674 7.09364C12.0266 7.10469 12.0674 7.15647 12.0674 7.21555V24.114C12.0674 24.1732 12.0233 24.2285 11.9641 24.2397L7.15528 25.2305C7.07435 25.2489 7 25.1858 7 25.1048V6.12892C7 6.0476 7.07764 5.98476 7.15922 6.00325L11.9674 7.09364ZM25.0036 25.2305L20.1954 24.2397C20.1362 24.2285 20.0915 24.1732 20.0915 24.114V7.21555C20.0915 7.15647 20.1323 7.10469 20.1915 7.09364L25.0003 6.00325C25.0812 5.98476 25.1589 6.0476 25.1589 6.12892V25.1048C25.1589 25.1858 25.0852 25.2489 25.0036 25.2305ZM18.098 17.5744V13.5374H14.0609V17.5744H18.098ZM13.5457 18.0895V13.0222H18.6131V18.0895H13.5457Z" fill="black"/>
<defs>
<linearGradient id="paint0_linear_975_255" x1="22.0903" y1="6.00003" x2="21.9186" y2="25.2338" gradientUnits="userSpaceOnUse">
<stop offset="0.055"/>
<stop offset="0.4999" stop-color="#808080"/>
<stop offset="0.5"/>
<stop offset="0.97" stop-color="#666666"/>
</linearGradient>
</defs>
</svg>
