<svg width="32" height="32" viewBox="0 0 32 32" fill="none" xmlns="http://www.w3.org/2000/svg">
<rect width="32" height="32" rx="16" fill="#091D1B"/>
<path d="M25.9993 15.9229C26.0184 17.687 25.6576 19.3726 24.9489 20.9831C23.9368 23.2764 21.5104 25.1515 19.2947 23.1555C17.4877 21.5287 17.1524 18.226 14.4451 17.7425C10.8629 17.2982 10.7767 21.5482 8.4365 22.0285C5.82811 22.5708 4.9629 18.0822 5.00121 16.0438C5.03952 14.0053 5.5695 11.1404 7.83628 11.1404C10.4447 11.1404 10.6203 15.1814 13.9311 14.9625C17.2099 14.7338 17.2674 10.5295 19.4096 8.72954C21.2582 7.17456 23.4324 8.31466 24.521 10.1865C25.5299 11.9179 25.9737 13.9498 25.996 15.9229H25.9993Z" fill="#6DDAB1"/>
</svg>
