<svg width="28" height="28" viewBox="0 0 28 28" fill="none" xmlns="http://www.w3.org/2000/svg">
<path d="M14 28C21.7319 28 28 21.7319 28 14C28 6.26801 21.7319 0 14 0C6.26801 0 0 6.26801 0 14C0 21.7319 6.26801 28 14 28Z" fill="#11171D"/>
<path d="M14.4542 4.375V9.14987L18.5998 6.7655L14.4542 4.375Z" fill="#1BD1AF"/>
<path opacity="0.9" d="M18.5998 6.7655V11.5404L22.7447 9.14987L18.5998 6.7655Z" fill="#1BD1AF"/>
<path opacity="0.8" d="M14.4542 9.14988V13.9247L18.5998 11.5404L14.4542 9.14988ZM18.5998 11.5412V16.3153L22.7448 13.9247L18.5998 11.5412Z" fill="#1BD1AF"/>
<path opacity="0.8" d="M14.4542 13.9248V18.6997L18.5998 16.3153L14.4542 13.9248Z" fill="#1BD1AF"/>
<path d="M18.5998 16.3152V21.0902L22.7447 18.6997L18.5998 16.3152Z" fill="#1BD1AF"/>
<path opacity="0.4" d="M3.73888 8.98888V13.7638L7.88463 11.3733L3.73888 8.98888Z" fill="#1BD1AF"/>
<path opacity="0.2" d="M8.96875 10.7643V15.5392L13.1075 13.1548L8.96875 10.7643Z" fill="#1BD1AF"/>
<path opacity="0.3" d="M5.89575 13.7839V18.5587L10.0406 16.1682L5.89575 13.7839Z" fill="#1BD1AF"/>
<path opacity="0.9" d="M8.62749 17.3872V22.162L12.7662 19.7715L8.62749 17.3872Z" fill="#1BD1AF"/>
<path opacity="0.7" d="M14.42 19.4425V24.2183L18.5588 21.8268L14.42 19.4425Z" fill="#1BD1AF"/>
<path opacity="0.9" d="M9.65913 8.40612V13.1819L13.7979 10.7975L9.65913 8.40612Z" fill="#1BD1AF"/>
<path opacity="0.8" d="M14.4542 4.375V9.14987L10.3084 6.7655L14.4542 4.375Z" fill="#1BD1AF"/>
<path opacity="0.6" d="M9.65911 6.40501V11.179L5.51248 8.78851L9.65911 6.40501Z" fill="#1BD1AF"/>
<path opacity="0.6" d="M13.8049 8.76749V13.5432L9.65913 11.1519L13.8049 8.76749Z" fill="#1BD1AF"/>
<path opacity="0.95" d="M8.94949 10.7643V15.5392L4.80374 13.1548L8.94949 10.7643Z" fill="#1BD1AF"/>
<path opacity="0.6" d="M14.4542 13.9248V18.6997L10.3154 16.3153L14.4542 13.9248Z" fill="#1BD1AF"/>
<path opacity="0.55" d="M5.89575 15.0368V19.8118L1.75 17.4203L5.89575 15.0368Z" fill="#1BD1AF"/>
<path d="M22.7447 9.14988V13.9247L18.5998 11.5404L22.7447 9.14988Z" fill="#1BD1AF"/>
<path opacity="0.95" d="M18.5998 11.5413V16.3153L14.4542 13.9248L18.5998 11.5413Z" fill="#1BD1AF"/>
<path opacity="0.9" d="M22.7447 13.9248V18.6997L18.5998 16.3153L22.7447 13.9248Z" fill="#1BD1AF"/>
<path opacity="0.7" d="M18.5998 16.3152V21.0902L14.4542 18.6997L18.5998 16.3152Z" fill="#1BD1AF"/>
<path opacity="0.4" d="M13.5363 18.305V23.0798L9.39139 20.6955L13.5363 18.305Z" fill="#1BD1AF"/>
<path d="M18.5998 6.7655V11.5404L14.4542 9.14987L18.5998 6.7655Z" fill="#1BD1AF"/>
</svg>
