<svg width="32" height="32" viewBox="0 0 32 32" fill="none" xmlns="http://www.w3.org/2000/svg">
<rect width="32" height="32" rx="16" fill="black"/>
<path fill-rule="evenodd" clip-rule="evenodd" d="M25.951 18.7759C26.5858 18.4173 26.9852 17.9062 26.9905 17.1769C27.0053 15.1059 27.0003 13.0347 26.9925 10.9635C26.9905 10.4096 26.7606 9.92806 26.3042 9.61038C25.9593 9.37022 25.5924 9.16057 25.2064 8.93997C25.0321 8.8404 24.854 8.73861 24.6722 8.63077V9.0495C24.6722 9.66935 24.6716 10.2892 24.6709 10.909C24.6692 12.6834 24.6674 14.4578 24.6802 16.232C24.6835 16.6918 24.5086 16.9652 24.1098 17.1886C22.7933 17.9262 21.4808 18.6708 20.1683 19.4155C19.2468 19.9383 18.3253 20.4612 17.4024 20.9816C17.2289 21.0794 17.1621 21.1847 17.1655 21.3818C17.1741 21.8612 17.1729 22.3407 17.1717 22.8202C17.1712 23.0343 17.1707 23.2483 17.171 23.4624C17.1711 23.515 17.1752 23.5677 17.18 23.6313C17.1826 23.6648 17.1854 23.7013 17.188 23.7425C17.3369 23.6584 17.4827 23.576 17.6264 23.4949C17.9483 23.313 18.2594 23.1373 18.5702 22.9611C19.2958 22.5495 20.0213 22.1377 20.7467 21.7258C22.4809 20.7414 24.2149 19.757 25.951 18.7759ZM25.9757 23.0219C26.54 22.703 26.9224 22.248 26.9748 21.6072C27.0071 21.2112 26.9996 20.812 26.9917 20.3979C26.9882 20.2109 26.9846 20.0209 26.9846 19.8268C26.953 19.8418 26.926 19.8541 26.9023 19.8649C26.8589 19.8846 26.8263 19.8994 26.7953 19.9171C26.0857 20.3195 25.3762 20.722 24.6667 21.1245C22.2301 22.5068 19.7936 23.889 17.3553 25.2679C17.2062 25.3523 17.1655 25.4506 17.1671 25.6095C17.1722 26.0811 17.1717 26.5528 17.1712 27.0244C17.171 27.2558 17.1708 27.4872 17.1712 27.7186C17.1713 27.7722 17.1754 27.8257 17.1802 27.8878C17.1827 27.9195 17.1853 27.9535 17.1876 27.9908C17.225 27.9715 17.2594 27.954 17.2917 27.9376C17.3553 27.9054 17.4107 27.8773 17.4648 27.8467C18.1431 27.4632 18.8209 27.0787 19.4986 26.6943C20.1373 26.332 20.7759 25.9696 21.4145 25.6071C22.9343 24.7445 24.4541 23.8818 25.9757 23.0219ZM11.7153 8.795C12.0935 8.57782 12.4163 8.57567 12.7945 8.79428C13.9171 9.44324 15.046 10.0819 16.1748 10.7205C16.5863 10.9534 16.9979 11.1862 17.4091 11.4195C17.8097 11.6469 18.2104 11.8741 18.6227 12.1079C18.9062 12.2687 19.1952 12.4326 19.4935 12.6018C19.4935 12.405 19.4938 12.2112 19.4941 12.0198C19.4951 11.36 19.496 10.7279 19.4847 10.0961C19.4832 10.0137 19.3764 9.90527 19.2904 9.85609C17.2773 8.70687 15.2612 7.56304 13.2439 6.42118C12.5956 6.05414 11.9348 6.04535 11.2861 6.41095C9.83183 7.23007 8.38084 8.05484 6.92996 8.87956C6.60818 9.06246 6.2864 9.24537 5.9646 9.42821C5.59261 9.63945 5.31194 9.93811 5.16146 10.3342C4.97991 10.8124 4.99342 11.3012 5.00739 11.8066C5.01458 12.0667 5.02189 12.3313 5.00277 12.6011C5.06112 12.5698 5.11052 12.5437 5.15415 12.5206C5.22919 12.4809 5.28715 12.4502 5.34408 12.418C5.85176 12.1299 6.35961 11.8421 6.86746 11.5543C8.4852 10.6375 10.1029 9.72073 11.7153 8.795ZM14.666 23.6497C14.7232 23.6816 14.7847 23.7159 14.8527 23.754C14.8527 23.5245 14.8521 23.2998 14.8515 23.0784C14.8498 22.51 14.8483 21.9641 14.8578 21.4184C14.8617 21.2029 14.8016 21.0812 14.6027 20.9715C14.0751 20.6805 13.5513 20.3827 13.0275 20.0849C12.5479 19.8123 12.0684 19.5397 11.5858 19.2722C11.2346 19.0776 11.0803 18.8113 11.0891 18.4159C11.1 17.927 11.0977 17.4379 11.0954 16.9488C11.0944 16.7445 11.0935 16.5401 11.0935 16.3357V15.0558C11.0633 15.0699 11.0374 15.0816 11.0145 15.0918C10.9716 15.1111 10.9391 15.1257 10.9083 15.1432C10.7139 15.2533 10.5198 15.3639 10.3258 15.4745C9.8681 15.7354 9.41041 15.9962 8.94849 16.2496C8.79327 16.3346 8.76825 16.4414 8.76898 16.5956C8.77373 17.7353 8.7783 18.8752 8.7657 20.0151C8.76314 20.2358 8.83509 20.3514 9.02793 20.4596C10.3903 21.2247 11.7491 21.996 13.1079 22.7673C13.5306 23.0073 13.9534 23.2473 14.3763 23.4871C14.4677 23.539 14.5594 23.5902 14.666 23.6497ZM14.7451 27.9461C14.7785 27.9626 14.8142 27.9803 14.8529 28C14.8529 27.7711 14.8521 27.5463 14.8513 27.3245C14.8492 26.7592 14.8472 26.2134 14.8591 25.668C14.8642 25.4438 14.7832 25.3329 14.5931 25.2258C13.5691 24.6488 12.5466 24.0691 11.5241 23.4894C10.3036 22.7974 9.08306 22.1054 7.85994 21.4181C7.50055 21.2162 7.33547 20.9573 7.33894 20.5474C7.35154 19.0653 7.35045 17.5829 7.33949 16.1008C7.33638 15.7027 7.49818 15.4484 7.84752 15.252C9.48504 14.3312 11.1184 13.4033 12.7517 12.4753C13.2431 12.1961 13.7345 11.917 14.226 11.638C14.299 11.5966 14.3715 11.554 14.4545 11.5051C14.4916 11.4833 14.5309 11.4602 14.5733 11.4353C14.3779 11.3244 14.1848 11.2155 13.9936 11.1077C13.4793 10.8177 12.9789 10.5354 12.4846 10.2434C12.308 10.1391 12.1838 10.1549 12.0142 10.2518C10.0509 11.3731 8.08765 12.4943 6.11397 13.5975C5.35577 14.0215 5.00369 14.6362 5.00825 15.4859C5.01793 17.3672 5.02177 19.2487 5.00624 21.1298C4.99894 22.0143 5.35814 22.6441 6.14666 23.0865C8.14629 24.2081 10.1397 25.3404 12.1332 26.4727C12.9422 26.9322 13.7511 27.3917 14.5606 27.8505C14.6178 27.8829 14.6768 27.9122 14.7451 27.9461ZM16.8874 4.2351C16.3604 3.94004 15.7861 3.92227 15.2422 4.18431C14.8845 4.3567 14.5399 4.55524 14.1822 4.76135C14.0215 4.85395 13.8581 4.94808 13.6897 5.04205C13.736 5.06968 13.7769 5.09427 13.8142 5.11673C13.8881 5.16122 13.9481 5.19729 14.0089 5.23176C14.5286 5.52679 15.0481 5.82226 15.5677 6.11772C17.1631 7.02512 18.7586 7.93253 20.3613 8.82748C20.7761 9.05919 20.9378 9.35552 20.9354 9.81517C20.9258 11.5898 20.9271 13.3645 20.9284 15.1393C20.9289 15.7581 20.9294 16.3769 20.9294 16.9957V17.3616C21.1062 17.2614 21.28 17.1633 21.4512 17.0666C22.0268 16.7415 22.5743 16.4322 23.1167 16.1148C23.187 16.0737 23.2438 15.9486 23.244 15.8622C23.2502 13.5353 23.2548 11.2081 23.2438 8.88115C23.2407 8.21761 22.9423 7.67611 22.3576 7.33923C20.5411 6.29303 18.7168 5.25958 16.8874 4.2351Z" fill="white"/>
</svg>
