<svg width="32" height="32" viewBox="0 0 32 32" fill="none" xmlns="http://www.w3.org/2000/svg">
<rect width="32" height="32" rx="16" fill="#FF443F"/>
<path d="M25.12 25.0567C24.8725 25.0844 24.7228 25.1149 24.5732 25.1149C23.4907 25.1149 22.4083 25.1315 21.3277 25.1047C21.1023 25.0921 20.8912 24.9925 20.7403 24.8277C18.519 22.0027 16.3164 19.1611 14.1026 16.3315C13.8559 16.0185 13.8597 15.8199 14.111 15.5004C16.3136 12.7013 18.4898 9.88091 20.6923 7.08179C20.855 6.8893 21.0883 6.76725 21.3418 6.74194C22.4534 6.70685 23.5679 6.72347 24.6805 6.72717C24.8257 6.74169 24.9696 6.76764 25.1106 6.80474C24.9996 6.9802 24.9309 7.10949 24.8424 7.22401C22.7088 9.99942 20.5737 12.7724 18.4371 15.5429C18.2168 15.8273 18.2196 16.0138 18.4371 16.2992C20.5819 19.0642 22.7179 21.8346 24.8452 24.6107C24.9309 24.7289 24.993 24.8508 25.12 25.0567Z" fill="white"/>
<path d="M12.3069 15.9417C12.3069 18.8027 12.2957 21.6581 12.3172 24.5162C12.3172 24.9906 12.1634 25.1346 11.7067 25.1189C10.9481 25.0912 10.1867 25.0995 9.42617 25.1096C9.10184 25.1096 8.95458 25.0247 8.96018 24.6657C8.96825 18.8423 8.96825 13.0183 8.96018 7.19373C8.96018 6.8495 9.09531 6.73229 9.42617 6.73229C10.2016 6.7406 10.9788 6.7526 11.7561 6.72122C12.2221 6.70276 12.3228 6.8938 12.32 7.31832C12.3051 10.1922 12.3125 13.066 12.3125 15.9399L12.3069 15.9417Z" fill="white"/>
</svg>
