<svg width="32" height="32" viewBox="0 0 32 32" fill="none" xmlns="http://www.w3.org/2000/svg">
<rect width="32" height="32" rx="16" fill="#040404"/>
<path d="M15.2969 9.70964C15.2969 8.79312 16.0062 8.04647 16.8769 8.04647H19.704V4H16.8769C13.8815 4 11.4527 6.55669 11.4527 9.70964C11.4527 10.5324 11.6191 11.3144 11.9166 12.0204C9.59044 13.0554 8.04565 15.2547 7.68597 18.0379C7.26571 21.0935 8.42888 24.3898 10.9619 25.9822C13.2227 27.4808 16.7575 27.3817 18.6669 25.3027V26.6829H22.6018V11.3728H16.8785C16.0078 11.3728 15.2985 10.6262 15.2985 9.70964H15.2969ZM18.7542 15.421V19.264C18.7542 21.3873 17.1188 23.1071 15.1035 23.1071C13.0882 23.1071 11.4527 21.3854 11.4527 19.264C11.4527 17.1426 13.0882 15.421 15.1035 15.421H18.7542Z" fill="#BFF009"/>
</svg>
