<svg width="32" height="32" viewBox="0 0 32 32" fill="none" xmlns="http://www.w3.org/2000/svg">
<rect width="32" height="32" rx="16" fill="white"/>
<path fill-rule="evenodd" clip-rule="evenodd" d="M20.6048 13.0345C20.6048 13.1895 20.7783 13.2652 20.8836 13.1547C20.9825 13.049 21.0879 12.9453 21.1914 12.8445C25.4691 8.63661 31.7425 15.1583 27.6951 19.6037C27.5976 19.7116 27.4978 19.8183 27.3958 19.9236C22.5123 24.9996 15.9998 25 15.9998 25C15.9998 25 9.48812 24.9996 4.60466 19.9236C4.50333 19.8176 4.40354 19.711 4.30531 19.6037C0.257945 15.1631 6.52763 8.63661 10.809 12.8445C10.9117 12.9453 11.0161 13.051 11.1168 13.1547C11.2195 13.2604 11.3956 13.1842 11.3956 13.0345C11.3956 12.8852 11.3975 12.7369 11.4012 12.5896C11.5635 6.47014 20.436 6.47014 20.5983 12.5896C20.6048 12.7369 20.6048 12.893 20.6048 13.0345ZM19.6745 18.0696C19.5869 17.9603 19.6344 17.754 19.7718 17.754C20.9944 17.754 21.9377 18.5267 22.1413 19.4703C22.186 19.6777 22.3489 19.8519 22.5546 19.8519C22.7604 19.8519 22.9301 19.6785 22.8997 19.4684C22.6915 18.0289 21.3265 16.9848 19.7718 16.9848C18.2171 16.9848 16.8521 18.0289 16.6439 19.4684C16.6135 19.6785 16.7833 19.8519 16.9891 19.8519H17.0762C17.2338 19.8519 17.3592 19.7191 17.3856 19.5587C17.4326 19.2737 17.5468 19.0024 17.7161 18.7608C17.7348 18.7341 17.7761 18.7504 17.7761 18.7834C17.7761 19.3996 18.2567 19.8991 18.8496 19.8991C19.4424 19.8991 19.9229 19.3996 19.9229 18.7834C19.9229 18.5119 19.8296 18.263 19.6745 18.0696ZM10.1602 18.7512C10.1857 18.7166 10.24 18.74 10.24 18.7834C10.24 19.3996 10.7205 19.8991 11.3133 19.8991C11.9062 19.8991 12.3868 19.3996 12.3868 18.7834C12.3868 18.495 12.2815 18.2321 12.1086 18.0341C12.0341 17.9488 12.0749 17.7864 12.1861 17.7864C13.4088 17.7864 14.3522 18.5586 14.5555 19.5028C14.6002 19.7101 14.7632 19.8843 14.9689 19.8843C15.1746 19.8843 15.3443 19.7109 15.314 19.5009C15.1059 18.0605 13.7408 17.0173 12.1861 17.0173C10.6313 17.0173 9.26619 18.0605 9.05813 19.5009C9.0278 19.7109 9.19754 19.8843 9.40325 19.8843H9.46726C9.63768 19.8843 9.77307 19.7405 9.80384 19.5675C9.85602 19.2746 9.97928 18.9966 10.1602 18.7512ZM17.1939 21.474C17.3393 21.3237 17.564 21.2507 17.7445 21.3525C17.9251 21.4543 17.9936 21.6907 17.8635 21.8553C17.4397 22.3911 16.7536 22.7307 15.9969 22.7307C15.2406 22.7307 14.553 22.3946 14.1287 21.8549C13.9991 21.6899 14.0684 21.4537 14.2493 21.3525C14.4302 21.2514 14.6545 21.3253 14.7997 21.4758C15.0794 21.7656 15.5038 21.9615 15.9969 21.9615C16.4887 21.9615 16.9136 21.7636 17.1939 21.474Z" fill="#1A1A1A"/>
</svg>
