<svg width="32" height="32" viewBox="0 0 32 32" fill="none" xmlns="http://www.w3.org/2000/svg">
<rect width="32" height="32" rx="16" fill="#F8F9FB"/>
<path d="M13.9145 7.24165L15.9246 4.04839C15.9591 3.98387 16.0461 3.98387 16.0634 4.04839L25.9929 19.8546C26.002 19.872 26.0015 19.8892 25.9962 19.9065C25.9917 19.9215 25.9838 19.9366 25.9757 19.9518L20.2573 25.9354C20.2381 25.9525 20.214 25.9639 20.1879 25.968H15.5434C15.4568 25.968 15.4224 25.8874 15.474 25.8389L18.5763 22.5805L21.4876 19.5483C21.5076 19.5298 21.516 19.5111 21.5161 19.4923C21.5163 19.4787 21.5121 19.4649 21.5049 19.4512L13.9145 7.32222C13.8973 7.30624 13.8973 7.27422 13.9145 7.24165Z" fill="#0A1023"/>
<path d="M16.8953 22.7256L13.8108 25.9514C13.802 25.9599 13.7885 25.9682 13.775 25.9764C13.7621 25.9843 13.7492 25.9922 13.7408 26H11.8C11.7651 26 11.7479 25.984 11.7306 25.9674L6.01289 19.9844C6.0045 19.9695 6 19.9529 6 19.9361C6 19.9192 6.0045 19.9027 6.01289 19.8878L13.1348 8.49943C13.1697 8.45144 13.2564 8.45144 13.2907 8.49943L15.2836 11.6938C15.3009 11.7093 15.3009 11.7419 15.2836 11.7738L10.4666 19.4672C10.4489 19.4994 10.4663 19.5315 10.4832 19.5631L10.4837 19.5644L13.3601 22.5645C13.3793 22.5814 13.4034 22.5925 13.4295 22.5965H16.8259C16.9125 22.5965 16.9474 22.6771 16.8953 22.7256Z" fill="#0A1023"/>
</svg>
