<svg width="200" height="200" viewBox="0 0 200 200" fill="none" xmlns="http://www.w3.org/2000/svg">
<g clip-path="url(#clip0_510_515)">
<rect width="200" height="200" rx="100" fill="white"/>
<path fill-rule="evenodd" clip-rule="evenodd" d="M100 217C164.618 217 217 164.618 217 99.9995C217 35.3826 164.618 -17 100 -17C35.3828 -17 -17 35.3826 -17 99.9995C-17 129.448 -6.12042 156.355 11.8386 176.922L73.243 119.984C74.8809 117.506 76.1158 114.77 76.8911 111.879L77.1242 111.008L43.1515 105.958C39.1678 105.366 39.1678 99.6215 43.1515 99.0285L73.4953 94.5187L38.3653 47.1224C35.967 43.8869 40.0295 39.8244 43.265 42.2227L90.6737 77.3624L95.1883 46.9926C95.7803 43.0089 101.525 43.0089 102.117 46.9926L106.628 77.3404L154.007 42.2227C157.243 39.8244 161.305 43.8869 158.907 47.1224L123.78 94.5149L154.154 99.0285C158.137 99.6215 158.137 105.366 154.154 105.958L123.78 110.473L158.907 157.865C161.305 161.1 157.243 165.163 154.007 162.765L106.628 127.647L102.117 157.995C101.525 161.978 95.7803 161.978 95.1883 157.994L90.1354 124.001L87.2703 124.769C85.6736 125.197 84.1643 125.877 82.796 126.777L24.7448 189.589C45.088 206.696 71.3412 217 100 217Z" fill="url(#paint0_linear_510_515)"/>
</g>
<defs>
<linearGradient id="paint0_linear_510_515" x1="-55.598" y1="-3.83754" x2="261.653" y2="166.989" gradientUnits="userSpaceOnUse">
<stop stop-color="#2A2CBF"/>
<stop offset="0.515625" stop-color="#6335FF"/>
<stop offset="1" stop-color="#BD89FF"/>
</linearGradient>
<clipPath id="clip0_510_515">
<rect width="200" height="200" rx="100" fill="white"/>
</clipPath>
</defs>
</svg>
