<svg width="200" height="200" viewBox="0 0 200 200" fill="none" xmlns="http://www.w3.org/2000/svg">
<g clip-path="url(#clip0_329_142)">
<circle cx="100" cy="100" r="100" fill="#00D2FF"/>
<path d="M174.973 90.8268C174.973 90.5581 170.03 87.428 167.431 85.7951C166.308 85.096 165.265 84.2777 164.321 83.3547C162.374 81.447 159.132 78.1117 158.08 76.0592C157.403 74.7477 157.681 72.3873 158.208 70.1355C159.121 66.1813 158.429 62.0296 156.282 58.5765L152.9 53.1162C151.344 50.6252 150.092 47.9593 149.172 45.1748C148.003 41.5968 145.97 38.3561 143.25 35.7347C137.747 30.4132 122.518 27.7932 109.867 27.3752C109.086 27.1412 108.291 26.9537 107.487 26.8137C101.855 25.8629 95.8451 24.3266 90.4537 25.3242C82.4502 26.8017 74.3584 29.2888 68.3184 35.4253C67.1007 36.6643 65.198 37.2484 63.8859 38.4226C61.2846 40.7498 57.7821 40.7498 55.4714 43.3335C54.1183 44.8427 53.4926 49.7643 49.946 51.6432C44.0796 54.7597 39.7384 58.1932 38.3167 59.9439C37.2421 61.2614 36.4095 62.8023 35.3638 64.1485C34.2983 65.5294 29.2432 67.8672 27.7743 69.3296C26.3054 70.792 24.3357 74.3508 25.2201 78.5554C25.3023 78.9387 25.3723 79.2557 25.4226 79.5122C26.001 81.6493 27.5734 85.5234 27.2096 87.2997C26.7864 89.4021 21.331 105.075 33.5204 109.253C36.0579 110.123 37.1325 111.818 37.4095 114.399C37.6242 116.325 38.2011 118.3 39.2133 120.427C40.3229 122.746 42.5072 124.008 42.6853 124.162C43.4205 124.805 46.8423 128.346 47.1239 128.862C51.4484 136.787 50.2337 140.747 58.5112 143.439C60.6379 144.135 62.68 145.064 64.5998 146.207C66.939 147.603 69.4445 148.704 72.0584 149.485C72.1345 149.506 72.2502 149.547 72.3857 149.595C74.2244 145.19 76.0891 141.011 77.9476 137.078C63.0472 121.929 66.9652 104.956 68.3946 100.404C68.4369 100.269 68.5126 100.147 68.6148 100.048C68.717 99.9499 68.8425 99.8784 68.9797 99.8403C69.117 99.8021 69.2617 99.7987 69.4006 99.8302C69.5395 99.8618 69.6683 99.9273 69.7752 100.021C72.9017 102.737 82.4091 112.537 81.2933 130.226C84.5812 123.715 87.7792 117.989 90.7002 113.101C79.9477 95.0329 87.9604 79.1953 90.4856 75.0193C90.5599 74.8962 90.6644 74.7937 90.7893 74.7213C90.9141 74.6489 91.0554 74.6088 91.2001 74.6049C91.3447 74.601 91.488 74.6334 91.6167 74.6989C91.7453 74.7645 91.8553 74.8612 91.9362 74.9801C94.1281 78.2068 100.084 88.7848 96.3961 104.025C99.0706 99.9711 101.241 96.9707 102.66 95.0873C106.502 69.8956 125.69 61.6296 130.733 59.8774C130.868 59.8297 131.013 59.8165 131.155 59.839C131.296 59.8615 131.43 59.919 131.543 60.0062C131.657 60.0934 131.746 60.2076 131.803 60.338C131.86 60.4685 131.883 60.6112 131.87 60.7528C131.404 65.9626 128.165 86.023 105.908 96.3248C103.234 99.8186 100.657 103.497 98.1923 107.27C106.703 100.683 118.63 97.579 128.54 99.9635C128.679 99.9953 128.809 100.061 128.917 100.155C129.025 100.249 129.107 100.368 129.157 100.501C129.207 100.635 129.222 100.778 129.202 100.919C129.182 101.06 129.127 101.194 129.042 101.308C126.192 105.048 114.86 117.662 93.5147 114.772C89.9072 120.801 86.6011 126.91 83.6664 132.754C92.883 125.839 106.353 123.19 116.804 126.672C116.943 126.716 117.069 126.794 117.169 126.899C117.27 127.004 117.343 127.132 117.381 127.272C117.419 127.412 117.42 127.559 117.386 127.7C117.352 127.841 117.282 127.971 117.184 128.079C113.939 131.55 101.442 142.91 80.896 138.398C78.9705 142.434 76.0982 149.07 74.6963 152.35C74.2138 153.477 73.7693 154.613 73.3751 155.777C72.4618 158.448 71.244 161.781 69.7812 165.114C69.5754 165.59 69.4704 166.102 69.4727 166.62C69.4751 167.137 69.5847 167.648 69.7948 168.122C70.005 168.596 70.3111 169.021 70.6942 169.373C71.0774 169.724 71.5293 169.993 72.0219 170.164C88.2351 175.904 105.839 176.551 122.436 172.016C122.984 171.863 123.491 171.588 123.917 171.213C124.344 170.838 124.679 170.372 124.899 169.85C125.244 169.037 125.585 168.267 125.585 168.267C125.585 168.267 132.751 151.763 133.805 144.573C134.22 141.746 135.048 139.625 135.902 138.083C136.462 137.075 137.272 136.224 138.254 135.612C139.237 135 140.361 134.646 141.52 134.583C146.982 134.296 158.611 133.54 162.841 132.211C168.464 130.44 166.026 120.288 165.724 119.192C165.423 118.097 168.429 115.554 169.049 114.069C169.668 112.583 167.527 112.075 166.654 110.446C165.782 108.818 168.823 107.644 169.257 106.165C169.691 104.686 168.268 103.059 167.691 101.965C167.114 100.871 166.893 99.5017 166.893 99.5017C166.893 99.5017 171.003 96.515 173.192 94.63C175.381 92.745 174.971 91.192 174.967 90.8253" fill="black"/>
</g>
<defs>
<clipPath id="clip0_329_142">
<rect width="200" height="200" fill="white"/>
</clipPath>
</defs>
</svg>
