<svg width="32" height="32" viewBox="0 0 32 32" fill="none" xmlns="http://www.w3.org/2000/svg">
<rect width="32" height="32" rx="16" fill="#30BF54"/>
<path d="M6 6C11.5231 6 16 10.4769 16 16C16 14.6739 16.5268 13.4021 17.4645 12.4645C18.4021 11.5268 19.6739 11 21 11C21 12.3261 20.4732 13.5979 19.5355 14.5355C18.5979 15.4732 17.3261 16 16 16C21.5231 16 26 20.4769 26 26C20.4769 26 16 21.5231 16 16C16 17.3261 15.4732 18.5979 14.5355 19.5355C13.5979 20.4732 12.3261 21 11 21C11 19.6739 11.5268 18.4021 12.4645 17.4645C13.4021 16.5268 14.6739 16 16 16C10.4769 16 6 11.5231 6 6Z" fill="black"/>
</svg>
