<svg width="200" height="200" viewBox="0 0 200 200" fill="none" xmlns="http://www.w3.org/2000/svg">
<rect width="200" height="200" rx="100" fill="black"/>
<path d="M100.21 172.205L100.219 147.497C97.7299 147.497 95.221 147.299 92.7652 146.906L88.9323 171.314C92.6497 171.905 96.4442 172.205 100.215 172.205H100.21ZM111.487 171.323C115.214 170.732 118.917 169.846 122.5 168.678L114.94 145.172C112.58 145.942 110.134 146.528 107.674 146.916L111.487 171.323ZM77.9148 168.664L85.494 145.162C83.1297 144.392 80.8135 143.423 78.6033 142.289L67.4414 164.299C70.7976 166.023 74.3224 167.491 77.9148 168.664ZM132.969 164.328C136.33 162.608 139.58 160.602 142.633 158.369L128.182 138.389C126.174 139.862 124.036 141.18 121.826 142.309L132.969 164.328ZM57.7818 158.33L72.2471 138.36C70.2488 136.897 68.3418 135.25 66.5698 133.472L49.1912 150.932L49.2056 150.947C51.8733 153.63 54.7578 156.116 57.7818 158.33ZM151.108 151.097L151.257 150.942C153.915 148.268 156.381 145.37 158.586 142.333L138.742 127.775C137.288 129.78 135.655 131.699 133.893 133.477L133.648 133.729L141.997 141.659L151.108 151.097ZM41.843 142.284L61.6966 127.741C60.2328 125.72 58.923 123.569 57.7962 121.346L35.9153 132.561C37.6247 135.938 39.6183 139.208 41.843 142.279V142.284ZM164.524 132.609C166.238 129.233 167.697 125.686 168.867 122.072L145.508 114.442C144.742 116.821 143.779 119.151 142.652 121.375L164.524 132.609ZM31.5863 122.019L54.9504 114.408C54.1847 112.034 53.6021 109.573 53.2119 107.097L28.9523 110.944C29.5397 114.694 30.4258 118.419 31.5863 122.024V122.019ZM171.506 110.997C172.093 107.257 172.392 103.44 172.397 99.6511L147.838 99.6365C147.838 102.141 147.641 104.665 147.251 107.141L171.506 110.997ZM52.6293 99.5978C52.6293 97.0931 52.8268 94.5641 53.2119 92.0934L28.9523 88.2465C28.3648 91.9866 28.0711 95.8043 28.0663 99.5929H52.6246L52.6293 99.5978ZM147.26 92.1321L171.52 88.2998C170.938 84.55 170.052 80.8245 168.896 77.22L145.527 84.8166C146.293 87.1953 146.875 89.6516 147.26 92.1272V92.1321ZM54.9504 84.7875C55.716 82.4087 56.679 80.0736 57.801 77.8498L35.9201 66.6296C34.2106 70.0063 32.7516 73.5527 31.5863 77.1667L54.9455 84.7875H54.9504ZM142.681 77.8839L164.572 66.6829C162.862 63.3012 160.869 60.0311 158.649 56.9596L138.785 71.4936C140.245 73.514 141.554 75.665 142.681 77.8887V77.8839ZM61.7063 71.4549C63.1654 69.4394 64.8025 67.5113 66.5747 65.7334L66.6227 65.6848L49.2586 48.2149L49.2105 48.2633C46.5428 50.9473 44.0677 53.8591 41.8574 56.9063L61.7063 71.4549ZM133.98 65.8205L139.224 60.4381L151.296 48.2972L151.257 48.2585C148.604 45.5891 145.729 43.1135 142.715 40.8994L128.24 60.8595C130.233 62.3227 132.135 63.9602 133.893 65.7334L133.98 65.8205ZM72.3049 60.8062C74.3129 59.3383 76.4509 58.0205 78.6611 56.8917L67.5328 34.8678C64.1716 36.5877 60.9213 38.5885 57.8685 40.8219L72.3049 60.8062ZM121.889 56.9304L133.065 34.9308C129.709 33.2061 126.189 31.7333 122.596 30.5608L115.002 54.0576C117.367 54.8327 119.683 55.7968 121.893 56.9353L121.889 56.9304ZM85.5567 54.0286C87.921 53.2631 90.3672 52.6768 92.823 52.2893L89.0238 27.8769C85.3014 28.4631 81.5936 29.3497 78.011 30.5172L85.5567 54.0286ZM107.736 52.3038L111.579 27.8963C107.861 27.3052 104.067 27 100.301 27L100.277 51.7079C102.767 51.7079 105.275 51.9114 107.736 52.3038Z" fill="white"/>
<path d="M100.224 148.589V123.757C98.1496 123.757 96.0799 123.484 94.0785 122.953L87.6702 146.943C91.7607 148.034 95.9826 148.589 100.224 148.589ZM112.778 146.943C116.883 145.848 120.832 144.217 124.504 142.094L112.077 120.592C110.289 121.624 108.371 122.418 106.374 122.948L112.778 146.943ZM75.9393 142.089L88.3714 120.592C86.5892 119.559 84.9383 118.289 83.4579 116.813L83.2292 116.589L75.3842 124.847L65.7571 134.23L65.8982 134.366C68.9076 137.376 72.2872 139.971 75.9441 142.089H75.9393ZM134.55 134.376H134.555C137.559 131.362 140.155 127.988 142.268 124.336L120.774 111.9C119.741 113.682 118.47 115.333 116.995 116.808L134.55 134.376ZM58.1507 124.282L79.6646 111.876C78.6323 110.089 77.8433 108.17 77.3126 106.169L53.3103 112.553C54.4011 116.657 56.0323 120.606 58.1507 124.282ZM147.128 112.616C148.219 108.526 148.774 104.304 148.779 100.063L123.944 100.054C123.944 102.133 123.671 104.202 123.136 106.203L147.128 112.616ZM76.5139 100.025C76.5139 97.9454 76.7867 95.876 77.3272 93.8749L53.3395 87.4475C52.2438 91.5377 51.6838 95.7592 51.6838 100L76.5187 100.025H76.5139ZM123.14 93.9041L147.138 87.5109C146.042 83.4062 144.411 79.4573 142.292 75.7862L120.784 88.2023C121.816 89.9892 122.61 91.9077 123.14 93.9041ZM79.6889 88.1732C80.7066 86.4154 81.9629 84.7842 83.4142 83.3234L83.4775 83.2602L74.5953 74.379L66.054 65.5706L65.8982 65.7216C62.8985 68.721 60.3078 72.0857 58.1993 75.7277L79.6889 88.1732ZM117.01 83.2894L125.804 74.4958L134.779 65.9457L134.555 65.7168C131.555 62.7174 128.18 60.1221 124.533 58.0089L112.091 79.5012C113.849 80.519 115.485 81.7751 116.946 83.226L117.01 83.2894ZM88.386 79.4867C90.1684 78.4544 92.087 77.6656 94.0882 77.13L87.6994 53.135C83.5895 54.2305 79.6451 55.8569 75.9686 57.9798L88.386 79.4867ZM106.389 77.1397L112.812 53.1496C108.722 52.054 104.5 51.4989 100.258 51.4941L100.243 76.3266C102.323 76.3266 104.392 76.5993 106.394 77.1348L106.389 77.1397Z" fill="white"/>
</svg>
