<svg width="32" height="32" viewBox="0 0 32 32" fill="none" xmlns="http://www.w3.org/2000/svg">
<rect width="32" height="32" rx="16" fill="white"/>
<path d="M26.9975 15.4899C26.9975 9.69639 22.0731 5 15.9994 5C9.92572 5 5 9.69639 5 15.4899C5 16.6877 5.21098 17.8381 5.59818 18.9104C5.60067 18.9152 5.62176 18.9767 5.62176 18.9767C5.77814 19.4513 5.00248 19.6372 5.00248 19.9212C5.00248 20.3662 6.63818 20.3059 6.63818 20.8231C6.63818 21.274 5.01986 21.4137 5.01986 21.8682C5.01986 22.4966 8.60276 22.2777 8.64868 22.8174C8.68343 23.234 7.41631 23.2601 7.40886 23.7051C7.39646 24.4164 12.2986 24.1832 12.2986 24.6566C12.2986 25.0153 10.0684 24.8851 10.0684 25.3088C10.0684 25.7325 13.0035 26 16.2389 26C19.4743 26 21.7057 25.6568 21.7057 25.2863C21.7057 24.9158 19.6232 24.9916 19.6667 24.6578C19.7411 24.0743 24.364 24.3726 24.364 23.6968C24.364 23.3405 23.0932 23.2577 23.1342 22.8742C23.1925 22.3321 26.9975 22.4126 26.9975 21.8492C26.9975 21.4066 25.1111 21.2977 25.1149 20.8373C25.1173 20.3674 26.9975 20.3875 26.9851 19.9472C26.9752 19.6088 26.1437 19.617 26.4043 18.8998C26.789 17.831 27 16.6841 27 15.4899H26.9975ZM23.5027 18.469C23.1205 19.2939 22.2617 19.1282 22.1649 19.475C22.0644 19.8336 23.2235 19.8857 23.2235 20.2609C23.2235 20.7166 19.6903 20.5343 19.725 21.1355C19.7473 21.5143 22.2344 21.5782 22.1872 21.9735C22.119 22.5464 18.3338 22.2599 18.2966 22.8091C18.2693 23.2115 20.1445 23.2257 20.1482 23.5926C20.1519 23.9015 18.6763 24.0696 15.8492 24.0696C12.63 24.0696 11.0638 23.9039 11.2425 23.5595C11.4088 23.2376 14.2594 23.2967 14.2309 22.7902C14.2023 22.2848 9.16868 22.4327 9.01727 21.9416C8.89067 21.5332 10.6716 21.4492 10.6604 21.061C10.6492 20.6657 8.38062 20.7556 8.33097 20.2763C8.2987 19.9626 9.51617 19.9816 9.46404 19.5863C9.42557 19.2986 8.92293 19.3389 8.62508 18.7459C8.14482 17.7553 7.87425 16.6522 7.87425 15.4888C7.87425 11.209 11.513 7.73877 16.0006 7.73877C20.4882 7.73877 24.127 11.209 24.127 15.4888C24.127 16.5445 23.9048 17.5505 23.504 18.4678L23.5027 18.469Z" fill="#2B1A41"/>
</svg>
