<svg width="32" height="32" viewBox="0 0 32 32" fill="none" xmlns="http://www.w3.org/2000/svg">
<path d="M0 16C0 7.16344 7.16344 0 16 0V0C24.8366 0 32 7.16344 32 16V16C32 24.8366 24.8366 32 16 32V32C7.16344 32 0 24.8366 0 16V16Z" fill="white"/>
<path d="M25.1133 21.6062C25.1158 21.1145 26.9964 21.1355 26.9841 20.6733C26.9767 20.3985 26.4776 20.3418 26.3728 19.9807C26.3556 19.9142 26.3494 19.8378 26.3605 19.7478C26.3679 19.6948 26.3814 19.6369 26.4036 19.5741C26.7893 18.4526 26.9989 17.2498 26.9989 15.9989C26.9989 9.92457 22.0743 5 15.9999 5C9.92554 5 5.00098 9.92457 5.00098 15.9989C5.00098 17.2436 5.20801 18.439 5.58882 19.5543C5.59128 19.5642 5.59498 19.5753 5.59868 19.5864C5.60977 19.616 5.61839 19.6431 5.62702 19.6702C5.76258 20.1582 5.00344 20.3517 5.00344 20.6462C5.00344 21.1121 6.6388 21.0504 6.6388 21.5927C6.6388 22.0647 5.0207 22.2113 5.0207 22.6883C5.0207 23.3464 8.60444 23.1184 8.6488 23.684C8.68331 24.1215 7.41643 24.1474 7.40904 24.6145C7.39671 25.3601 12.2991 25.116 12.2991 25.6127C12.2991 25.9886 10.0697 25.8518 10.0697 26.2967C10.0697 26.7415 13.0052 27.0213 16.2402 27.0213C19.4752 27.0213 21.7058 26.6614 21.7058 26.272C21.7058 25.8826 19.6231 25.9639 19.6662 25.6127C19.7414 25.0002 24.3628 25.3132 24.3628 24.6046C24.3628 24.2312 23.091 24.1437 23.1329 23.7419C23.1908 23.1738 26.9964 23.2576 26.9964 22.6673C26.9964 22.2027 25.1109 22.0893 25.1133 21.6062ZM20.1863 24.3865C20.1863 24.7118 18.7124 24.8597 15.8828 24.8597C13.5684 24.8597 11.2701 24.7143 11.2701 24.3359C11.2701 23.9576 14.0121 23.9243 15.8964 23.9268C18.4067 23.9317 20.1875 24.0476 20.1863 24.3852V24.3865ZM15.9999 7.87266C19.469 7.87266 22.4304 10.0466 23.5963 13.1066C23.7306 13.5034 23.2426 13.4787 22.8975 13.4787H21.9609C21.2917 13.4787 20.45 13.5588 20.45 13.7425C20.45 13.9717 22.4945 13.9581 22.72 13.9581C23.3794 13.9581 23.897 14.0074 23.9721 14.4129C24.0732 14.9255 24.1274 15.4555 24.1274 15.9977C24.1274 17.0871 23.9118 18.1272 23.5223 19.0762C23.3954 19.3559 23.2303 19.5001 23.0281 19.6209C22.0607 20.1582 20.3083 20.0621 20.3083 20.3862C20.3083 20.857 23.2611 20.6561 23.2648 21.0652C23.2709 21.69 17.9964 21.3191 17.9976 21.8823C17.9976 22.4406 22.2407 22.1805 22.2407 22.7659C22.2407 23.0604 20.8776 23.1689 19.3926 23.2059C17.0844 23.2367 13.0052 23.2182 11.4672 23.1664C11.4672 23.1664 11.4672 23.1664 11.4685 23.1677C10.4284 23.1307 9.54227 22.9877 9.19474 22.8386C9.09862 22.7979 9.09492 22.6809 9.18612 22.634C10.2373 22.093 16.6531 22.5244 16.6531 21.8958C16.6531 21.2673 10.3137 21.7024 10.3187 21.1577C10.3224 20.7707 13.089 20.804 15.2827 20.804C18.1245 20.804 18.997 20.6622 18.9958 20.4564C18.9933 20.0448 15.5008 20.2864 15.4885 19.8242C15.4762 19.3756 21.0169 19.7035 21.0169 19.2647C21.0169 18.9862 18.6101 18.9591 16.2033 18.969C13.7964 18.9776 11.3896 18.9825 11.3896 19.2807C11.3896 19.6184 14.2376 19.4878 14.2376 19.8255C14.2376 20.0929 12.6725 20.1483 11.0371 20.1483C9.95882 20.1483 9.12203 20.067 8.71165 19.558C8.67838 19.5161 8.64387 19.4545 8.61676 19.4003C8.14107 18.3651 7.87241 17.2141 7.87241 16.0002C7.87241 11.5119 11.5104 7.8739 15.9987 7.8739L15.9999 7.87266Z" fill="#0A323C"/>
<path d="M15.8348 18.3392C19.3347 18.3392 22.7422 18.3897 22.7434 17.9991C22.7434 17.5259 17.8558 17.5813 15.3172 17.5813C13.3035 17.5813 9.69263 17.5185 9.69263 17.9683C9.69263 18.4181 13.7348 18.3404 15.8348 18.3404V18.3392Z" fill="#0A323C"/>
<path d="M18.0951 16.9959C20.396 16.9959 21.5482 16.9688 21.5482 16.6915C21.5482 16.2898 18.4156 16.5128 18.4156 16.1148C18.4156 15.766 20.3947 15.962 20.3947 15.5861C20.3947 15.2903 18.1777 15.3187 16.97 15.3187C15.6292 15.3187 14.3105 15.3692 14.3105 15.6206C14.3105 15.9459 17.6885 15.7636 17.6885 16.0975C17.6885 16.5757 12.3289 16.2306 12.3289 16.6915C12.3289 17.1278 15.8128 16.9959 18.0951 16.9959Z" fill="#0A323C"/>
<path d="M20.3527 14.864C20.8457 14.864 22.2912 14.8332 22.2912 14.636C22.2912 14.4388 21.2203 14.3748 20.1075 14.376C19.3422 14.376 17.7832 14.3895 17.7832 14.6126C17.7832 14.8357 18.9663 14.8652 20.3527 14.864Z" fill="#0A323C"/>
<path d="M21.1868 15.5935C21.1868 15.7808 22.0137 15.8572 22.6484 15.8572C23.0144 15.8572 23.7131 15.7808 23.7131 15.6329C23.7131 15.453 22.9959 15.3987 22.5596 15.3926C21.994 15.3852 21.1868 15.432 21.1868 15.5935Z" fill="#0A323C"/>
</svg>
