<svg width="296" height="296" viewBox="0 0 296 296" fill="none" xmlns="http://www.w3.org/2000/svg">
<rect width="296" height="296" rx="148" fill="white"/>
<path d="M115.375 75.4802H95.8561C94.5081 75.4802 93.3051 76.3238 92.8426 77.5909L41.5384 218.365C41.1569 219.412 41.9316 220.52 43.0452 220.52H62.5637C63.9117 220.52 65.1147 219.676 65.5772 218.41L116.881 77.6357C117.263 76.5883 116.488 75.4802 115.375 75.4802ZM139.115 134.465C138.602 133.059 136.615 133.059 136.102 134.465L125.983 162.235C125.724 162.945 125.724 163.725 125.983 164.435L145.654 218.409C146.115 219.676 147.319 220.519 148.667 220.519H168.186C169.299 220.519 170.074 219.411 169.692 218.364L139.115 134.465ZM188.873 161.646C189.386 163.053 191.373 163.053 191.885 161.646L222.502 77.6357C222.884 76.5883 222.109 75.4802 220.995 75.4802H201.477C200.129 75.4802 198.926 76.3227 198.463 77.5909L178.753 131.675C178.494 132.386 178.494 133.164 178.753 133.875L188.873 161.646ZM150.388 77.576C149.931 76.3174 148.735 75.4802 147.398 75.4802H127.813C126.466 75.4802 125.263 76.3227 124.801 77.5898L73.4978 218.365C73.1163 219.412 73.891 220.52 75.0045 220.52H94.5241C95.8721 220.52 97.0751 219.678 97.5376 218.41L136.818 110.626C137.075 109.918 138.074 109.918 138.331 110.626L177.612 218.41C178.073 219.678 179.277 220.52 180.625 220.52H200.145C201.258 220.52 202.033 219.412 201.652 218.366L150.388 77.576ZM252.955 75.4802H233.434C232.087 75.4802 230.883 76.3227 230.422 77.5898L194.732 175.522C194.473 176.232 194.473 177.011 194.732 177.721L204.853 205.492C205.365 206.899 207.353 206.899 207.865 205.492L243.195 108.549L254.462 77.6346C254.843 76.5883 254.068 75.4802 252.955 75.4802Z" fill="#EF8220"/>
</svg>
