<svg width="200" height="200" viewBox="0 0 200 200" fill="none" xmlns="http://www.w3.org/2000/svg">
<rect width="200" height="200" rx="100" fill="white"/>
<path d="M65.6453 75.231C69.6825 76.1822 72.1816 80.2151 71.2273 84.2387C70.2729 88.2624 66.2265 90.7532 62.1892 89.802C58.152 88.8509 55.6529 84.818 56.6073 80.7943C57.5616 76.7706 61.6081 74.2799 65.6453 75.231Z" fill="#00A84F"/>
<path fill-rule="evenodd" clip-rule="evenodd" d="M148.016 111.466C146.115 114.499 143.928 117.247 141.551 119.805L141.646 120.09C143.574 121.221 145.359 122.094 146.985 122.889C153.94 126.291 158 128.276 158 143.022C158 161.217 131.948 176 100 176C68.0525 176 42 161.217 42 143.022C42 134.304 47.9902 126.344 57.6885 120.469C54.741 117.342 52.2688 114.025 49.9869 110.234C49.6066 109.476 49.2262 108.813 48.8459 108.15C48.7508 108.007 48.6795 107.865 48.6082 107.723C48.5369 107.581 48.4656 107.439 48.3705 107.297C48.2501 107.057 48.1298 106.823 48.0109 106.592C47.6604 105.911 47.3234 105.256 47.0393 104.549C46.9443 104.359 46.873 104.17 46.8016 103.98C46.7303 103.791 46.659 103.601 46.5639 103.411C44.4721 98.4838 43.0459 93.2718 42.4754 87.7756C42.3803 87.3965 42.3803 87.1122 42.3803 86.7332C42.2852 85.7855 42.1902 84.8379 42.1902 83.7955V80.8579C42.1902 70.5287 44.8525 60.9576 50.082 52.2394C52.7443 47.8803 55.7869 43.9003 59.3049 40.4888C59.4349 40.2945 59.6092 40.1445 59.7673 40.0085C59.8405 39.9455 59.9103 39.8855 59.9705 39.8254C60.8262 38.9726 61.7771 38.1197 62.7279 37.3616C62.8705 37.2668 62.9893 37.1721 63.1082 37.0773C63.227 36.9825 63.3459 36.8878 63.4885 36.793C65.8656 34.803 68.4328 33.0973 71.1902 31.4863C72.8066 30.5387 74.518 29.6858 76.2295 28.9277C76.5148 28.7855 76.8 28.6671 77.0852 28.5486C77.3705 28.4302 77.6557 28.3117 77.941 28.1696C79.082 27.6958 80.318 27.2219 81.459 26.8429C81.7538 26.7511 82.045 26.6593 82.3341 26.5681C83.5366 26.189 84.7014 25.8218 85.9279 25.5162C86.2131 25.4688 86.5221 25.3978 86.8312 25.3267C87.1402 25.2556 87.4492 25.1845 87.7344 25.1372C87.8138 25.1174 87.8891 25.0976 87.961 25.0787C88.2338 25.007 88.4595 24.9476 88.6852 24.9476C91.1574 24.4738 93.6295 24.1895 96.1967 24H99.9049C105.8 24 111.41 24.7581 116.734 26.4638C116.925 26.5112 117.115 26.5823 117.305 26.6534C117.495 26.7244 117.685 26.7955 117.875 26.8429C118.113 26.9377 118.351 27.0087 118.589 27.0798C118.826 27.1509 119.064 27.222 119.302 27.3167C119.492 27.4115 119.706 27.4825 119.92 27.5536C120.134 27.6247 120.348 27.6958 120.538 27.7905C120.633 27.7905 120.728 27.8379 120.823 27.8853C120.918 27.9327 121.013 27.9801 121.108 27.9801C122.059 28.3591 122.915 28.7382 123.866 29.212C125.387 29.8753 126.908 30.6334 128.334 31.4863C129.761 32.3392 131.092 33.192 132.328 34.0449C132.803 34.3292 133.374 34.7082 133.849 35.0873C134.42 35.4663 134.895 35.8454 135.37 36.2244C135.513 36.3192 135.632 36.414 135.751 36.5087C135.87 36.6035 135.989 36.6983 136.131 36.793C141.361 41.0574 145.734 46.1746 149.348 52.2394C150.203 53.5661 150.964 54.9875 151.629 56.409L152.771 58.9676C152.866 59.2519 152.984 59.5362 153.103 59.8204C153.222 60.1047 153.341 60.389 153.436 60.6733C153.741 61.3577 153.985 62.1032 154.217 62.8117C154.274 62.9861 154.331 63.1582 154.387 63.3267C154.482 63.611 154.577 63.919 154.672 64.2269C154.767 64.5349 154.862 64.8429 154.957 65.1272C155.052 65.4115 155.124 65.7195 155.195 66.0274C155.266 66.3354 155.338 66.6434 155.433 66.9277C155.528 67.2594 155.599 67.591 155.67 67.9227C155.742 68.2544 155.813 68.586 155.908 68.9177L156.193 70.6235C156.289 70.9077 156.384 71.2868 156.384 71.6658C156.415 71.8554 156.458 72.0449 156.5 72.2344C156.584 72.6135 156.669 72.9925 156.669 73.3716C156.764 74.0349 156.859 74.6983 156.859 75.3616C156.954 75.9302 156.954 76.5935 156.954 77.1621V81.1421C156.954 85.4065 156.479 89.4813 155.623 93.4613C155.148 95.5461 154.577 97.6309 153.816 99.7157C153.721 100 153.602 100.284 153.484 100.569C153.365 100.853 153.246 101.137 153.151 101.421C152.866 102.274 152.485 103.127 152.105 103.98C151.725 104.833 151.344 105.686 150.869 106.539C150.298 107.676 149.728 108.718 149.062 109.855C148.872 110.14 148.706 110.4 148.539 110.661C148.373 110.921 148.207 111.182 148.016 111.466ZM141.836 84.0798C142.407 84.4589 142.787 84.8379 142.977 85.3117V85.4065C143.262 85.8803 143.357 86.4489 143.357 87.0175C143.357 87.586 143.262 88.1546 142.977 88.6284C142.692 89.1023 142.311 89.4813 141.836 89.7656C141.361 90.0499 141.075 90.1446 140.125 90.1446C139.174 90.1446 138.318 89.9551 137.652 89.3865C136.892 88.818 136.416 88.0599 136.036 87.0175C136.036 87.0175 133.944 87.8703 133.944 87.9651C134.23 88.818 134.705 89.5761 135.275 90.2394C135.846 90.9028 136.511 91.3766 137.367 91.7556C138.223 92.1347 139.174 92.3242 140.125 92.3242C141.075 92.3242 142.026 92.1347 142.882 91.6609C143.738 91.2818 144.403 90.6185 144.879 89.8604C145.354 89.0075 145.639 88.0599 145.639 87.1122C145.639 86.1646 145.449 85.3117 145.164 84.6484C144.784 83.8903 144.308 83.3217 143.643 82.7531C142.977 82.1845 142.026 81.616 140.885 81.1421L138.603 80.005C138.033 79.7207 137.652 79.4364 137.462 79.0574C137.177 78.6783 137.082 78.2993 137.082 77.8254C137.082 77.3516 137.177 76.8778 137.462 76.4988C137.748 76.1197 138.128 75.7407 138.508 75.5511C138.889 75.2668 139.269 75.1721 139.934 75.1721C140.6 75.1721 141.266 75.2668 141.741 75.6459C142.216 75.9302 142.692 76.4988 143.072 77.2569C143.072 77.2569 144.974 76.1197 144.974 76.0249C144.403 75.0773 143.738 74.3192 142.882 73.7506C142.026 73.182 140.79 72.8978 139.839 72.8978C138.889 72.8978 138.033 73.182 137.272 73.5611C136.511 74.0349 135.941 74.6035 135.466 75.2668C134.99 76.0249 134.8 76.783 134.8 77.6359C134.8 78.4888 134.99 79.2469 135.37 79.8155C135.751 80.4788 136.226 80.9526 136.892 81.4264C137.557 81.9003 138.508 82.3741 139.554 82.8479C140.505 83.2269 141.266 83.7008 141.836 84.0798ZM128.525 73.5611L119.872 91.6609H122.154L130.711 73.5611H128.525ZM117.97 75.5511L117.02 73.5611L116.925 73.4663H114.738L120.823 86.2594L121.964 83.985L117.97 75.5511ZM105.8 84.0798C106.37 84.4589 106.751 84.8379 106.941 85.3117V85.4065C107.226 85.8803 107.321 86.4489 107.321 87.0175C107.321 87.586 107.226 88.1546 106.941 88.6284C106.656 89.1023 106.275 89.4813 105.8 89.7656C105.325 90.0499 105.039 90.1446 104.089 90.1446C103.138 90.1446 102.282 89.9551 101.616 89.3865C100.856 88.818 100.38 88.0599 100 87.0175C100 87.0175 97.9082 87.8703 97.9082 87.9651C98.1934 88.818 98.6689 89.5761 99.2393 90.2394C99.8098 90.9028 100.475 91.3766 101.331 91.7556C102.187 92.1347 103.138 92.3242 104.089 92.3242C105.039 92.3242 105.99 92.1347 106.846 91.6609C107.702 91.2818 108.367 90.6185 108.843 89.8604C109.318 89.0075 109.603 88.0599 109.603 87.1122C109.603 86.1646 109.413 85.3117 109.128 84.6484C108.748 83.8903 108.272 83.3217 107.607 82.7531C106.941 82.1845 105.99 81.616 104.849 81.1421L102.567 80.005C101.997 79.7207 101.616 79.4364 101.426 79.0574C101.141 78.6783 101.046 78.2993 101.046 77.8254C101.046 77.3516 101.141 76.8778 101.426 76.4988C101.711 76.1197 102.092 75.7407 102.472 75.5511C102.852 75.2668 103.233 75.1721 103.898 75.1721C104.564 75.1721 105.23 75.2668 105.705 75.6459C106.18 75.9302 106.656 76.4988 107.036 77.2569C107.036 77.2569 108.938 76.1197 108.938 76.0249C108.367 75.0773 107.702 74.3192 106.846 73.7506C105.99 73.182 104.754 72.8978 103.803 72.8978C102.852 72.8978 101.997 73.182 101.236 73.5611C100.475 74.0349 99.9049 74.6035 99.4295 75.2668C98.9541 76.0249 98.7639 76.783 98.7639 77.6359C98.7639 78.4888 98.9541 79.2469 99.3344 79.8155C99.7147 80.4788 100.19 80.9526 100.856 81.4264C101.521 81.9003 102.472 82.3741 103.518 82.8479C104.469 83.2269 105.23 83.7008 105.8 84.0798ZM93.965 91.5661H91.823L90.8721 89.5761L85.6426 78.6783L86.7836 76.404L93.965 91.5661ZM86.5934 73.4663H84.3115L75.7541 91.5661H77.941L86.5934 73.4663ZM63.8689 72.8978C58.5443 72.8978 54.2656 77.1621 54.2656 82.4688C54.2656 87.7756 58.5443 92.0399 63.8689 92.0399C69.1934 92.0399 73.4721 87.7756 73.4721 82.4688C73.4721 77.1621 69.1934 72.8978 63.8689 72.8978ZM49.4164 142.643C49.4164 147.571 52.5541 152.499 58.3541 156.763C58.0149 156.115 57.726 155.903 57.4877 155.727C56.9243 155.313 56.6426 155.106 56.6426 149.845C56.6426 142.359 62.5377 135.631 71.7607 131.082C71.618 130.988 71.4754 130.916 71.3328 130.845C71.1902 130.774 71.0475 130.703 70.9049 130.608C68.718 129.282 66.7213 127.955 64.7246 126.439L63.2984 125.302C63.2234 125.339 63.1631 125.391 63.106 125.441C63.0184 125.517 62.9381 125.586 62.8229 125.586C54.1705 130.514 49.4164 136.484 49.4164 142.643ZM79.6525 158.564C79.6525 161.501 86.8787 167.187 100 167.187C113.121 167.187 120.348 161.501 120.348 158.564C120.348 155.626 113.121 149.94 100 149.94C86.8787 149.94 79.6525 155.626 79.6525 158.564ZM127.576 160.538C127.67 159.88 127.764 159.222 127.764 158.564C127.764 149.751 115.308 142.549 99.9049 142.549C84.5016 142.549 72.0459 149.751 72.0459 158.564C72.0459 159.298 72.0459 159.919 72.046 160.441C67.0243 157.43 63.9639 153.777 63.9639 149.94C63.9639 144.065 71.0951 138.569 81.2688 135.347C81.6491 135.489 82.0294 135.607 82.4097 135.726C82.7901 135.844 83.1705 135.963 83.5508 136.105C84.977 136.484 86.4984 136.863 87.9246 137.147C88.2098 137.147 88.4951 137.242 88.7803 137.337C89.559 137.509 90.4163 137.603 91.2091 137.69C91.2877 137.699 91.3655 137.707 91.4426 137.716C91.7278 137.716 92.0132 137.716 92.3934 137.81C94.4853 138.095 96.6721 138.19 98.859 138.19C102.377 138.19 105.8 137.905 109.128 137.337H109.413C111.125 137.052 112.836 136.673 114.452 136.2C114.643 136.2 114.738 136.2 114.928 136.105C115.403 135.963 115.855 135.821 116.306 135.678C116.758 135.536 117.21 135.394 117.685 135.252C128.144 138.379 135.656 144.065 135.656 150.035C135.656 155.918 132.609 157.66 127.608 160.52L127.576 160.538ZM72.1969 160.53C72.209 160.5 72.222 160.505 72.2361 160.554C72.223 160.546 72.2099 160.538 72.1969 160.53ZM143.262 149.845C143.262 152.214 142.692 154.584 141.551 156.763C147.351 152.499 150.489 148.803 150.489 142.643C150.489 136.484 145.734 130.419 137.082 125.586L135.941 125.017C133.374 127.007 130.711 128.903 127.859 130.514C127.811 130.514 127.74 130.561 127.669 130.608C127.598 130.656 127.526 130.703 127.479 130.703C137.082 135.252 143.262 142.17 143.262 149.845Z" fill="#00A84F"/>
</svg>
