<svg width="32" height="32" viewBox="0 0 32 32" fill="none" xmlns="http://www.w3.org/2000/svg">
<rect width="32" height="32" rx="16" fill="white"/>
<path d="M10.64 16.0801C13.04 14.8001 14.88 12.9601 16.08 10.4801C17.28 12.8801 19.12 14.7201 21.52 15.9201C19.12 17.2001 17.28 19.0401 16.08 21.5201C14.88 19.1201 13.04 17.2801 10.64 16.0801Z" fill="#FF0000"/>
<path fill-rule="evenodd" clip-rule="evenodd" d="M0 16C0 7.2 7.2 0 16 0C24.8 0 32 7.2 32 16C32 24.8 24.8 32 16 32C7.2 32 0 24.8 0 16ZM16 30.16V24.16C22.16 24.16 27.12 19.2 27.12 13.04C27.12 6.88 22.16 1.92 16 1.92V7.92C9.84 7.92 4.88 12.88 4.88 19.04C4.88 25.2 9.84 30.16 16 30.16Z" fill="#FF0000"/>
</svg>
