<svg width="200" height="200" viewBox="0 0 200 200" fill="none" xmlns="http://www.w3.org/2000/svg">
<path d="M100 200C155.228 200 200 155.228 200 100C200 44.7715 155.228 0 100 0C44.7715 0 0 44.7715 0 100C0 155.228 44.7715 200 100 200Z" fill="#17181D"/>
<path d="M54.9614 100L55.0335 126.442L77.5015 139.663V155.144L41.8845 134.255V92.2676L54.9614 100ZM54.9614 73.5576V88.9663L41.8765 81.2259V65.8173L54.9614 58.0769L68.1104 65.8173L54.9614 73.5576ZM86.8845 65.8173L99.9694 58.0769L113.118 65.8173L99.9694 73.5576L86.8845 65.8173Z" fill="#F1B90C"/>
<path d="M64.417 120.961V105.481L77.5019 113.221V128.63L64.417 120.961ZM86.8849 145.208L99.9699 152.949L113.119 145.208V160.617L99.9699 168.357L86.8849 160.617V145.208ZM131.885 65.8173L144.97 58.0769L158.119 65.8173V81.2259L144.97 88.9663V73.5576L131.885 65.8173ZM144.97 126.442L145.042 100L158.127 92.2596V134.247L122.51 155.136V139.655L144.97 126.442Z" fill="#F1B90C"/>
<path d="M135.586 120.962L122.501 128.63V113.221L135.586 105.481V120.962Z" fill="#F1B90C"/>
<path d="M135.587 79.0384L135.659 94.5191L113.127 107.74V134.247L100.042 141.915L86.9571 134.247V107.74L64.425 94.5191V79.0384L77.566 71.298L99.9619 84.5832L122.494 71.298L135.643 79.0384H135.587ZM64.417 52.6041L99.9699 31.6425L135.587 52.6041L122.502 60.3445L99.9699 47.0592L77.5019 60.3445L64.417 52.6041Z" fill="#F1B90C"/>
</svg>
