<svg width="32" height="32" viewBox="0 0 32 32" fill="none" xmlns="http://www.w3.org/2000/svg">
<rect width="32" height="32" rx="16" fill="url(#paint0_radial_814_227)"/>
<path fill-rule="evenodd" clip-rule="evenodd" d="M15.9745 5L16.0267 5C18.7831 5.0064 21.3012 6.02599 23.2275 7.70564C23.3639 7.82466 23.2775 8.04308 23.0963 8.04308H8.90487C8.72369 8.04308 8.63724 7.82466 8.77373 7.70564C10.7 6.02599 13.2181 5.0064 15.9745 5Z" fill="white"/>
<path fill-rule="evenodd" clip-rule="evenodd" d="M11.7242 18.97C11.6456 18.858 11.5189 18.7876 11.382 18.7876H5.69555C5.53081 18.7876 5.41071 18.9436 5.45745 19.1014C6.80377 23.6454 11.0146 26.9608 16.0007 26.9608C20.9868 26.9608 25.1977 23.6454 26.544 19.1014C26.5907 18.9436 26.4706 18.7876 26.3059 18.7876H20.6196C20.4826 18.7876 20.356 18.858 20.2773 18.97C19.3333 20.3145 17.7698 21.1935 16.0008 21.1935C14.2318 21.1935 12.6683 20.3145 11.7242 18.97Z" fill="white"/>
<path fill-rule="evenodd" clip-rule="evenodd" d="M20.1398 12.8046C20.2403 12.9351 20.3934 13.017 20.5583 13.017H26.2574C26.4236 13.017 26.544 12.8585 26.4944 12.7C26.0637 11.3239 25.3693 10.0642 24.4701 8.97995C24.3953 8.8897 24.2835 8.83875 24.1661 8.83875L7.833 8.83875C7.71567 8.83875 7.60387 8.8897 7.52903 8.97995C6.62986 10.0642 5.93536 11.3239 5.50469 12.7C5.45508 12.8585 5.57547 13.017 5.74175 13.017H11.4408C11.6057 13.017 11.7588 12.9351 11.8593 12.8046C12.8135 11.5652 14.3131 10.7664 15.9995 10.7664C17.686 10.7664 19.1856 11.5652 20.1398 12.8046Z" fill="white"/>
<path fill-rule="evenodd" clip-rule="evenodd" d="M21.0433 17.9932C20.9357 17.9932 20.8625 17.8836 20.8997 17.7828C21.1066 17.2215 21.2196 16.6148 21.2196 15.9818C21.2196 15.2918 21.0853 14.633 20.8415 14.0302C20.8004 13.9286 20.8736 13.8149 20.9834 13.8149H26.5736C26.6933 13.8149 26.7967 13.8993 26.818 14.0169C26.9333 14.6545 26.9935 15.3112 26.9935 15.982C26.9935 16.597 26.9429 17.2002 26.8456 17.7877C26.8259 17.907 26.7217 17.9932 26.6006 17.9932H21.0433ZM11.1 17.7828C11.1371 17.8836 11.0639 17.9932 10.9563 17.9932L5.39904 17.9932C5.27796 17.9932 5.1738 17.907 5.15403 17.7877C5.05672 17.2002 5.0061 16.597 5.0061 15.982C5.0061 15.3112 5.06632 14.6545 5.18165 14.0169C5.20294 13.8993 5.30632 13.8149 5.42603 13.8149H11.0163C11.1261 13.8149 11.1993 13.9286 11.1582 14.0302C10.9144 14.633 10.7801 15.2917 10.7801 15.9818C10.7801 16.6148 10.893 17.2215 11.1 17.7828Z" fill="white"/>
<defs>
<radialGradient id="paint0_radial_814_227" cx="0" cy="0" r="1" gradientUnits="userSpaceOnUse" gradientTransform="translate(6.5 16) rotate(-33.3885) scale(26.3486)">
<stop stop-color="#8D67DE"/>
<stop offset="0.478447" stop-color="#68279B"/>
<stop offset="1" stop-color="#A75F53"/>
</radialGradient>
</defs>
</svg>
