<svg width="200" height="200" viewBox="0 0 200 200" fill="none" xmlns="http://www.w3.org/2000/svg">
<rect width="200" height="200" rx="100" fill="#5600C2"/>
<path d="M36 75.4492V57.0975C36 51.5207 41.417 47 48.0949 47H70.0833C76.7678 47 82.1848 51.5207 82.1848 57.0975V71.9174C82.1848 74.4738 83.399 76.9224 85.5605 78.7321C90.0702 82.4925 97.3819 82.4925 101.892 78.7321L136.368 49.96C138.637 48.0629 141.712 47 144.921 47H150.905C157.59 47 163 51.5207 163 57.0975V62.089C163 64.7665 161.726 67.3362 159.458 69.2266L124.981 98.0054C120.478 101.766 120.478 107.874 124.981 111.635C127.149 113.444 130.084 114.46 133.146 114.46H150.905C157.59 114.46 163 118.981 163 124.551V142.909C163 148.479 157.59 153 150.905 153H128.917C122.232 153 116.822 148.479 116.822 142.909V128.083C116.822 125.533 115.601 123.078 113.44 121.275C108.93 117.507 101.618 117.507 97.1084 121.275L62.6382 150.04C60.37 151.937 57.2879 153 54.0857 153H48.0949C41.417 153 36 148.479 36 142.903V137.911C36 135.234 37.2742 132.664 39.5424 130.767L74.0193 101.995C78.5223 98.2341 78.5223 92.1326 74.0193 88.3654C71.8511 86.5625 68.9158 85.5467 65.8537 85.5467H48.0949C41.417 85.5467 36 81.026 36 75.4492Z" fill="white"/>
</svg>
