<svg width="200" height="200" viewBox="0 0 200 200" fill="none" xmlns="http://www.w3.org/2000/svg">
<path d="M100 200C155.228 200 200 155.228 200 100C200 44.7715 155.228 0 100 0C44.7715 0 0 44.7715 0 100C0 155.228 44.7715 200 100 200Z" fill="#FFEBD2"/>
<path d="M152.317 122.166V49.9119C152.22 43.8661 147.518 39 141.617 39H68.0136C52.1319 39.2458 39.3689 52.5661 39.3689 68.8848C39.3689 74.3899 40.8083 79.1085 43.0155 83.2373C44.8867 86.678 47.8136 89.9221 50.6924 92.3307C51.5081 93.0185 51.1243 92.7239 53.6193 94.2968C57.074 96.4592 61.0084 97.5406 61.0084 97.5406L60.9604 140.746C61.0564 142.81 61.2483 144.776 61.7761 146.595C63.4075 152.69 67.5338 157.359 73.1477 159.62C75.4987 160.554 78.1377 161.193 80.9686 161.243L139.746 161.439C151.453 161.439 160.953 151.707 160.953 139.664C161.001 132.537 157.547 126.148 152.317 122.166Z" fill="#FFEEDA"/>
<path d="M153.755 140.205C153.516 147.922 147.326 154.115 139.745 154.115L99.2971 153.968C102.512 150.134 104.479 145.169 104.479 139.763C104.479 131.259 99.5369 125.41 99.5369 125.41H139.793C147.518 125.41 153.803 131.849 153.803 139.763L153.755 140.205Z" fill="#EBC28E"/>
<path d="M54.531 86.2357C49.8768 81.7136 46.614 75.8644 46.614 68.9339V68.1967C46.9979 56.3509 56.4982 46.8153 68.0617 46.4712H141.665C143.584 46.5695 145.12 47.9458 145.12 49.961V113.761C146.799 114.056 147.614 114.302 149.246 114.892C150.542 115.383 152.317 116.415 152.317 116.415V49.961C152.22 43.9153 147.518 39.0492 141.617 39.0492H68.0136C52.1319 39.295 39.3689 52.6153 39.3689 68.9339C39.3689 78.4204 43.5912 86.5306 50.5005 92.2321C50.9803 92.6257 51.4122 93.1172 52.6597 93.1172C54.8188 93.1172 56.3542 91.3474 56.2583 89.4306C56.2103 87.8085 55.5386 87.2187 54.531 86.2357Z" fill="#101010"/>
<path d="M139.746 117.939H82.0243C78.1379 117.988 75.0191 121.183 75.0191 125.164V133.667C75.115 137.6 78.3778 140.942 82.2643 140.942H86.5346V133.667H82.2643V125.361C82.2643 125.361 83.3199 125.361 84.6154 125.361C91.9085 125.361 97.2826 132.291 97.2826 139.714C97.2826 146.3 91.4286 154.705 81.6405 154.017C72.9559 153.427 68.2538 145.513 68.2538 139.714V67.6558C68.2538 64.4117 65.6628 61.7574 62.496 61.7574H56.7383V69.1304H61.0086V139.762C60.7687 154.115 70.9887 161.341 81.6405 161.341L139.794 161.537C151.501 161.537 161.002 151.805 161.002 139.762C161.002 127.72 151.453 117.939 139.746 117.939ZM153.756 140.205C153.516 147.922 147.327 154.115 139.746 154.115L99.2976 153.968C102.513 150.134 104.48 145.169 104.48 139.762C104.48 131.259 99.5374 125.41 99.5374 125.41H139.794C147.518 125.41 153.804 131.849 153.804 139.762L153.756 140.205Z" fill="#101010"/>
<path d="M124.199 70.4589H80.6799V63.0861H124.199C126.166 63.0861 127.798 64.7081 127.798 66.7725C127.798 68.7877 126.214 70.4589 124.199 70.4589Z" fill="#101010"/>
<path d="M124.199 105.159H80.6799V97.7858H124.199C126.166 97.7858 127.798 99.4082 127.798 101.473C127.798 103.488 126.214 105.159 124.199 105.159Z" fill="#101010"/>
<path d="M131.876 87.8085H80.6799V80.4357H131.828C133.795 80.4357 135.426 82.0577 135.426 84.1221C135.474 86.1373 133.843 87.8085 131.876 87.8085Z" fill="#101010"/>
</svg>
