<svg width="32" height="32" viewBox="0 0 32 32" fill="none" xmlns="http://www.w3.org/2000/svg">
<rect width="32" height="32" rx="16" fill="white"/>
<path fill-rule="evenodd" clip-rule="evenodd" d="M15.9592 32C20.7124 32 24.9828 29.9379 27.92 26.6616C26.5537 25.4771 24.4946 25.4052 23.0399 26.5759L22.762 26.7996C20.0986 28.9433 16.2177 28.6267 13.9389 26.0799C12.696 24.6909 10.5674 24.5491 9.15032 25.7609L5.94624 28.5007C8.69052 30.6906 12.1716 32 15.9592 32ZM21.1601 24.2523C23.697 22.2104 27.2627 22.2837 29.7026 24.2557C31.161 21.8455 32 19.0205 32 16C32 12.6437 30.964 9.52886 29.1936 6.95615C28.0522 6.71371 26.8151 6.99687 25.876 7.82695L25.6087 8.0632C23.0473 10.3272 19.156 10.1896 16.7617 7.75043C15.4559 6.42011 13.323 6.37643 11.9635 7.65218L8.23493 11.1511L6.18375 8.9764L9.91238 5.47748C12.459 3.08772 16.4545 3.16955 18.9006 5.66159C20.1787 6.96372 22.2561 7.03714 23.6234 5.82853L23.8907 5.59228C24.7207 4.85863 25.681 4.36406 26.6864 4.10394C23.8446 1.55266 20.0837 0 15.9592 0C7.8163 0 1.09054 6.05211 0.0563325 13.8927C2.52966 12.7088 5.5805 13.1644 7.59715 15.2243C8.87026 16.5247 10.9202 16.6619 12.3561 15.5429L14.4409 13.9184C17.0609 11.8767 20.7646 11.9755 23.2714 14.1541L27.3302 17.6812L25.3638 19.9324L21.3051 16.4053C19.8796 15.1666 17.7736 15.1103 16.2837 16.2713L14.199 17.8958C11.5608 19.9517 7.79451 19.6995 5.45551 17.3103C4.09535 15.921 1.87081 15.8725 0.451131 17.2013L0 17.6235C0.337616 20.9653 1.7062 24.0036 3.78368 26.4172L7.202 23.4941C9.85652 21.2241 13.8439 21.4897 16.1722 24.0917C17.3887 25.4513 19.4604 25.6203 20.8822 24.4759L21.1601 24.2523Z" fill="url(#paint0_linear_727_184)"/>
<defs>
<linearGradient id="paint0_linear_727_184" x1="15.9732" y1="31.8651" x2="15.9732" y2="0" gradientUnits="userSpaceOnUse">
<stop stop-color="#B52A2A"/>
<stop offset="1" stop-color="#780000"/>
</linearGradient>
</defs>
</svg>
