<svg width="200" height="200" viewBox="0 0 200 200" fill="none" xmlns="http://www.w3.org/2000/svg">
<rect width="200" height="200" rx="100" fill="#0B0D12"/>
<path d="M119.821 100.503L118.146 94.8622L143.774 94.8233C143.972 94.8233 144.142 94.7543 144.285 94.6164L150.145 88.7495C150.296 88.5985 150.479 88.5231 150.695 88.5231H178.283C178.377 88.5229 178.471 88.5012 178.556 88.4598C178.641 88.4183 178.716 88.3581 178.774 88.2837C180.137 86.5157 181.802 85.7869 183.768 86.0974C189.758 87.0353 190.01 95.6125 184.053 96.7315C181.935 97.1326 180.172 96.4167 178.761 94.584C178.636 94.4245 178.472 94.3447 178.27 94.3447H153.282C153.071 94.3447 152.888 94.4201 152.732 94.5711L147.034 100.27C146.888 100.415 146.693 100.496 146.49 100.496L119.821 100.503Z" fill="#6FBB3F"/>
<path d="M122.085 112.126L121.154 106.473H158.781C158.893 106.473 159.003 106.446 159.102 106.394C159.201 106.342 159.286 106.267 159.35 106.175C162.824 101.188 170.379 104.209 169.156 110.082C168.257 114.371 162.804 115.859 159.874 112.379C159.809 112.302 159.729 112.24 159.638 112.197C159.548 112.155 159.449 112.133 159.35 112.133L122.085 112.126Z" fill="#6FBB3F"/>
<path d="M122.473 117.139C122.628 117.689 146.426 117.469 148.923 117.463C149.023 117.463 149.122 117.483 149.215 117.522C149.307 117.561 149.39 117.618 149.46 117.689L155.32 123.55C155.471 123.701 155.654 123.776 155.87 123.776H169.855C170.057 123.776 170.225 123.698 170.359 123.543C176.071 116.887 184.26 126.344 177.882 130.898C175.368 132.696 172.867 132.336 170.379 129.818C170.236 129.671 170.062 129.598 169.855 129.598H153.47C153.241 129.598 153.045 129.516 152.881 129.352L146.917 123.394C146.752 123.229 146.528 123.136 146.296 123.136L121.27 123.129L122.35 117.385C122.234 117.277 122.275 117.195 122.473 117.139Z" fill="#6FBB3F"/>
<path d="M116.918 89.8581C115.952 88.4647 115.776 87.2032 116.432 85.5336C120.577 75.0017 123.921 61.6831 119.776 50.8625C119.321 49.6762 118.407 49.1553 117.214 48.898C117.012 48.8528 116.798 48.8636 116.596 48.9293C107.624 51.804 99.7694 60.1077 93.9714 67.4888C93.9189 67.5538 93.8487 67.6018 93.7699 67.6264C93.6911 67.6511 93.6074 67.6512 93.5297 67.6269C82.2784 64.3966 71.044 64.4259 59.8264 67.7148C59.6034 67.7775 59.4205 67.719 59.2775 67.539C56.1397 63.5932 52.3774 59.6391 47.9905 55.6765C45.9147 53.8062 35.8769 46.2116 33.7192 50.1784C28.2366 60.2897 33.6246 78.3722 37.5741 87.7178C37.6582 87.9145 37.6561 88.1091 37.5678 88.3015C33.6435 97.2643 31.3848 106.618 30.7918 116.364C31.061 120 32.0326 123.071 33.7066 125.577C43.1072 139.693 61.6813 151.813 79.5361 150.382C95.3152 149.12 110.457 139.279 119.517 126.343L125.978 126.4C126.221 126.4 126.428 126.485 126.596 126.657L135.725 135.733C135.799 135.808 135.888 135.868 135.987 135.909C136.085 135.95 136.191 135.971 136.299 135.971H154.684C154.907 135.971 155.088 135.883 155.227 135.708C157.725 132.544 162.911 133.015 164.324 136.712C166.488 142.392 159.214 146.641 155.365 141.877C155.302 141.797 155.222 141.733 155.13 141.688C155.038 141.643 154.938 141.62 154.835 141.62H133.807C133.572 141.62 133.372 141.538 133.208 141.375C130.259 138.476 127.326 135.563 124.407 132.638C123.574 131.797 122.823 131.795 122.154 132.632C112.741 144.428 100.861 151.93 86.514 155.139C65.5487 159.828 44.2239 148.367 31.2713 132.08C27.7171 127.611 25.6267 122.826 25 117.726V112.566C26.0683 104.11 28.1335 95.9212 31.1956 88.0003C31.2713 87.8078 31.2692 87.6153 31.1893 87.4228C28.3123 80.1924 26.489 72.7213 25.7192 65.0096C25.0315 58.1306 26.0789 40.1925 38.2681 43.3747C47.3785 45.7472 55.5677 53.7434 61.4037 60.7918C61.4641 60.8652 61.5441 60.9201 61.6345 60.9501C61.725 60.9801 61.8221 60.984 61.9147 60.9613C71.7022 58.7185 81.5024 58.6767 91.3152 60.8358C91.42 60.8586 91.5296 60.852 91.6319 60.8166C91.7342 60.7811 91.8254 60.7183 91.8956 60.6349C97.3215 54.0886 109.927 41.3662 119.195 43.2303C121.811 43.7576 123.742 45.3288 124.987 47.9439C130.034 58.5135 126.873 73.2694 123.214 83.8829C123.143 84.0879 123.216 84.1905 123.435 84.1905H127.29C127.5 84.1905 127.679 84.1172 127.826 83.9708L137.145 74.7005C137.219 74.6249 137.307 74.5648 137.406 74.5239C137.505 74.4829 137.611 74.4618 137.719 74.462H146.489C146.707 74.462 146.888 74.3783 147.031 74.2109C149.883 70.8656 155.649 71.7882 156.343 76.2194C157.208 81.7113 150.766 84.793 147 80.3556C146.934 80.2789 146.853 80.2172 146.762 80.175C146.67 80.1327 146.57 80.1108 146.47 80.1108H140.085C139.862 80.1108 139.67 80.1903 139.511 80.3493L130.179 89.6259C130.11 89.6974 130.026 89.7543 129.933 89.7931C129.839 89.8319 129.739 89.8519 129.637 89.8518L116.918 89.8581Z" fill="#6FBB3F"/>
<path d="M118.476 89.1223L120.326 93.9866L122.001 99.6271L123.333 105.598L124.265 111.251L124.653 116.264C124.455 116.32 124.414 116.402 124.53 116.51C113.747 113.418 104.019 114.408 95.9525 122.5C95.9169 122.535 95.8725 122.561 95.8239 122.575C95.7752 122.588 95.7239 122.589 95.675 122.576C95.6261 122.564 95.5812 122.539 95.5448 122.504C95.5084 122.469 95.4817 122.425 95.4674 122.377C89.9692 104.647 64.7034 104.757 59.1211 122.299C59.1001 122.363 59.0628 122.421 59.013 122.467C58.9631 122.512 58.9026 122.544 58.8372 122.559C58.7718 122.574 58.7039 122.572 58.6403 122.552C58.5766 122.533 58.5194 122.497 58.4743 122.448C50.6863 114.188 40.686 113.735 30.1748 116.439C30.7828 106.395 33.0985 96.7551 37.1219 87.5182C37.2125 87.3198 37.2146 87.1193 37.1284 86.9166C33.0791 77.2851 27.5551 58.6495 33.1762 48.2288C35.3884 44.1407 45.6797 51.9675 47.8078 53.8951C52.3055 57.9789 56.1629 62.054 59.3799 66.1205C59.5265 66.306 59.7141 66.3663 59.9426 66.3016C71.4435 62.9122 82.9617 62.882 94.4971 66.2111C94.5767 66.2362 94.6626 66.236 94.7434 66.2106C94.8241 66.1852 94.8961 66.1358 94.9499 66.0688C100.894 58.4619 108.948 49.9041 118.146 46.9416C118.353 46.8738 118.572 46.8627 118.78 46.9092C120.002 47.1744 120.94 47.7113 121.406 48.9338C125.656 60.0855 122.227 73.8115 117.978 84.6656C117.305 86.3862 117.486 87.6863 118.476 89.1223ZM52.9826 66.4763C48.5129 61.2304 43.2023 55.9068 37.4001 52.6726C36.8136 52.3449 36.4686 52.5152 36.3651 53.1836C35.0714 61.7543 36.7532 70.4673 39.6317 78.5594C39.705 78.7577 39.802 78.7728 39.9228 78.6046C43.3424 73.805 47.6504 70.0016 52.8467 67.1943C53.1874 67.0132 53.2327 66.7738 52.9826 66.4763ZM101.431 66.8579C106.729 69.814 110.992 73.2488 114.426 78.113C114.534 78.264 114.62 78.251 114.685 78.0742C117.225 71.0624 118.465 63.8307 118.405 56.379C118.392 55.2471 117.809 54.0633 117.764 52.8149C117.76 52.7301 117.734 52.6477 117.689 52.5761C117.643 52.5044 117.579 52.4461 117.504 52.4068C117.429 52.3675 117.344 52.3486 117.259 52.3522C117.175 52.3557 117.092 52.3814 117.02 52.4268C111.022 56.2259 105.8 60.894 101.354 66.431C101.211 66.6078 101.237 66.7501 101.431 66.8579ZM68.2611 85.9916C64.781 83.4948 56.178 82.8674 56.1845 89.1029C56.1845 90.7653 57.1547 91.4381 58.6425 91.755C61.1328 92.279 66.9738 93.799 68.9079 92.1172C70.5186 90.7201 70.0464 87.2724 68.2611 85.9916ZM97.3691 85.6682C94.1413 83.5983 88.5979 83.4819 86.0687 86.7161C84.4581 88.7666 84.775 93.1393 88.4232 92.9129C90.5772 92.777 96.7675 92.3566 98.2682 90.8041C99.5813 89.4458 98.8698 86.6255 97.3691 85.6682ZM67.6789 104.64C66.7345 100.209 55.9193 95.5649 51.9088 94.1483C50.9903 93.8206 50.4146 94.1311 50.1817 95.0798C49.7095 97.0074 48.8169 100.552 50.9062 101.891C53.4354 103.508 65.8742 109.09 67.6207 105.196C67.6983 105.015 67.7177 104.83 67.6789 104.64ZM104.329 94.1871C102.13 93.6761 95.3251 97.5701 93.2422 98.7603C90.9718 100.061 87.1813 102.525 87.3107 105.268C87.3193 105.505 87.4314 105.677 87.647 105.785C88.9752 106.462 90.547 106.628 92.3625 106.283C94.9693 105.785 105.726 102.874 105.468 99.9441C105.312 98.1933 105.123 96.4834 104.898 94.8146C104.878 94.6641 104.812 94.5236 104.711 94.4115C104.609 94.2995 104.476 94.2213 104.329 94.1871Z" fill="#F68D36"/>
<path d="M37.3995 52.6727C43.2017 55.907 48.5123 61.2305 52.982 66.4764C53.2321 66.774 53.1868 67.0133 52.8462 67.1944C47.6498 70.0017 43.3419 73.8052 39.9222 78.6048C39.8015 78.7729 39.7044 78.7578 39.6311 78.5595C36.7527 70.4674 35.0709 61.7544 36.3645 53.1837C36.468 52.5153 36.813 52.345 37.3995 52.6727Z" fill="#E65D02"/>
<path d="M114.426 78.1131C110.991 73.2488 106.729 69.8141 101.431 66.858C101.237 66.7502 101.211 66.6079 101.353 66.4311C105.799 60.8941 111.022 56.226 117.02 52.4269C117.092 52.3815 117.174 52.3557 117.259 52.3522C117.344 52.3487 117.428 52.3675 117.504 52.4068C117.579 52.4461 117.643 52.5045 117.688 52.5761C117.734 52.6478 117.76 52.7301 117.764 52.815C117.809 54.0634 118.391 55.2471 118.404 56.3791C118.465 63.8308 117.225 71.0625 114.685 78.0743C114.62 78.2511 114.534 78.264 114.426 78.1131Z" fill="#E65D02"/>
<path d="M68.2612 85.9916C70.0465 87.2724 70.5187 90.7201 68.908 92.1172C66.974 93.799 61.1329 92.2789 58.6426 91.755C57.1548 91.438 56.1846 90.7653 56.1846 89.1029C56.1781 82.8673 64.7811 83.4948 68.2612 85.9916Z" fill="white"/>
<path d="M97.369 85.6683C98.8697 86.6256 99.5812 89.4459 98.2681 90.8043C96.7674 92.3567 90.5771 92.7771 88.4231 92.913C84.7749 93.1394 84.458 88.7667 86.0686 86.7162C88.5978 83.482 94.1413 83.5984 97.369 85.6683Z" fill="white"/>
<path d="M51.9089 94.1484C55.9194 95.565 66.7346 100.209 67.679 104.64C67.7179 104.83 67.6984 105.015 67.6208 105.197C65.8743 109.091 53.4355 103.508 50.9063 101.891C48.817 100.552 49.7097 97.0075 50.1819 95.0799C50.4147 94.1312 50.9904 93.8207 51.9089 94.1484Z" fill="#202740"/>
<path d="M104.329 94.1873C104.476 94.2214 104.609 94.2997 104.71 94.4117C104.812 94.5237 104.877 94.6643 104.898 94.8148C105.122 96.4836 105.312 98.1934 105.467 99.9442C105.726 102.874 94.969 105.785 92.3622 106.283C90.5467 106.628 88.9749 106.462 87.6467 105.785C87.4311 105.677 87.319 105.505 87.3104 105.268C87.181 102.525 90.9715 100.061 93.2419 98.7605C95.3248 97.5703 102.13 93.6763 104.329 94.1873Z" fill="#202740"/>
<path d="M124.53 116.377L123.45 122.121L121.141 126.591C111.852 139.923 96.3277 150.065 80.1501 151.365C61.8444 152.84 42.8012 140.349 33.1632 125.802C31.4469 123.219 30.4508 120.054 30.1748 116.306C40.686 113.602 50.6863 114.055 58.4743 122.315C58.5194 122.364 58.5766 122.4 58.6403 122.42C58.7039 122.44 58.7718 122.442 58.8372 122.427C58.9026 122.412 58.9631 122.38 59.013 122.334C59.0628 122.289 59.1001 122.231 59.1211 122.167C64.7034 104.624 89.9692 104.514 95.4674 122.244C95.4817 122.293 95.5084 122.336 95.5448 122.371C95.5812 122.406 95.6261 122.431 95.675 122.444C95.7239 122.456 95.7752 122.456 95.8239 122.442C95.8725 122.429 95.9169 122.403 95.9525 122.367C104.019 114.275 113.747 113.285 124.53 116.377ZM78.7335 131.494V128.622C78.7335 128.437 78.824 128.329 79.0052 128.299C82.1359 127.734 84.0635 125.897 84.788 122.788C85.2343 120.879 85.3766 117.154 83.0609 117.134C79.7059 117.104 76.3596 117.095 73.0218 117.108C70.732 117.121 69.6971 117.807 69.7294 120.161C69.8027 124.629 71.7993 127.395 75.7192 128.46C75.896 128.508 75.9844 128.624 75.9844 128.81V131.339C75.9844 131.585 75.8874 131.783 75.6933 131.934L73.9921 133.26C73.8369 133.381 73.6601 133.441 73.4617 133.441H64.8198C64.5223 133.441 64.4037 133.586 64.4641 133.875L65.1303 136.915C65.1562 137.044 65.2295 137.135 65.3503 137.186L66.1135 137.529C66.3291 137.624 66.4801 137.779 66.5663 137.995L67.8859 141.359C67.9721 141.566 68.1037 141.602 68.2805 141.469C69.7423 140.362 69.1084 137.613 69.1796 135.944C69.1925 135.686 69.3262 135.574 69.5806 135.608C74.7942 136.294 80.0013 136.292 85.2019 135.602C85.4434 135.567 85.5814 135.671 85.6159 135.912C85.8941 137.781 85.0726 140.22 86.4698 141.462C86.6423 141.617 86.7716 141.587 86.8579 141.371L88.1904 137.937C88.2982 137.656 88.4987 137.508 88.7919 137.49C88.8997 137.482 89.0032 137.454 89.1024 137.406C89.318 137.311 89.4582 137.148 89.5229 136.915L90.3767 133.9C90.3917 133.847 90.394 133.79 90.3835 133.735C90.3729 133.68 90.3499 133.629 90.316 133.584C90.2822 133.54 90.2385 133.504 90.1885 133.479C90.1384 133.454 90.0833 133.441 90.0274 133.441H80.9974C80.7646 133.441 80.5899 133.342 80.4735 133.144C80.1501 132.587 79.6757 132.191 79.0504 131.953C78.9571 131.917 78.877 131.854 78.8204 131.772C78.7639 131.69 78.7336 131.593 78.7335 131.494ZM75.2341 139.67L76.379 141.637C76.4826 141.815 76.6315 141.962 76.8105 142.065C76.9894 142.167 77.1922 142.22 77.3983 142.218C77.6043 142.217 77.8064 142.161 77.9841 142.057C78.1617 141.953 78.3087 141.803 78.4101 141.624L79.5032 139.69C79.533 139.638 79.5731 139.593 79.6212 139.557C79.6693 139.521 79.7242 139.496 79.7826 139.483C79.8409 139.469 79.9014 139.468 79.9602 139.479C80.019 139.49 80.0748 139.514 80.1242 139.547C80.4864 139.802 80.8228 140.078 81.1333 140.375C81.3317 140.569 81.5624 140.632 81.8254 140.563C82.6361 140.356 83.0911 139.821 83.1903 138.959C83.2636 138.299 82.9682 137.969 82.3041 137.969H72.0904C71.8446 137.969 71.6937 138.088 71.6376 138.325C71.4479 139.161 71.6743 139.841 72.3168 140.362C72.4971 140.508 72.7213 140.587 72.9528 140.589C73.1843 140.59 73.4093 140.512 73.5911 140.369L74.639 139.554C74.6838 139.519 74.7356 139.494 74.7911 139.481C74.8466 139.467 74.9044 139.466 74.9606 139.477C75.0169 139.488 75.0704 139.511 75.1176 139.545C75.1647 139.578 75.2044 139.621 75.2341 139.67Z" fill="white"/>
<path d="M79.0504 131.953C79.6757 132.191 80.15 132.587 80.4734 133.144C80.5899 133.342 80.7645 133.441 80.9974 133.441H90.0273C90.0832 133.441 90.1383 133.454 90.1884 133.479C90.2385 133.504 90.2821 133.54 90.316 133.584C90.3498 133.629 90.3729 133.68 90.3834 133.735C90.3939 133.79 90.3916 133.847 90.3766 133.9L89.5228 136.915C89.4581 137.148 89.318 137.312 89.1023 137.406C89.0032 137.454 88.8997 137.482 88.7919 137.49C88.4986 137.508 88.2981 137.656 88.1903 137.937L86.8578 141.372C86.7715 141.587 86.6422 141.617 86.4697 141.462C85.0725 140.22 85.894 137.782 85.6159 135.912C85.5814 135.671 85.4434 135.567 85.2019 135.602C80.0012 136.292 74.7941 136.294 69.5806 135.608C69.3261 135.574 69.1924 135.686 69.1795 135.944C69.1084 137.613 69.7423 140.362 68.2804 141.469C68.1036 141.602 67.9721 141.566 67.8858 141.359L66.5663 137.995C66.48 137.779 66.3291 137.624 66.1135 137.529L65.3502 137.186C65.2294 137.135 65.1561 137.044 65.1303 136.915L64.464 133.875C64.4036 133.586 64.5222 133.441 64.8198 133.441H73.4616C73.66 133.441 73.8368 133.381 73.992 133.26L75.6932 131.934C75.8873 131.783 75.9843 131.585 75.9843 131.339V128.81C75.9843 128.624 75.8959 128.508 75.7191 128.46C71.7992 127.395 69.8026 124.629 69.7293 120.161C69.697 117.807 70.7319 117.121 73.0218 117.108C76.3595 117.095 79.7058 117.104 83.0608 117.134C85.3765 117.154 85.2342 120.879 84.7879 122.788C84.0634 125.897 82.1358 127.734 79.0051 128.299C78.824 128.329 78.7334 128.437 78.7334 128.622V131.494C78.7335 131.593 78.7638 131.69 78.8203 131.772C78.8769 131.854 78.9571 131.917 79.0504 131.953Z" fill="#202740"/>
<path d="M74.6385 139.554L73.5906 140.369C73.4089 140.512 73.1838 140.59 72.9523 140.589C72.7209 140.587 72.4966 140.508 72.3163 140.362C71.6738 139.841 71.4474 139.161 71.6372 138.325C71.6932 138.088 71.8441 137.969 72.0899 137.969H82.3036C82.9677 137.969 83.2631 138.299 83.1898 138.959C83.0906 139.821 82.6357 140.356 81.825 140.563C81.5619 140.632 81.3312 140.569 81.1328 140.375C80.8224 140.078 80.486 139.802 80.1238 139.547C80.0744 139.514 80.0185 139.49 79.9597 139.479C79.9009 139.468 79.8405 139.469 79.7821 139.483C79.7238 139.496 79.6688 139.521 79.6208 139.557C79.5727 139.593 79.5325 139.638 79.5028 139.69L78.4096 141.624C78.3082 141.803 78.1613 141.953 77.9836 142.057C77.806 142.161 77.6039 142.217 77.3978 142.218C77.1918 142.22 76.989 142.167 76.81 142.065C76.631 141.962 76.4822 141.815 76.3785 141.637L75.2336 139.67C75.204 139.621 75.1643 139.578 75.1171 139.545C75.07 139.511 75.0165 139.488 74.9602 139.477C74.9039 139.466 74.8461 139.467 74.7907 139.481C74.7352 139.494 74.6833 139.519 74.6385 139.554Z" fill="#202740"/>
</svg>
