<svg width="32" height="32" viewBox="0 0 32 32" fill="none" xmlns="http://www.w3.org/2000/svg">
<rect width="32" height="32" rx="16" fill="#0D0C00"/>
<path d="M14.3329 21.8893C15.3365 22.172 16.3957 22.1925 17.4094 21.9489L12.8139 26.5413C10.1116 25.7229 7.82716 23.896 6.43352 21.4388C5.03988 18.9815 4.64373 16.082 5.32709 13.3405C6.00963 10.5988 7.72025 8.22508 10.1043 6.71146C12.4884 5.19784 15.3631 4.66037 18.1324 5.21059C18.1324 5.21059 14.4076 8.89115 12.3791 10.9139C11.7397 11.5227 11.1815 12.2116 10.7182 12.9635C10.0126 14.1168 9.72285 15.4772 9.89727 16.8183C10.0717 18.1594 10.6997 19.4003 11.6769 20.3344C12.4149 21.0713 13.3294 21.6067 14.3329 21.8893Z" fill="white"/>
<path d="M17.6568 10.1142C16.6533 9.83158 15.5941 9.81129 14.5804 10.0553L19.165 5.45258C21.8724 6.26642 24.1627 8.09223 25.5608 10.5511C26.9588 13.01 27.3571 15.9132 26.6732 18.6582C25.9901 21.4034 24.2764 23.7797 21.8881 25.2933C19.4999 26.8068 16.6207 27.3414 13.8489 26.7857C13.8489 26.7857 17.5737 23.1027 19.6028 21.083C20.2415 20.4721 20.7996 19.7821 21.2637 19.0298C22.7151 16.6685 22.3225 13.6821 20.3123 11.6698C19.5747 10.9325 18.6604 10.3969 17.6568 10.1142Z" fill="white"/>
</svg>
