<svg width="32" height="32" viewBox="0 0 32 32" fill="none" xmlns="http://www.w3.org/2000/svg">
<g clip-path="url(#clip0_961_239)">
<rect width="32" height="32" rx="16" fill="white"/>
<path d="M12.3075 3.8976C17.7185 9.2832 24.5281 12.8448 31.9968 14.1952C31.0965 6.21119 24.2934 0 16.0274 0C13.8443 0 11.7641 0.435201 9.86398 1.2192C10.6356 2.1472 11.4587 3.0496 12.3075 3.8976Z" fill="black"/>
<path d="M0 17.1936C0.241132 20.4288 1.44358 23.3952 3.33085 25.808L3.41766 25.7216C5.35635 23.8112 7.88023 22.0736 10.9249 20.56C13.5935 19.232 16.6575 18.0928 19.9594 17.1936H0Z" fill="black"/>
<path d="M19.2596 19.8832L19.265 19.8816L19.2682 19.8784L19.2596 19.8832Z" fill="black"/>
<path d="M19.2596 19.8832C16.1056 21.6552 13.1764 23.8616 10.6163 26.4097C9.66143 27.3601 8.74511 28.3681 7.88989 29.4113L7.67766 29.6705C6.69065 29.0721 5.77755 28.3681 4.94485 27.5809L5.0831 27.4433C8.21368 24.3434 13.2144 21.6976 19.2596 19.8832Z" fill="black"/>
<path d="M5.0831 4.5568C8.2146 7.66083 13.2173 10.304 19.265 12.1216C16.1077 10.3456 13.1755 8.14083 10.6131 5.59043C9.66143 4.6432 8.74511 3.6352 7.88667 2.58879L7.6745 2.32959C6.68744 2.92799 5.77433 3.632 4.94485 4.4192L5.0831 4.5568Z" fill="black"/>
<path d="M12.3075 28.1024C11.4555 28.9504 10.6324 29.8528 9.86398 30.7808C11.7609 31.5648 13.8443 32 16.0274 32C24.2934 32 31.0965 25.7888 32 17.8016C24.5313 19.152 17.7217 22.7136 12.3107 28.0992L12.3075 28.1024Z" fill="black"/>
<path d="M10.9249 11.44C7.88023 9.92638 5.35635 8.18878 3.41766 6.27837L3.33085 6.19197C1.44358 8.60478 0.241132 11.5712 0 14.8064H19.9562C16.6542 13.9072 13.5935 12.768 10.9217 11.4368L10.9249 11.44Z" fill="black"/>
</g>
<defs>
<clipPath id="clip0_961_239">
<rect width="32" height="32" rx="16" fill="white"/>
</clipPath>
</defs>
</svg>
