<svg width="32" height="32" viewBox="0 0 32 32" fill="none" xmlns="http://www.w3.org/2000/svg">
<rect width="32" height="32" rx="16" fill="#63849F"/>
<path d="M15.3168 9.54822C15.4766 9.11187 15.9129 8.85523 16.3117 9.0874C16.6732 9.30441 16.7724 9.77458 16.8214 10.1701C16.9681 11.7492 16.9973 13.3764 17.0284 14.9699C17.8662 14.9882 18.7277 15.0123 19.5483 15.0371C20.4618 15.0954 21.4116 15.0697 22.31 15.2715C23.3355 15.5642 23.1628 16.6069 22.1558 16.7726C20.8049 16.9697 19.6684 16.9533 18.2625 17.0034C17.8474 17.0139 17.4373 17.0257 17.0294 17.0348C17.0112 17.8706 16.9872 18.7299 16.9625 19.5483C16.9042 20.4619 16.9299 21.4116 16.7281 22.3099C16.4354 23.3355 15.3928 23.1628 15.2271 22.1559C15.03 20.8049 15.0463 19.6685 14.9961 18.2626C14.9857 17.8497 14.9739 17.4418 14.9648 17.0361C14.8881 17.0337 14.8113 17.031 14.7344 17.0279C13.7824 17.0022 12.8746 16.9895 11.9284 16.9451C11.142 16.8787 10.3054 16.93 9.54821 16.6827C9.11188 16.5229 8.85523 16.0867 9.08739 15.6879C9.30439 15.3263 9.77458 15.2272 10.1701 15.1782C11.7469 15.0316 13.3719 15.0022 14.9632 14.9712C14.9657 14.8923 14.9685 14.8134 14.9716 14.7343C14.9974 13.7823 15.0101 12.8746 15.0544 11.9284C15.1209 11.142 15.0696 10.3054 15.3168 9.54822ZM10.8772 11.116C11.688 11.0775 12.5 11.0448 12.5 11.8123C12.5 12.5089 11.7088 12.6262 11.7066 12.6265C10.078 12.8598 7.39661 13.3252 6.00645 13.9061C3.91599 14.7797 3.74379 15.6488 3.74379 15.9999C3.74381 16.351 3.9161 17.22 6.00645 18.0936C7.39661 18.6745 10.078 19.1411 11.7066 19.3732C11.7087 19.3735 12.5 19.4908 12.5 20.1874C12.5 20.9549 11.6868 20.9222 10.8772 20.8838C6.00526 20.6527 2 18.6453 2 15.9707C2.00003 13.296 6.00527 11.3493 10.8772 11.116ZM19.4999 11.8123C19.4999 11.0448 20.312 11.0775 21.1228 11.116C25.9947 11.347 30 13.2937 30 15.9683V15.9707C30 18.6453 25.9947 20.6528 21.1228 20.8838C20.3131 20.9222 19.4999 20.9549 19.4999 20.1874C19.4999 19.4919 20.2886 19.3739 20.2933 19.3732C21.9219 19.1411 24.6034 18.6745 25.9935 18.0936C28.0839 17.22 28.2562 16.351 28.2562 15.9999C28.2562 15.6488 28.084 14.7797 25.9935 13.9061C24.6034 13.3252 21.9219 12.8598 20.2933 12.6265C20.2886 12.6258 19.4999 12.5078 19.4999 11.8123Z" fill="#F5FB8C"/>
</svg>
