<svg width="32" height="32" viewBox="0 0 32 32" fill="none" xmlns="http://www.w3.org/2000/svg">
<rect width="32" height="32" rx="16" fill="white"/>
<path d="M24 19.6217C24 24.2406 20.4349 27 16.0359 27C11.637 27 8.57502 24.2706 8 20.7914H12.0539C12.4996 22.1111 13.9515 23.0709 16.0359 23.0709C18.3504 23.0709 20.018 21.8562 20.018 19.6967C20.018 17.5372 18.3935 16.4274 16.0216 16.4274V19.4717C11.5508 19.4717 8.12938 16.8323 8.12938 12.4233C8.12938 8.01431 11.4214 5 16.0503 5C20.4349 5 23.4537 7.71439 23.7556 11.0586H19.8455C19.5292 9.85889 18.2498 8.9441 16.1366 8.9441C13.5633 8.9441 12.1402 10.1888 12.1402 12.3033C12.1402 14.4179 13.779 15.4376 16.0216 15.4376V12.2434C20.8805 12.2434 24 15.2727 24 19.6217Z" fill="black"/>
</svg>
