<svg width="32" height="32" viewBox="0 0 32 32" fill="none" xmlns="http://www.w3.org/2000/svg">
<rect width="32" height="32" rx="16" fill="#0C101B"/>
<path d="M26.5377 20.9637L22.7679 15.5014C22.3584 14.9078 21.752 14.5523 21.1061 14.4739C20.9591 14.4557 20.8279 14.3647 20.7543 14.2275C20.6795 14.0903 20.6716 13.9237 20.7307 13.7781C20.9893 13.1426 21.0051 12.4049 20.7268 11.7301L18.1763 5.51746C17.7983 4.59496 16.9438 4 16 4C15.0562 4 14.2017 4.59635 13.8237 5.51746L11.2732 11.7301C10.9963 12.4049 11.0107 13.1426 11.2693 13.7781C11.3284 13.9237 11.3192 14.0903 11.2457 14.2275C11.1709 14.3647 11.0409 14.4557 10.8939 14.4739C10.2481 14.5523 9.64167 14.9078 9.23212 15.5014L5.46227 20.9637C4.90309 21.7743 4.84664 22.8605 5.31788 23.7327C5.79043 24.6035 6.70138 25.0947 7.63859 24.9842L13.9589 24.2339C14.6454 24.1526 15.2374 23.7706 15.6233 23.2133C15.7112 23.086 15.8517 23.0103 16 23.0103C16.1483 23.0103 16.2875 23.086 16.3767 23.2133C16.7627 23.7706 17.3546 24.1526 18.0411 24.2339L24.3614 24.9842C25.2987 25.0962 26.2096 24.6047 26.6821 23.7327C27.1534 22.8605 27.0969 21.7743 26.5377 20.9637ZM12.9219 12.5099L15.4763 6.2902C15.5682 6.06763 15.7742 5.92343 16.0013 5.92343C16.2284 5.92343 16.4345 6.06763 16.5264 6.2902L19.0807 12.5099C19.1608 12.7058 19.1438 12.9326 19.0335 13.1118C18.9232 13.291 18.7368 13.3988 18.5347 13.3988H13.4666C13.2658 13.3988 13.0781 13.291 12.9678 13.1118C12.8576 12.9326 12.8418 12.7058 12.9219 12.5099ZM14.2332 21.9787C14.1426 22.1704 13.9668 22.2992 13.7672 22.3229L7.44039 23.0733C7.21461 23.0999 6.99409 22.9823 6.8799 22.7724C6.7657 22.5624 6.78015 22.3007 6.91533 22.1046L10.6891 16.6367C10.8086 16.4645 11.0002 16.3665 11.2011 16.3791C11.4019 16.3903 11.583 16.5093 11.6841 16.6955L11.688 16.7025L14.2149 21.3696L14.2188 21.3766C14.3198 21.5628 14.3251 21.7896 14.2345 21.98L14.2332 21.9787ZM16.5198 19.8676C16.4122 20.065 16.2153 20.1882 16 20.1882C15.7861 20.1882 15.5879 20.0664 15.4802 19.869L13.5389 16.2839C13.4312 16.0865 13.4312 15.8416 13.5389 15.6442C13.6465 15.4468 13.8434 15.3236 14.0586 15.3236H17.9401C18.154 15.3236 18.3522 15.444 18.4599 15.6428C18.5675 15.8416 18.5675 16.0851 18.4599 16.2825L16.5198 19.8676ZM25.1215 22.7724C25.0073 22.9823 24.7881 23.1014 24.5609 23.0748L18.2341 22.3244C18.0346 22.3007 17.8587 22.1718 17.7681 21.98C17.6775 21.7883 17.6828 21.5615 17.7839 21.3766L17.7878 21.3696L20.3146 16.7025L20.3185 16.6955C20.4196 16.5093 20.6008 16.3903 20.8016 16.3791C21.0024 16.3679 21.194 16.4645 21.3135 16.6367L25.0874 22.1046C25.2225 22.3007 25.2344 22.5624 25.1215 22.7724Z" fill="#E91898"/>
</svg>
