<svg width="32" height="32" viewBox="0 0 32 32" fill="none" xmlns="http://www.w3.org/2000/svg">
<rect width="32" height="32" rx="16" fill="#ECECE5"/>
<path fill-rule="evenodd" clip-rule="evenodd" d="M23.1612 14.9558C23.5259 15.2368 23.9022 15.5267 24.2371 15.8394V15.8405C24.4779 16.0652 24.8799 16.0889 25.3027 16.1139C26.2742 16.1713 27.3549 16.2352 26.8374 18.7594C26.5477 20.1752 25.1113 22.0715 23.7103 22.0825C22.3091 22.0935 21.0844 20.5584 21.4168 19.1514C21.4289 19.0995 21.4429 19.047 21.4568 18.9944C21.5177 18.765 21.5798 18.5313 21.5033 18.3121C21.4535 18.1706 21.3529 18.0602 21.2516 17.949C21.1791 17.8693 21.1061 17.7892 21.0512 17.697C20.9202 17.4789 20.9035 17.2189 20.8868 16.9582C20.8794 16.8427 20.872 16.7269 20.8546 16.6147C20.7349 15.8449 20.316 15.2773 19.7719 15.1569C19.4321 15.0806 18.9726 15.1911 18.996 15.5544C19.0378 16.1906 18.9308 16.862 18.1667 16.5396C17.7236 16.3526 17.2981 16.5135 17.0259 16.6165C16.8754 16.6734 16.7717 16.7127 16.7378 16.6654C16.6938 16.6041 16.7756 16.5069 16.8509 16.4173C16.8854 16.3763 16.9185 16.3369 16.9377 16.3032C17.0815 16.0501 17.0401 15.7824 16.9986 15.5134C16.9581 15.2506 16.9173 14.9866 17.0488 14.7339C17.1897 14.4623 17.4254 14.4084 17.6984 14.3459C18.0282 14.2705 18.4124 14.1827 18.7492 13.6836C19.1286 13.1215 19.6352 12.8321 20.1278 13.2904C20.1278 13.2904 20.1369 13.2858 20.1509 13.2752C20.2473 13.2019 20.6424 12.9016 21.3024 13.1524C21.3868 13.1844 21.4285 11.974 20.1514 11.974C19.5025 11.974 19.2717 12.4003 19.0474 12.8146C18.9633 12.9701 18.88 13.1239 18.7759 13.2529C18.3559 13.7719 17.8322 13.8702 17.2006 13.8205C16.2227 13.7443 15.5761 13.9674 15.4714 14.3573C15.3623 14.7613 15.7542 15.0852 16.0859 15.3594C16.2711 15.5125 16.4376 15.6501 16.4877 15.7775C16.647 16.1795 16.3563 16.5639 16.1906 16.7394C16.1297 16.8035 16.0485 16.8422 15.9608 16.8477H15.9534C15.7429 16.861 15.5676 16.6787 15.5868 16.4623C15.5975 16.3407 15.5504 16.2303 15.4051 16.1398C15.2354 16.0347 15.1015 16.0737 14.9537 16.1167C14.8437 16.1488 14.726 16.1831 14.58 16.1618C14.2391 16.1111 14.175 15.5975 14.3502 15.2905C14.3843 15.231 14.46 15.131 14.5527 15.0087C14.9605 14.4703 15.6958 13.4998 14.6421 13.6482C14.6358 13.6491 14.629 13.6501 14.6217 13.6511C14.3375 13.6915 13.3454 13.8326 13.5455 12.789C13.708 11.9387 14.0852 11.593 14.9841 11.1501C15.3703 10.9601 15.786 10.8832 16.1119 10.823C16.5947 10.7337 16.8802 10.6809 16.5797 10.3505C16.0387 9.75665 16.2289 9.64715 16.4248 9.53439C16.5636 9.45444 16.7053 9.37285 16.5914 9.11582C16.538 8.99544 16.3253 8.88169 16.1201 8.81432C15.6238 8.6517 14.9774 8.79424 14.4292 8.91512C13.9387 9.02328 13.5267 9.11411 13.3713 8.95348C13.1018 8.67498 13.2911 8.51582 13.5556 8.29347C13.8544 8.04232 14.2491 7.71055 14.1867 7.03514C14.1643 6.78334 13.849 6.1969 13.2409 5.68446C12.7375 5.26038 12.0076 5.47242 11.719 6.20132C11.4721 6.8242 11.4604 7.61274 11.5192 8.11524C11.5242 8.15795 11.5284 8.19863 11.5325 8.23769C11.5732 8.62683 11.5971 8.85576 12.1497 9.34553C12.5045 9.65986 12.3536 10.1628 12.2079 10.6489C12.1995 10.6769 12.1911 10.7048 12.1829 10.7326C12.0995 11.0142 12.3966 11.3478 12.667 10.8464C12.8612 10.4865 12.8608 10.0745 12.8605 9.7311C12.8605 9.71732 12.8605 9.70366 12.8605 9.6901C12.8605 9.36431 13.2505 9.53659 13.3157 9.97504C13.3809 10.4135 13.3777 10.8685 13.2345 11.2871C13.1759 11.4591 13.0798 11.6122 12.9837 11.7656C12.9273 11.8554 12.8709 11.9453 12.822 12.0391C12.7849 12.11 12.7476 12.1789 12.7111 12.2462C12.4506 12.7265 12.2314 13.1306 12.4479 13.6604C12.5865 13.9978 12.7733 14.179 12.9843 14.3836C13.12 14.5152 13.2658 14.6565 13.4151 14.8553C13.4953 14.9636 13.3531 15.095 13.2559 15.0023C13.2527 15 13.2505 14.9967 13.2473 14.9945C12.7664 14.5373 12.0674 14.2645 11.4497 14.4799C11.0276 14.6279 10.4494 15.1557 10.1127 16.2833C9.7761 17.411 9.14555 18.1398 8.29268 18.3353C8.04901 18.3905 8.111 18.692 8.41772 18.6423C9.19682 18.5153 9.99945 17.8195 10.4472 16.7185C10.7358 16.0095 11.08 15.3082 11.6891 15.3082C12.29 15.3082 12.6977 15.6106 13.1419 15.9401C13.3692 16.1087 13.6061 16.2844 13.8833 16.4302C13.0656 16.1088 12.3859 16.0802 11.8687 16.3894C11.4014 16.6693 11.1008 17.157 10.8021 17.6418C10.4714 18.1783 10.143 18.7112 9.59333 18.9549C9.46979 19.0092 9.34003 19.0462 9.21035 19.0831C9.06071 19.1258 8.91119 19.1684 8.77147 19.2376C8.16978 19.5347 7.88229 20.2536 7.75939 20.9306C7.72442 21.1238 7.69825 21.3199 7.67208 21.516C7.57827 22.2188 7.48448 22.9216 6.98562 23.4906C6.69065 23.8275 6.24285 23.9964 5.81749 23.8827C5.14813 23.7047 4.94304 23.0021 4.73825 22.3005C4.66478 22.0488 4.59135 21.7972 4.49654 21.5701C4.44302 21.4418 4.3793 21.3166 4.31566 21.1915C4.17216 20.9094 4.02902 20.6281 4.00385 20.3144C3.95683 19.729 4.34692 19.1857 4.82357 18.8654C5.18065 18.6255 5.58511 18.4791 5.98887 18.3331C6.12409 18.2841 6.25922 18.2353 6.39247 18.1829C8.08855 17.5159 9.5463 16.2193 10.4366 14.5848L10.4423 14.5742C10.6419 14.2089 10.8706 13.7903 11.2189 13.6295C11.1398 13.5742 11.0618 13.5179 10.987 13.4583C10.4954 13.0663 10.0753 12.5041 10.0636 11.8625C10.0547 11.3599 10.2897 10.9134 10.5267 10.4631C10.6599 10.2098 10.7939 9.95535 10.8854 9.689C11.0768 9.13253 11.0788 8.53351 11.0808 7.94125C11.081 7.85881 11.0813 7.77651 11.0821 7.69447C11.0896 6.90372 11.1622 6.06879 11.7051 5.46579C11.9766 5.16429 12.3582 4.97876 12.7557 5.00195C13.3126 5.03417 13.6005 5.43709 13.8888 5.84043C14.0946 6.12838 14.3006 6.41654 14.6046 6.57019C15.1958 6.86974 15.7949 6.54736 16.4143 6.21396C16.8934 5.95611 17.3848 5.69168 17.8942 5.70324C18.3714 5.71432 18.5214 5.77136 18.8018 5.87801C18.9127 5.92016 19.0439 5.97006 19.2237 6.02793C19.4923 6.11428 19.812 6.05924 20.167 5.99811C20.6792 5.90991 21.265 5.80904 21.8774 6.10193C22.5015 6.40011 23.0338 7.72759 22.6907 8.34274C22.5348 8.62235 22.2327 8.7867 21.9386 8.94671C21.5066 9.18172 21.0918 9.40737 21.1827 9.97504C21.2383 10.3251 21.546 10.6962 21.9992 10.99C22.905 11.5759 22.4036 12.0468 21.9532 12.4698C21.6904 12.7166 21.4451 12.947 21.5065 13.1745C21.6796 13.8143 22.3948 14.3653 23.1612 14.9558ZM17.0392 12.1452C16.9686 12.926 17.6398 13.1446 17.7328 12.3804L17.7339 12.3793C17.9594 10.5284 19.1863 8.7845 21.0341 8.43882C22.6607 8.13401 22.416 6.55141 21.4734 6.29188C20.9812 6.15616 20.4686 6.52663 20.0109 6.85737C19.7758 7.02722 19.5552 7.18659 19.3594 7.26154C18.8343 7.46277 18.5907 7.21313 18.3352 6.9513C18.2766 6.89125 18.2173 6.83055 18.1539 6.7745C17.7788 6.44208 16.4407 6.35262 16.2462 6.78334C16.1354 7.0278 16.3366 7.00331 16.6334 6.96718C16.9293 6.93117 17.3202 6.8836 17.5917 7.07932C17.7777 7.21302 17.7822 7.41169 17.7867 7.60361C17.7915 7.81434 17.7962 8.01692 18.0406 8.11634C18.2771 8.21292 18.5659 8.07588 18.8921 7.92105C19.1778 7.7855 19.4921 7.6363 19.8254 7.61826C20.3854 7.58844 20.643 7.92197 19.4642 8.74695C18.5931 9.35658 17.1471 10.9602 17.0392 12.1452ZM23.7444 17.2773C24.0693 17.6141 24.7181 17.9057 25.0761 17.655L25.075 17.6539C25.4615 17.3836 25.3249 16.9823 25.1824 16.5637C25.1701 16.5274 25.1577 16.491 25.1456 16.4545C25.1135 16.3584 24.9756 16.3838 24.9756 16.4854C24.9831 17.8449 23.2475 16.4921 22.9226 15.9487C22.6875 15.5556 22.011 15.8349 22.3701 16.481C22.8388 17.3263 22.7748 17.3539 22.6199 17.4207C22.4907 17.4764 22.2984 17.5594 22.2984 18.1652C22.2984 18.3914 22.2614 18.5569 22.2263 18.7135C22.1653 18.9857 22.1103 19.2314 22.2664 19.7236C22.3006 19.8318 22.4556 19.7931 22.4417 19.6805C22.3422 18.897 22.6061 18.5835 22.8494 18.2943C23.0584 18.0459 23.2523 17.8154 23.1876 17.3204C23.1331 16.9051 23.2464 16.7627 23.7444 17.2773Z" fill="#010101"/>
<path d="M18.839 17.3933C19.6855 18.1255 19.8885 18.9516 19.975 20.0891V20.0902C20.052 21.0963 19.8458 22.0969 19.6085 23.0798C19.5668 23.2532 19.3872 23.3471 19.228 23.2786C18.9758 23.1715 18.5184 22.7485 18.1775 22.056C18.1529 22.0074 18.0802 22.0339 18.093 22.0881C18.1955 22.52 18.3567 22.8683 18.4825 23.1398C18.5075 23.1939 18.5311 23.2449 18.5526 23.293C18.7139 23.6519 18.808 24.0583 18.5611 24.362C18.4842 24.4559 18.3762 24.5288 18.2576 24.531C18.0481 24.5343 17.8985 24.3278 17.797 24.1389C17.3802 23.3603 17.159 22.4724 17.1547 21.5833C17.1547 21.5259 17.0745 21.5204 17.066 21.5767C16.9366 22.4194 17.0948 23.304 17.3075 24.1389C17.3213 24.1934 17.3353 24.2478 17.3494 24.3023C17.4464 24.6788 17.5438 25.0565 17.5597 25.4443V25.5658C17.5544 25.7889 17.4219 25.991 17.2188 26.0683C17.144 26.097 17.0692 26.129 16.989 26.1677C16.7999 26.2601 16.6216 26.3861 16.4444 26.5115C16.1068 26.7502 15.7729 26.9864 15.3742 26.9828C14.8729 26.9772 14.4572 26.5819 14.1579 26.1666C14.0873 26.0683 14.0195 25.967 13.9516 25.8656C13.7316 25.5371 13.5113 25.208 13.1961 24.9827C13.0832 24.9025 12.9591 24.836 12.8353 24.7697C12.5946 24.6408 12.3554 24.5127 12.2043 24.2858C11.9994 23.9785 12.0182 23.5853 12.0363 23.2041C12.0398 23.1318 12.0432 23.06 12.0451 22.9892C12.0628 22.3149 11.8648 21.7447 11.6704 21.185C11.5016 20.6989 11.3356 20.2207 11.3162 19.6893C11.3162 18.9914 11.9617 18.8621 12.6382 18.956C13.4665 19.0709 13.7315 18.6733 13.6642 18.2448C13.6182 17.9587 13.2987 17.6606 12.8423 17.6086C12.5345 17.5733 12.4341 17.3889 12.7568 17.2961L12.7583 17.2953L12.7622 17.2939C13.2698 17.1039 14.1397 17.2563 14.6399 17.6583C14.6797 17.6903 14.7185 17.7187 14.7562 17.7464C15.1572 18.0402 15.4433 18.2499 15.6552 21.8153C15.6841 22.2973 15.6885 22.8204 15.6926 23.3079C15.7011 24.317 15.7083 25.1738 15.9288 25.1991C16.1471 25.2242 16.1564 23.6739 16.1657 22.1008C16.1704 21.3175 16.1751 20.5285 16.2057 19.9256C16.242 19.1967 16.2879 18.4358 16.6438 17.8052C16.6458 17.8018 16.648 17.7977 16.6507 17.7931C16.711 17.6866 16.9479 17.2679 17.4518 17.1017C17.8461 16.9714 18.3378 16.9603 18.839 17.3933Z" fill="#010101"/>
</svg>
