<svg width="200" height="200" viewBox="0 0 200 200" fill="none" xmlns="http://www.w3.org/2000/svg">
<rect width="200" height="200" rx="100" fill="white"/>
<path d="M99.9999 16C53.6133 16 16 53.6133 16 99.9999C16 105.021 16.4667 109.931 17.3067 114.7H35.9593C38.344 114.7 39.772 113.925 40.696 112.432L47.248 101.577L55.6293 127.603C56.4553 130.221 58.4013 131.584 61.024 131.603C63.712 131.617 65.9286 129.969 66.4513 127.281L72.532 98.6233L79.1493 144.319C79.5553 147.325 81.016 148.837 84.0399 148.837H84.0726C87.0826 148.837 88.5246 147.208 88.9446 144.217L102.436 55.2793C102.618 53.9541 102.268 52.6107 101.461 51.5435C100.655 50.4763 99.4579 49.7724 98.1333 49.586C96.8096 49.4087 95.4694 49.7605 94.4035 50.5652C93.3376 51.3698 92.6321 52.5624 92.4399 53.884L84.1239 110.901L78.5286 72.8493C78.16 69.928 75.9433 68.1126 73.5213 68.0613C70.7866 67.996 68.752 69.7086 68.1826 72.616L60.1466 109.847L53.73 89.8733C53.4652 88.8202 52.8888 87.8715 52.0762 87.1513C51.2636 86.4311 50.2526 85.9729 49.1753 85.8366C46.254 85.4866 44.588 86.9986 43.3606 88.9959L33.4393 104.62H27.508C27.4014 103.082 27.3453 101.541 27.34 99.9999C27.34 59.8666 59.8666 27.34 99.9999 27.34C132.359 27.34 159.775 48.508 169.165 77.74H180.995C171.232 42.1566 138.687 16 99.9999 16Z" fill="url(#paint0_linear_2002_2)"/>
<path d="M182.693 85.3001H164.008C161.623 85.3001 160.195 86.0748 159.271 87.5681L152.719 98.4228L144.333 72.3968C143.512 69.7788 141.561 68.4161 138.943 68.3974C136.255 68.3834 134.039 70.0308 133.516 72.7188L127.435 101.377L120.813 55.6808C120.412 52.6755 118.947 51.1635 115.927 51.1635H115.895C112.885 51.1635 111.443 52.7921 111.023 55.7834L97.5267 144.721C97.1393 147.474 99.0713 150.031 101.825 150.414C103.148 150.591 104.489 150.239 105.554 149.435C106.62 148.63 107.326 147.438 107.518 146.116L115.839 89.0988L121.434 127.151C121.803 130.072 124.019 131.887 126.437 131.939C129.176 132.004 131.211 130.291 131.78 127.384L139.811 90.1534L146.228 110.127C146.732 112.297 148.664 113.907 150.783 114.163C153.704 114.513 155.37 113.001 156.593 111.004L166.523 95.3801H172.487C172.59 96.9108 172.655 98.4554 172.655 100C172.655 140.133 140.129 172.66 99.9953 172.66C67.6367 172.66 40.22 151.492 30.8307 122.26H19.0054C28.768 157.843 61.3274 184 100 184C146.387 184 184 146.387 184 100C184 94.9788 183.533 90.0694 182.693 85.3001Z" fill="url(#paint1_linear_2002_2)"/>
<defs>
<linearGradient id="paint0_linear_2002_2" x1="16" y1="16" x2="184" y2="184" gradientUnits="userSpaceOnUse">
<stop stop-color="#FC829F"/>
<stop offset="0.337" stop-color="#FF1C53"/>
<stop offset="0.436" stop-color="#EA49F8"/>
<stop offset="0.53" stop-color="#B250FF"/>
<stop offset="0.634" stop-color="#5E5FF5"/>
<stop offset="1" stop-color="#323CFF"/>
</linearGradient>
<linearGradient id="paint1_linear_2002_2" x1="16.0001" y1="16.0001" x2="184" y2="184" gradientUnits="userSpaceOnUse">
<stop stop-color="#FC829F"/>
<stop offset="0.337" stop-color="#FF1C53"/>
<stop offset="0.436" stop-color="#EA49F8"/>
<stop offset="0.53" stop-color="#B250FF"/>
<stop offset="0.634" stop-color="#5E5FF5"/>
<stop offset="1" stop-color="#323CFF"/>
</linearGradient>
</defs>
</svg>
