<svg width="32" height="32" viewBox="0 0 32 32" fill="none" xmlns="http://www.w3.org/2000/svg">
<path d="M32 16C32 7.16344 24.8366 0 16 0C7.16344 0 0 7.16344 0 16C0 24.8366 7.16344 32 16 32C24.8366 32 32 24.8366 32 16Z" fill="#04795B"/>
<path d="M11.6529 17.4492C12.283 17.4492 12.8647 17.2393 13.3333 16.8759L9.48764 13.0316C9.12407 13.4919 8.91404 14.0734 8.91404 14.7114C8.90593 16.2217 10.134 17.4492 11.6529 17.4492Z" fill="#EFEFEF"/>
<path d="M23.0928 14.7033C23.0928 14.0734 22.8828 13.4919 22.5192 13.0235L18.6736 16.8677C19.134 17.2311 19.7157 17.4411 20.354 17.4411C21.8648 17.4492 23.0928 16.2216 23.0928 14.7033Z" fill="#EFEFEF"/>
<path d="M25.0318 10.528L23.3271 12.232C23.8926 12.9104 24.2319 13.7665 24.2319 14.7195C24.2319 16.8597 22.4949 18.596 20.354 18.596C19.4087 18.596 18.5443 18.2568 17.8656 17.6915L15.9994 19.5571L14.1331 17.6915C13.4545 18.2568 12.598 18.596 11.6447 18.596C9.50374 18.596 7.76678 16.8597 7.76678 14.7195C7.76678 13.7746 8.10608 12.9104 8.67163 12.232L7.79904 11.3598L6.96694 10.528C5.99744 12.1271 5.44 13.9927 5.44 15.9956C5.44 21.8265 10.1662 26.543 15.9913 26.543C21.8163 26.543 26.5426 21.8184 26.5426 15.9956C26.5587 13.9846 26.0013 12.119 25.0318 10.528Z" fill="#EFEFEF"/>
<path d="M23.6341 8.71083C21.7194 6.6999 19.0048 5.44 15.9994 5.44C12.9939 5.44 10.2874 6.6999 8.36459 8.71083C8.10608 8.98545 7.85563 9.27617 7.62134 9.57499L15.9913 17.9419L24.3612 9.56694C24.1512 9.27617 23.9007 8.97734 23.6341 8.71083ZM15.9994 6.81296C18.4716 6.81296 20.766 7.76592 22.4869 9.5023L15.9994 15.9874L9.51184 9.5023C11.2408 7.76592 13.5272 6.81296 15.9994 6.81296Z" fill="#EFEFEF"/>
</svg>
