<svg width="32" height="32" viewBox="0 0 32 32" fill="none" xmlns="http://www.w3.org/2000/svg">
<rect width="32" height="32" rx="16" fill="black"/>
<rect x="11.7329" y="13.1152" width="5.76935" height="5.76935" rx="0.480779" fill="white"/>
<rect x="5.96362" y="7.34595" width="5.76935" height="5.76935" rx="0.480779" fill="white"/>
<rect x="17.5022" y="7.34595" width="5.76935" height="5.76935" rx="0.480779" fill="white"/>
<rect x="5.96362" y="18.8848" width="5.76935" height="5.76935" rx="0.480779" fill="white"/>
<rect x="17.5022" y="18.8848" width="5.76935" height="5.76935" rx="0.480779" fill="white"/>
<path opacity="0.7" d="M24.2332 18.8848H25.6755C25.941 18.8848 26.1563 19.1 26.1563 19.3655V24.1733C26.1563 24.4389 25.941 24.6541 25.6755 24.6541H24.2332V18.8848Z" fill="white"/>
<path opacity="0.7" d="M24.2332 7.34595H25.6755C25.941 7.34595 26.1563 7.5612 26.1563 7.82673V12.6345C26.1563 12.9 25.941 13.1153 25.6755 13.1153H24.2332V7.34595Z" fill="white"/>
<path opacity="0.5" d="M27.1177 18.8848H27.5985C27.864 18.8848 28.0792 19.1 28.0792 19.3655V24.1733C28.0792 24.4389 27.864 24.6541 27.5985 24.6541H27.1177V18.8848Z" fill="white"/>
<path opacity="0.5" d="M27.1177 7.34595H27.5985C27.864 7.34595 28.0792 7.5612 28.0792 7.82673V12.6345C28.0792 12.9 27.864 13.1153 27.5985 13.1153H27.1177V7.34595Z" fill="white"/>
</svg>
