<svg width="32" height="32" viewBox="0 0 32 32" fill="none" xmlns="http://www.w3.org/2000/svg">
<rect width="32" height="32" rx="16" fill="black"/>
<path d="M17.6179 17.1431C18.9876 17.1433 20.3162 17.6355 21.328 18.6002L27 24H24.2804L19.98 19.907C19.3474 19.3069 18.5035 18.9862 17.6179 18.9862C16.7323 18.9863 15.8889 19.3069 15.2563 19.907L10.9559 24H8.23632L13.9077 18.6002C14.9196 17.6366 16.2472 17.1434 17.6179 17.1431Z" fill="white"/>
<path d="M6 11.7862C6.00001 11.1862 6.50605 10.9937 6.94828 11.4002L12.8734 16.5003V16.5013L6.94828 21.6009C6.50603 22.0074 6 21.8149 6 21.2149V11.7862Z" fill="white"/>
<path d="M15.2553 13.093C15.8879 13.693 16.7313 14.0137 17.6169 14.0138C18.5024 14.0138 19.3459 13.693 19.9784 13.093L24.2794 9H26.999L21.327 14.3998C20.3149 15.3636 18.9869 15.8569 17.6158 15.8569L17.6169 15.858C16.2468 15.858 14.9178 15.3658 13.9057 14.4008L8.23528 9H10.9549L15.2553 13.093Z" fill="white"/>
</svg>
