<svg width="32" height="32" viewBox="0 0 32 32" fill="none" xmlns="http://www.w3.org/2000/svg">
<rect width="32" height="32" rx="16" fill="#FE5161"/>
<path d="M16.0002 6C9.55095 6 7 10.0049 7 15.9019C7 21.7988 9.55095 26 16.0002 26C22.4494 26 25 21.7985 25 15.9019C25 10.0052 22.4494 6 16.0002 6ZM16.001 22.7684C13.0595 22.7684 11.5361 21.0144 11.0762 18.0622C11.0416 17.8397 11.2091 17.6374 11.4301 17.6374H20.5266C20.7468 17.6374 20.9142 17.8385 20.8809 18.0607C20.4336 21.0137 18.9434 22.7684 16.0013 22.7684H16.001ZM11.3918 14.4362C11.1742 14.4362 11.0078 14.2396 11.0371 14.0192C11.445 10.9491 12.9705 9.23171 16.001 9.23171C19.0316 9.23171 20.5222 10.9497 20.918 14.0207C20.9465 14.2405 20.7804 14.4362 20.5631 14.4362H11.3918Z" fill="white"/>
</svg>
