<svg width="200" height="200" viewBox="0 0 200 200" fill="none" xmlns="http://www.w3.org/2000/svg">
<path d="M100 200C155.228 200 200 155.228 200 100C200 44.7715 155.228 0 100 0C44.7715 0 0 44.7715 0 100C0 155.228 44.7715 200 100 200Z" fill="#005741"/>
<path d="M127.268 124.483V139.436H66.7575C67.5896 129.592 70.7067 122.669 81.4783 112.928L127.268 73.1031V108.053H143.75V43.75H50.0184V75.8031H66.4954V60.5547H116.29L70.725 100.202L70.6147 100.305C51.5171 117.545 50 131.458 50 147.85V156.25H143.745V124.488H127.264L127.268 124.483Z" fill="white"/>
</svg>
