<svg width="32" height="32" viewBox="0 0 32 32" fill="none" xmlns="http://www.w3.org/2000/svg">
<rect width="32" height="32" rx="16" fill="url(#paint0_linear_812_223)"/>
<path fill-rule="evenodd" clip-rule="evenodd" d="M3 16.0006C3 8.82043 8.82056 3 15.9997 3C23.1801 3 29.0007 8.82043 29 16C29 18.5431 28.2695 20.9154 27.0075 22.9187C26.6596 23.4706 26.272 23.9945 25.8473 24.487L16.0169 14.6569L7.5637 23.1093L6.16805 24.5049C5.74206 24.0137 5.35317 23.4904 5.00521 22.9392C3.73493 20.932 3 18.5521 3 16.0006ZM25.5172 21.0663L25.6362 20.8284L25.6369 20.8291C26.3827 19.3413 26.7767 17.6713 26.7767 16.0006C26.7767 10.0587 21.9424 5.22456 16.0003 5.22456C10.0582 5.22456 5.2246 10.0587 5.2246 16.0006C5.2246 17.6802 5.62245 19.3573 6.37528 20.8508L6.4949 21.0875L16.0169 11.5656L25.5172 21.0663ZM16.0002 29C19.2367 29 22.1975 27.8174 24.4732 25.8602L16.0175 17.4039L7.54567 25.8749C9.81825 27.8237 12.7637 29 16.0002 29Z" fill="white"/>
<defs>
<linearGradient id="paint0_linear_812_223" x1="15.9999" y1="-1.49906e-09" x2="16.0472" y2="32" gradientUnits="userSpaceOnUse">
<stop stop-color="#169E00"/>
<stop offset="0.49" stop-color="#00C537"/>
<stop offset="1" stop-color="#00B1C9"/>
</linearGradient>
</defs>
</svg>
